<svg width="120" height="74" viewBox="0 0 120 74" fill="none" xmlns="http://www.w3.org/2000/svg">
<path d="M49.7514 23.2077C55.161 10.1698 68.014 1 83.0088 1C102.886 1 119 17.1138 119 36.9911C119 56.8684 102.886 72.9822 83.0088 72.9822C67.1001 72.9822 53.6022 62.6605 48.8464 48.3486" stroke="#03E2CD" stroke-width="1.34084"/>
<path d="M57.9568 22.7887C62.907 14.0756 72.2716 8.19824 83.009 8.19824C98.9108 8.19824 111.802 21.0893 111.802 36.9911C111.802 52.893 98.9108 65.784 83.009 65.784C71.1404 65.784 60.949 58.6029 56.5427 48.3486" stroke="url(#paint0_linear_564_407)" stroke-width="1.34084"/>
<path d="M62.3668 46.6726C66.0072 54.4208 73.8816 59.7855 83.009 59.7855C95.5979 59.7855 105.803 49.5801 105.803 36.9911C105.803 24.4022 95.5979 14.1968 83.009 14.1968C73.0468 14.1968 64.5773 20.5876 61.4766 29.493" stroke="#D826BB" stroke-width="1.34084"/>
<circle cx="83.009" cy="36.9912" r="15.5961" fill="url(#paint1_linear_564_407)"/>
<path d="M1.67958 28.5448H7.91804C9.43767 28.5448 10.6374 28.6488 11.5172 28.8567C12.4129 29.0647 13.0608 29.4326 13.4607 29.9604C13.8766 30.4723 14.0845 31.1921 14.0845 32.1199V35.0712C14.0845 36.0949 13.8606 36.8947 13.4127 37.4706C12.9808 38.0464 12.285 38.4543 11.3252 38.6943C10.3814 38.9342 9.10175 39.0542 7.48615 39.0542H5.42266V44.1169H1.67958V28.5448ZM7.79807 36.4868C8.77383 36.4868 9.46166 36.3749 9.86156 36.1509C10.2615 35.911 10.4614 35.5111 10.4614 34.9512V32.4558C10.4614 31.944 10.2695 31.608 9.88556 31.4481C9.51765 31.2881 8.80582 31.2081 7.75008 31.2081H5.42266V36.4868H7.79807ZM22.1454 44.3569C21.4256 44.3569 20.8337 44.3329 20.3698 44.2849C19.906 44.2369 19.4101 44.1409 18.8822 43.997C18.3063 43.837 17.8425 43.6131 17.4905 43.3251C17.1386 43.0212 16.8427 42.5973 16.6028 42.0535C16.3628 41.5256 16.2429 40.8857 16.2429 40.1339V36.7028C16.2429 35.935 16.3628 35.2631 16.6028 34.6873C16.8427 34.1114 17.1546 33.6635 17.5385 33.3436C17.8745 33.0717 18.3143 32.8477 18.8582 32.6718C19.4181 32.4798 19.9619 32.3599 20.4898 32.3119C21.0977 32.2799 21.6495 32.2639 22.1454 32.2639C22.8812 32.2639 23.4651 32.2879 23.897 32.3359C24.3449 32.3678 24.8327 32.4638 25.3606 32.6238C25.9365 32.7997 26.4003 33.0397 26.7523 33.3436C27.1202 33.6475 27.4321 34.0794 27.688 34.6393C27.928 35.2151 28.0479 35.903 28.0479 36.7028V40.1339C28.0479 40.8538 27.928 41.4856 27.688 42.0295C27.4641 42.5733 27.1682 42.9972 26.8002 43.3011C26.4803 43.5731 26.0404 43.797 25.4806 43.973C24.9367 44.1329 24.4008 44.2369 23.873 44.2849C23.3931 44.3329 22.8172 44.3569 22.1454 44.3569ZM22.1454 42.1734C22.8012 42.1734 23.2971 42.1254 23.633 42.0295C23.9689 41.9175 24.2009 41.7495 24.3289 41.5256C24.4728 41.3016 24.5448 40.9737 24.5448 40.5418V36.1509C24.5448 35.5111 24.3768 35.0632 24.0409 34.8072C23.705 34.5513 23.0732 34.4233 22.1454 34.4233C21.2176 34.4233 20.5858 34.5513 20.2499 34.8072C19.9139 35.0632 19.746 35.5111 19.746 36.1509V40.5418C19.746 40.9737 19.81 41.3016 19.9379 41.5256C20.0819 41.7495 20.3218 41.9175 20.6578 42.0295C20.9937 42.1254 21.4896 42.1734 22.1454 42.1734ZM35.2413 44.3569C33.8656 44.3569 32.8499 44.2609 32.194 44.069C31.5382 43.861 31.0823 43.4771 30.8264 42.9172C30.5704 42.3574 30.4425 41.4856 30.4425 40.3019V35.767C30.4425 34.4873 30.8024 33.5835 31.5222 33.0557C32.258 32.5278 33.4417 32.2639 35.0733 32.2639C35.8411 32.2639 36.441 32.3119 36.8729 32.4078C37.3208 32.4878 37.6807 32.6398 37.9526 32.8637C38.2245 33.0717 38.5045 33.3836 38.7924 33.7995V27.3211H42.2955V44.1169H38.9124V42.7973C38.6244 43.2612 38.3605 43.5891 38.1206 43.781C37.8966 43.957 37.5767 44.0929 37.1608 44.1889C36.7289 44.3009 36.0891 44.3569 35.2413 44.3569ZM36.1291 42.1734C36.9129 42.1734 37.4887 42.1334 37.8566 42.0535C38.2245 41.9735 38.4725 41.8295 38.6005 41.6216C38.7284 41.3976 38.7924 41.0697 38.7924 40.6378V35.959C38.7924 35.5591 38.7204 35.2551 38.5765 35.0472C38.4485 34.8232 38.2085 34.6633 37.8566 34.5673C37.5207 34.4713 37.0088 34.4233 36.321 34.4233C35.5852 34.4233 35.0573 34.4713 34.7374 34.5673C34.4175 34.6473 34.2015 34.7992 34.0896 35.0232C33.9936 35.2311 33.9456 35.5831 33.9456 36.0789V40.5178C33.9456 40.9657 33.9936 41.3096 34.0896 41.5496C34.2015 41.7735 34.4095 41.9335 34.7134 42.0295C35.0173 42.1254 35.4892 42.1734 36.1291 42.1734ZM52.4066 44.3569C51.7028 44.3569 51.0709 44.3249 50.5111 44.2609C49.9672 44.1969 49.3674 44.077 48.7115 43.901C47.9757 43.709 47.3678 43.4611 46.888 43.1572C46.4081 42.8373 46.0082 42.3974 45.6883 41.8375C45.3523 41.2776 45.1844 40.6138 45.1844 39.846V33.0077C45.1844 29.8725 47.5918 28.3049 52.4066 28.3049C53.6383 28.3049 55.2859 28.4808 57.3494 28.8327V31.64C55.4938 31.1921 53.8622 30.9682 52.4546 30.9682C51.8627 30.9682 51.3988 30.9842 51.0629 31.0162C50.743 31.0482 50.4071 31.1282 50.0552 31.2561C49.3034 31.5121 48.9275 32.0799 48.9275 32.9597V39.5821C48.9275 40.9897 50.2151 41.6935 52.7905 41.6935C53.8942 41.6935 55.4458 41.4616 57.4454 40.9977V43.829C55.7338 44.1809 54.0542 44.3569 52.4066 44.3569ZM62.9803 44.3569C61.8926 44.3569 61.0768 44.2609 60.5329 44.069C60.005 43.861 59.6291 43.5011 59.4052 42.9892C59.1972 42.4614 59.0933 41.6775 59.0933 40.6378C59.0933 39.71 59.2052 38.9822 59.4292 38.4543C59.6691 37.9265 60.045 37.5506 60.5569 37.3266C61.0848 37.0867 61.8046 36.9667 62.7164 36.9667H66.6514V36.1749C66.6514 35.679 66.5794 35.3111 66.4354 35.0712C66.3075 34.8312 66.0595 34.6633 65.6916 34.5673C65.3397 34.4713 64.8038 34.4233 64.084 34.4233C63.0923 34.4233 61.7326 34.5193 60.005 34.7113V32.5038C61.2687 32.3439 62.7484 32.2639 64.4439 32.2639C65.9316 32.2639 67.0753 32.3758 67.8751 32.5998C68.6909 32.8237 69.2747 33.2076 69.6266 33.7515C69.9786 34.2954 70.1545 35.0872 70.1545 36.1269V44.1169H66.7234V43.0612C66.4514 43.5251 66.0835 43.853 65.6196 44.045C65.1558 44.2529 64.276 44.3569 62.9803 44.3569ZM64.348 42.1734C65.0518 42.1734 65.5557 42.1494 65.8596 42.1014C66.0835 42.0694 66.2355 42.0215 66.3155 41.9575C66.4114 41.8935 66.4914 41.7895 66.5554 41.6456C66.6194 41.5336 66.6514 41.3656 66.6514 41.1417V38.8862H64.252C63.7081 38.8862 63.3242 38.9262 63.1003 39.0062C62.8763 39.0702 62.7244 39.2142 62.6444 39.4381C62.5644 39.646 62.5244 40.022 62.5244 40.5658C62.5244 41.0937 62.5644 41.4616 62.6444 41.6695C62.7244 41.8775 62.8763 42.0135 63.1003 42.0774C63.3402 42.1414 63.7561 42.1734 64.348 42.1734ZM77.5796 44.3569C76.3319 44.3569 74.8042 44.2369 72.9967 43.997V41.6695C75.2201 42.0055 76.7638 42.1734 77.6275 42.1734C78.3634 42.1734 78.9072 42.1014 79.2591 41.9575C79.6111 41.8135 79.787 41.5496 79.787 41.1657V40.4459C79.787 40.046 79.675 39.766 79.4511 39.6061C79.2272 39.4301 78.7873 39.3421 78.1314 39.3421H76.6198C75.3881 39.3421 74.4363 39.1022 73.7645 38.6223C73.0927 38.1264 72.7568 37.4066 72.7568 36.4628V35.0472C72.7568 34.0394 73.2366 33.3276 74.1964 32.9117C75.1562 32.4798 76.6038 32.2639 78.5393 32.2639C79.3071 32.2639 80.6828 32.3359 82.6663 32.4798V34.7113C80.1709 34.5193 78.7633 34.4233 78.4433 34.4233C77.4996 34.4233 76.8837 34.4873 76.5958 34.6153C76.3399 34.7593 76.2119 35.0232 76.2119 35.4071V36.0309C76.2119 36.2389 76.3159 36.4228 76.5238 36.5828C76.7318 36.7268 77.0357 36.7988 77.4356 36.7988H78.9712C81.8185 36.7988 83.2422 37.7265 83.2422 39.5821V41.0457C83.2422 41.6056 83.1382 42.0934 82.9302 42.5093C82.7223 42.9252 82.4504 43.2532 82.1144 43.4931C81.7945 43.717 81.3786 43.893 80.8667 44.021C80.3709 44.1489 79.851 44.2369 79.3071 44.2849C78.8113 44.3329 78.2354 44.3569 77.5796 44.3569ZM91.6495 44.3569C91.0576 44.3569 90.5617 44.3329 90.1618 44.2849C89.7619 44.2369 89.362 44.1409 88.9621 43.997C88.5142 43.853 88.1463 43.6531 87.8584 43.3971C87.5865 43.1412 87.3625 42.7893 87.1866 42.3414C86.9946 41.8775 86.8986 41.3416 86.8986 40.7338V34.6633H84.5472V32.5038H86.8986V29.1446H90.4018V32.5038H93.593V34.6633H90.4018V40.1339C90.4018 40.6938 90.4497 41.1177 90.5457 41.4056C90.6417 41.6775 90.8257 41.8775 91.0976 42.0055C91.3695 42.1174 91.7854 42.1734 92.3453 42.1734C92.5692 42.1734 92.9851 42.1334 93.593 42.0535V44.2369C92.8412 44.3169 92.1933 44.3569 91.6495 44.3569Z" fill="white"/>
<defs>
<linearGradient id="paint0_linear_564_407" x1="54.2161" y1="17.2907" x2="115.447" y2="19.7019" gradientUnits="userSpaceOnUse">
<stop stop-color="#03E2CD"/>
<stop offset="1" stop-color="#6254FC"/>
</linearGradient>
<linearGradient id="paint1_linear_564_407" x1="67.4128" y1="26.3201" x2="100.58" y2="27.6261" gradientUnits="userSpaceOnUse">
<stop stop-color="#03E2CD"/>
<stop offset="1" stop-color="#6254FC"/>
</linearGradient>
</defs>
</svg>
