<svg width="136" height="79" viewBox="0 0 136 79" fill="none" xmlns="http://www.w3.org/2000/svg">
<path d="M124.933 57.9671C125.989 56.9062 126.985 55.7617 127.912 54.535C139.006 39.863 136.106 18.9755 121.434 7.88139C106.762 -3.21273 85.8747 -0.312336 74.7805 14.3596C72.3161 17.6188 70.5423 21.1847 69.4346 24.8818" stroke="#03E2CD" stroke-width="1.4"/>
<path d="M116.492 56.3784C118.769 54.805 120.838 52.8471 122.599 50.5186C131.474 38.781 129.154 22.071 117.417 13.1957C105.679 4.32042 88.969 6.64073 80.0937 18.3783C78.2341 20.8376 76.866 23.5152 75.973 26.2934" stroke="url(#paint0_linear_757_384)" stroke-width="1.4"/>
<circle cx="101.254" cy="34.7377" r="14.4324" transform="rotate(-52.9054 101.254 34.7377)" fill="url(#paint1_linear_757_384)"/>
<path d="M0 27.0558H6.27888L10.5728 40.6263L14.7047 27.0558H20.6595L13.449 46.6621H7.45364L0 27.0558ZM28.7923 47.0672C26.9559 47.0672 25.5786 46.9052 24.6604 46.5811C23.7692 46.23 23.1346 45.6224 22.7565 44.7582C22.4054 43.867 22.2299 42.5437 22.2299 40.7883C22.2299 39.222 22.4189 37.9932 22.797 37.102C23.2021 36.2108 23.8368 35.5762 24.7009 35.1981C25.5921 34.793 26.8074 34.5905 28.3467 34.5905H34.9902V33.2537C34.9902 32.4165 34.8687 31.7953 34.6256 31.3903C34.4096 30.9852 33.991 30.7016 33.3698 30.5396C32.7757 30.3775 31.871 30.2965 30.6557 30.2965C28.9814 30.2965 26.6859 30.4585 23.7692 30.7826V27.0558C25.9027 26.7857 28.4008 26.6507 31.2634 26.6507C33.7749 26.6507 35.7059 26.8397 37.0562 27.2178C38.4335 27.5959 39.4192 28.2441 40.0133 29.1623C40.6074 30.0805 40.9045 31.4173 40.9045 33.1726V46.6621H35.1117V44.8797C34.6526 45.6629 34.0315 46.2165 33.2483 46.5406C32.4651 46.8917 30.9798 47.0672 28.7923 47.0672ZM31.1013 43.3809C32.2896 43.3809 33.1403 43.3404 33.6534 43.2594C34.0315 43.2053 34.288 43.1243 34.4231 43.0163C34.5851 42.9083 34.7201 42.7327 34.8282 42.4897C34.9362 42.3007 34.9902 42.0171 34.9902 41.639V37.8312H30.9393C30.0211 37.8312 29.373 37.8987 28.9949 38.0337C28.6168 38.1417 28.3602 38.3848 28.2252 38.7629C28.0902 39.1139 28.0227 39.7486 28.0227 40.6668C28.0227 41.558 28.0902 42.1791 28.2252 42.5302C28.3602 42.8813 28.6168 43.1108 28.9949 43.2189C29.4 43.3269 30.1021 43.3809 31.1013 43.3809ZM46.108 27.0558H52.0223V29.4458C52.4004 27.5824 54.3313 26.6507 57.8151 26.6507C59.6515 26.6507 61.0423 26.8938 61.9875 27.3799C62.9327 27.839 63.5673 28.5681 63.8914 29.5673C64.2155 28.5411 64.8366 27.7985 65.7548 27.3394C66.7 26.8803 68.1178 26.6507 70.0083 26.6507C71.7096 26.6507 73.0194 26.8533 73.9376 27.2583C74.8558 27.6364 75.4905 28.2306 75.8415 29.0407C76.2196 29.8509 76.4087 30.9311 76.4087 32.2814V46.6621H70.4944V33.0916C70.4944 32.2274 70.4403 31.6198 70.3323 31.2687C70.2243 30.8906 69.9812 30.6341 69.6032 30.4991C69.2521 30.364 68.631 30.2965 67.7398 30.2965C66.6325 30.2965 65.8358 30.364 65.3497 30.4991C64.8906 30.6341 64.5801 30.8906 64.418 31.2687C64.283 31.6198 64.2155 32.2274 64.2155 33.0916V46.6621H58.3012V33.0916C58.3012 32.2274 58.2472 31.6198 58.1391 31.2687C58.0311 30.8906 57.7881 30.6341 57.41 30.4991C57.0589 30.364 56.4378 30.2965 55.5466 30.2965C54.4393 30.2965 53.6427 30.364 53.1565 30.4991C52.6974 30.6341 52.3869 30.8906 52.2248 31.2687C52.0898 31.6198 52.0223 32.2274 52.0223 33.0916V46.6621H46.108V27.0558Z" fill="#F1346D"/>
<path d="M14.4617 78.0672C13.2734 78.0672 12.2067 78.0132 11.2615 77.9052C10.3433 77.7971 9.33055 77.5946 8.22331 77.2975C6.98104 76.9735 5.95481 76.5549 5.14463 76.0418C4.33445 75.5016 3.6593 74.759 3.11919 73.8138C2.55206 72.8686 2.2685 71.7478 2.2685 70.4515V58.9065C2.2685 53.6133 6.33289 50.9667 14.4617 50.9667C16.5411 50.9667 19.3227 51.2638 22.8065 51.8579V56.5975C19.6738 55.8413 16.9192 55.4632 14.5427 55.4632C13.5435 55.4632 12.7603 55.4902 12.1932 55.5442C11.6531 55.5983 11.0859 55.7333 10.4918 55.9493C9.22253 56.3814 8.58789 57.3401 8.58789 58.8255V70.0059C8.58789 72.3824 10.7619 73.5707 15.1098 73.5707C16.9732 73.5707 19.5928 73.1791 22.9686 72.396V77.176C20.0789 77.7701 17.2433 78.0672 14.4617 78.0672ZM32.3131 78.0672C30.4767 78.0672 29.0994 77.9052 28.1812 77.5811C27.29 77.23 26.6554 76.6224 26.2773 75.7582C25.9262 74.867 25.7507 73.5437 25.7507 71.7883C25.7507 70.222 25.9397 68.9932 26.3178 68.102C26.7229 67.2108 27.3575 66.5762 28.2217 66.1981C29.1129 65.793 30.3282 65.5905 31.8675 65.5905H38.511V64.2537C38.511 63.4165 38.3895 62.7953 38.1464 62.3903C37.9304 61.9852 37.5118 61.7016 36.8906 61.5396C36.2965 61.3775 35.3918 61.2965 34.1765 61.2965C32.5022 61.2965 30.2067 61.4585 27.29 61.7826V58.0558C29.4235 57.7857 31.9215 57.6507 34.7842 57.6507C37.2957 57.6507 39.2267 57.8397 40.5769 58.2178C41.9543 58.5959 42.94 59.2441 43.5341 60.1623C44.1282 61.0805 44.4253 62.4173 44.4253 64.1726V77.6621H38.6325V75.8797C38.1734 76.6629 37.5523 77.2165 36.7691 77.5406C35.9859 77.8917 34.5006 78.0672 32.3131 78.0672ZM34.6221 74.3809C35.8104 74.3809 36.6611 74.3404 37.1742 74.2594C37.5523 74.2053 37.8088 74.1243 37.9439 74.0163C38.1059 73.9083 38.2409 73.7327 38.349 73.4897C38.457 73.3007 38.511 73.0171 38.511 72.639V68.8312H34.4601C33.5419 68.8312 32.8938 68.8987 32.5157 69.0337C32.1376 69.1417 31.881 69.3848 31.746 69.7629C31.611 70.1139 31.5435 70.7486 31.5435 71.6668C31.5435 72.558 31.611 73.1791 31.746 73.5302C31.881 73.8813 32.1376 74.1108 32.5157 74.2189C32.9208 74.3269 33.6229 74.3809 34.6221 74.3809ZM56.9609 78.0672C54.8544 78.0672 52.2754 77.8647 49.2237 77.4596V73.5302C52.9775 74.0973 55.5836 74.3809 57.0419 74.3809C58.2842 74.3809 59.2024 74.2594 59.7965 74.0163C60.3907 73.7733 60.6877 73.3277 60.6877 72.6795V71.4642C60.6877 70.7891 60.4987 70.3165 60.1206 70.0464C59.7425 69.7494 58.9999 69.6008 57.8926 69.6008H55.3405C53.2611 69.6008 51.6542 69.1957 50.52 68.3856C49.3857 67.5484 48.8186 66.3331 48.8186 64.7398V62.3497C48.8186 60.6484 49.6288 59.4466 51.2491 58.7444C52.8695 58.0153 55.3135 57.6507 58.5813 57.6507C59.8775 57.6507 62.2001 57.7722 65.5488 58.0153V61.7826C61.3359 61.4585 58.9593 61.2965 58.4192 61.2965C56.8259 61.2965 55.7861 61.4045 55.3 61.6206C54.8679 61.8636 54.6519 62.3092 54.6519 62.9574V64.0106C54.6519 64.3617 54.8274 64.6723 55.1785 64.9423C55.5296 65.1854 56.0427 65.3069 56.7178 65.3069H59.3104C64.1175 65.3069 66.521 66.8732 66.521 70.0059V72.477C66.521 73.4222 66.3455 74.2459 65.9944 74.948C65.6433 75.6502 65.1842 76.2038 64.6171 76.6089C64.077 76.987 63.3748 77.284 62.5106 77.5001C61.6734 77.7161 60.7957 77.8647 59.8775 77.9457C59.0404 78.0267 58.0681 78.0672 56.9609 78.0672ZM80.7149 78.0672C79.7157 78.0672 78.8785 78.0267 78.2034 77.9457C77.5282 77.8647 76.8531 77.7026 76.1779 77.4596C75.4218 77.2165 74.8006 76.8789 74.3145 76.4468C73.8554 76.0147 73.4774 75.4206 73.1803 74.6645C72.8562 73.8813 72.6942 72.9766 72.6942 71.9504V61.7016H68.7243V58.0558H72.6942V52.3846H78.6085V58.0558H83.9962V61.7016H78.6085V70.9376C78.6085 71.8828 78.6895 72.5985 78.8515 73.0846C79.0136 73.5437 79.3241 73.8813 79.7832 74.0973C80.2423 74.2864 80.9445 74.3809 81.8897 74.3809C82.2678 74.3809 82.9699 74.3134 83.9962 74.1783V77.8647C82.7269 77.9997 81.6331 78.0672 80.7149 78.0672ZM97.2518 78.0672C90.3112 78.0672 86.841 75.9472 86.841 71.7073V64.6587C86.841 62.2012 87.6241 60.4188 89.1905 59.3116C90.7838 58.2043 93.2279 57.6507 96.5226 57.6507C99.6283 57.6507 101.897 58.1908 103.328 59.2711C104.786 60.3243 105.516 62.1202 105.516 64.6587V69.4388H92.7958V71.2212C92.7958 72.3554 93.2009 73.1656 94.011 73.6517C94.8212 74.1378 96.2795 74.3809 98.386 74.3809C100.33 74.3809 102.518 74.0973 104.948 73.5302V77.2975C102.545 77.8106 99.9794 78.0672 97.2518 78.0672ZM99.8848 66.0766V63.2409C99.8848 62.5928 99.6148 62.1067 99.0747 61.7826C98.5615 61.4585 97.6839 61.2965 96.4416 61.2965C95.0103 61.2965 94.0516 61.4585 93.5654 61.7826C93.0523 62.1337 92.7958 62.6198 92.7958 63.2409V66.0766H99.8848ZM110.036 58.0558H115.667V61.4991C115.667 60.8779 115.923 60.2703 116.437 59.6762C116.95 59.082 117.598 58.5959 118.381 58.2178C119.191 57.8397 119.988 57.6507 120.771 57.6507H122.877V62.5523H120.852C119.178 62.5523 117.935 62.8088 117.125 63.322C116.342 63.8351 115.95 64.6858 115.95 65.874V77.6621H110.036V58.0558Z" fill="#0E1929"/>
<path d="M101.297 56.1162C113.419 56.1162 123.245 46.2899 123.245 34.1685C123.245 22.047 113.419 12.2207 101.297 12.2207C89.1759 12.2207 79.3495 22.047 79.3495 34.1685" stroke="#F1346D" stroke-width="1.4"/>
<defs>
<linearGradient id="paint0_linear_757_384" x1="70.7349" y1="44.7057" x2="106.69" y2="0.855249" gradientUnits="userSpaceOnUse">
<stop stop-color="#03E2CD"/>
<stop offset="1" stop-color="#6254FC"/>
</linearGradient>
<linearGradient id="paint1_linear_757_384" x1="86.822" y1="24.8629" x2="117.514" y2="26.0715" gradientUnits="userSpaceOnUse">
<stop stop-color="#03E2CD"/>
<stop offset="1" stop-color="#6254FC"/>
</linearGradient>
</defs>
</svg>
