<svg width="92" height="56" viewBox="0 0 92 56" fill="none" xmlns="http://www.w3.org/2000/svg">
<path d="M77.1647 43.6268C77.8165 42.9716 78.4317 42.2647 79.0047 41.507C85.8569 32.4449 84.0655 19.5438 75.0034 12.6915C65.9413 5.83929 53.0402 7.63071 46.188 16.6928C44.6658 18.7058 43.5702 20.9083 42.8861 23.1918" stroke="#03E2CD" stroke-width="0.864706"/>
<path d="M71.9509 42.6454C73.3575 41.6736 74.6355 40.4643 75.723 39.0261C81.2048 31.7764 79.7716 21.4556 72.522 15.9738C65.2723 10.492 54.9514 11.9251 49.4696 19.1747C48.321 20.6937 47.476 22.3476 46.9245 24.0635" stroke="url(#paint0_linear_757_394)" stroke-width="0.864706"/>
<circle cx="62.5395" cy="29.2792" r="8.91414" transform="rotate(-52.9054 62.5395 29.2792)" fill="url(#paint1_linear_757_394)"/>
<path d="M0 24.4757H3.87813L6.53027 32.8574L9.08234 24.4757H12.7603L8.30671 36.5854H4.60372L0 24.4757ZM17.7835 36.8357C16.6493 36.8357 15.7986 36.7356 15.2314 36.5354C14.681 36.3186 14.289 35.9433 14.0555 35.4095C13.8387 34.8591 13.7302 34.0417 13.7302 32.9575C13.7302 31.9901 13.847 31.2311 14.0805 30.6807C14.3307 30.1302 14.7227 29.7383 15.2565 29.5047C15.8069 29.2545 16.5575 29.1294 17.5083 29.1294H21.6116V28.3038C21.6116 27.7867 21.5365 27.403 21.3864 27.1528C21.253 26.9026 20.9944 26.7275 20.6108 26.6274C20.2438 26.5273 19.685 26.4773 18.9344 26.4773C17.9003 26.4773 16.4825 26.5774 14.681 26.7775V24.4757C15.9987 24.3089 17.5416 24.2255 19.3097 24.2255C20.861 24.2255 22.0536 24.3422 22.8876 24.5757C23.7383 24.8093 24.3471 25.2096 24.7141 25.7767C25.0811 26.3438 25.2645 27.1695 25.2645 28.2537V36.5854H21.6867V35.4846C21.4031 35.9683 21.0195 36.3102 20.5357 36.5104C20.052 36.7272 19.1346 36.8357 17.7835 36.8357ZM19.2097 34.5588C19.9436 34.5588 20.469 34.5338 20.7859 34.4838C21.0195 34.4504 21.1779 34.4004 21.2613 34.3336C21.3614 34.2669 21.4448 34.1585 21.5115 34.0084C21.5782 33.8916 21.6116 33.7165 21.6116 33.4829V31.131H19.1096C18.5425 31.131 18.1421 31.1727 17.9086 31.2561C17.6751 31.3229 17.5166 31.473 17.4332 31.7065C17.3498 31.9234 17.3081 32.3153 17.3081 32.8825C17.3081 33.4329 17.3498 33.8165 17.4332 34.0334C17.5166 34.2502 17.6751 34.392 17.9086 34.4587C18.1588 34.5255 18.5925 34.5588 19.2097 34.5588ZM28.4785 24.4757H32.1314V25.9519C32.3649 24.8009 33.5576 24.2255 35.7093 24.2255C36.8436 24.2255 37.7026 24.3756 38.2864 24.6758C38.8702 24.9594 39.2622 25.4098 39.4623 26.0269C39.6625 25.3931 40.0461 24.9344 40.6133 24.6508C41.1971 24.3672 42.0728 24.2255 43.2404 24.2255C44.2912 24.2255 45.1002 24.3506 45.6674 24.6008C46.2345 24.8343 46.6265 25.2013 46.8433 25.7017C47.0768 26.2021 47.1936 26.8693 47.1936 27.7033V36.5854H43.5406V28.2037C43.5406 27.6699 43.5073 27.2946 43.4406 27.0778C43.3738 26.8442 43.2237 26.6858 42.9902 26.6024C42.7734 26.519 42.3897 26.4773 41.8393 26.4773C41.1554 26.4773 40.6633 26.519 40.3631 26.6024C40.0795 26.6858 39.8877 26.8442 39.7876 27.0778C39.7042 27.2946 39.6625 27.6699 39.6625 28.2037V36.5854H36.0096V28.2037C36.0096 27.6699 35.9762 27.2946 35.9095 27.0778C35.8428 26.8442 35.6926 26.6858 35.4591 26.6024C35.2423 26.519 34.8586 26.4773 34.3082 26.4773C33.6243 26.4773 33.1322 26.519 32.832 26.6024C32.5484 26.6858 32.3566 26.8442 32.2565 27.0778C32.1731 27.2946 32.1314 27.6699 32.1314 28.2037V36.5854H28.4785V24.4757ZM8.93221 55.8357C8.19829 55.8357 7.53942 55.8023 6.95562 55.7356C6.38849 55.6688 5.76299 55.5437 5.0791 55.3603C4.31182 55.1601 3.67797 54.9016 3.17757 54.5846C2.67716 54.251 2.26016 53.7923 1.92656 53.2085C1.57627 52.6247 1.40113 51.9325 1.40113 51.1319V44.0011C1.40113 40.7318 3.91149 39.0971 8.93221 39.0971C10.2166 39.0971 11.9346 39.2806 14.0864 39.6476V42.5749C12.1515 42.1079 10.4501 41.8744 8.98226 41.8744C8.36509 41.8744 7.88137 41.8911 7.53108 41.9244C7.19748 41.9578 6.8472 42.0412 6.48023 42.1746C5.69627 42.4415 5.30428 43.0336 5.30428 43.9511V50.8566C5.30428 52.3245 6.64704 53.0584 9.33254 53.0584C10.4835 53.0584 12.1014 52.8165 14.1865 52.3328V55.2852C12.4017 55.6522 10.6503 55.8357 8.93221 55.8357ZM19.9581 55.8357C18.8239 55.8357 17.9732 55.7356 17.4061 55.5354C16.8556 55.3186 16.4636 54.9433 16.2301 54.4095C16.0133 53.8591 15.9048 53.0417 15.9048 51.9575C15.9048 50.9901 16.0216 50.2311 16.2551 49.6807C16.5053 49.1302 16.8973 48.7383 17.4311 48.5047C17.9815 48.2545 18.7321 48.1294 19.6829 48.1294H23.7862V47.3038C23.7862 46.7867 23.7111 46.403 23.561 46.1528C23.4276 45.9026 23.169 45.7275 22.7854 45.6274C22.4184 45.5273 21.8596 45.4773 21.109 45.4773C20.0749 45.4773 18.6571 45.5774 16.8556 45.7775V43.4757C18.1733 43.3089 19.7163 43.2255 21.4843 43.2255C23.0356 43.2255 24.2282 43.3422 25.0622 43.5757C25.9129 43.8093 26.5217 44.2096 26.8887 44.7767C27.2557 45.3438 27.4392 46.1695 27.4392 47.2537V55.5854H23.8613V54.4846C23.5777 54.9683 23.1941 55.3102 22.7103 55.5104C22.2266 55.7272 21.3092 55.8357 19.9581 55.8357ZM21.3843 53.5588C22.1182 53.5588 22.6436 53.5338 22.9605 53.4838C23.1941 53.4504 23.3525 53.4004 23.4359 53.3336C23.536 53.2669 23.6194 53.1585 23.6861 53.0084C23.7528 52.8916 23.7862 52.7165 23.7862 52.4829V50.131H21.2842C20.7171 50.131 20.3167 50.1727 20.0832 50.2561C19.8497 50.3229 19.6912 50.473 19.6078 50.7065C19.5244 50.9234 19.4827 51.3153 19.4827 51.8825C19.4827 52.4329 19.5244 52.8165 19.6078 53.0334C19.6912 53.2502 19.8497 53.392 20.0832 53.4587C20.3334 53.5255 20.7671 53.5588 21.3843 53.5588ZM35.1817 55.8357C33.8807 55.8357 32.2877 55.7106 30.4029 55.4603V53.0334C32.7214 53.3837 34.331 53.5588 35.2318 53.5588C35.9991 53.5588 36.5662 53.4838 36.9332 53.3336C37.3001 53.1835 37.4836 52.9083 37.4836 52.508V51.7574C37.4836 51.3404 37.3668 51.0485 37.1333 50.8816C36.8998 50.6982 36.4411 50.6064 35.7572 50.6064H34.1809C32.8966 50.6064 31.9041 50.3562 31.2035 49.8558C30.503 49.3387 30.1527 48.5881 30.1527 47.604V46.1278C30.1527 45.077 30.6531 44.3347 31.6539 43.901C32.6547 43.4506 34.1642 43.2255 36.1825 43.2255C36.9832 43.2255 38.4177 43.3005 40.486 43.4506V45.7775C37.8839 45.5774 36.4161 45.4773 36.0825 45.4773C35.0983 45.4773 34.4561 45.544 34.1559 45.6774C33.889 45.8276 33.7556 46.1028 33.7556 46.5031V47.1536C33.7556 47.3705 33.864 47.5623 34.0808 47.7291C34.2977 47.8792 34.6146 47.9543 35.0316 47.9543H36.6329C39.602 47.9543 41.0865 48.9217 41.0865 50.8566V52.3829C41.0865 52.9667 40.9781 53.4754 40.7612 53.9091C40.5444 54.3428 40.2608 54.6847 39.9106 54.9349C39.577 55.1684 39.1433 55.3519 38.6095 55.4854C38.0924 55.6188 37.5503 55.7106 36.9832 55.7606C36.4661 55.8106 35.8656 55.8357 35.1817 55.8357ZM49.8534 55.8357C49.2362 55.8357 48.7191 55.8106 48.3021 55.7606C47.8851 55.7106 47.4681 55.6105 47.0511 55.4603C46.584 55.3102 46.2004 55.1017 45.9002 54.8348C45.6166 54.568 45.3831 54.201 45.1996 53.734C44.9994 53.2502 44.8993 52.6914 44.8993 52.0576V45.7275H42.4474V43.4757H44.8993V39.9728H48.5523V43.4757H51.88V45.7275H48.5523V51.4321C48.5523 52.0159 48.6023 52.4579 48.7024 52.7582C48.8025 53.0417 48.9943 53.2502 49.2779 53.3837C49.5614 53.5004 49.9951 53.5588 50.5789 53.5588C50.8125 53.5588 51.2461 53.5171 51.88 53.4337V55.7106C51.096 55.794 50.4205 55.8357 49.8534 55.8357ZM60.0673 55.8357C55.7805 55.8357 53.6371 54.5263 53.6371 51.9075V47.554C53.6371 46.0361 54.1208 44.9352 55.0882 44.2513C56.0724 43.5674 57.5819 43.2255 59.6169 43.2255C61.5351 43.2255 62.9363 43.5591 63.8203 44.2263C64.721 44.8768 65.1714 45.986 65.1714 47.554V50.5063H57.315V51.6072C57.315 52.3078 57.5652 52.8082 58.0657 53.1084C58.5661 53.4087 59.4668 53.5588 60.7678 53.5588C61.9688 53.5588 63.3199 53.3837 64.8211 53.0334V55.3603C63.3366 55.6772 61.752 55.8357 60.0673 55.8357ZM61.6936 48.4297V46.6783C61.6936 46.2779 61.5268 45.9777 61.1932 45.7775C60.8763 45.5774 60.3341 45.4773 59.5669 45.4773C58.6828 45.4773 58.0907 45.5774 57.7904 45.7775C57.4735 45.9944 57.315 46.2946 57.315 46.6783V48.4297H61.6936ZM67.9635 43.4757H71.4413V45.6024C71.4413 45.2187 71.5998 44.8434 71.9167 44.4765C72.2336 44.1095 72.6339 43.8093 73.1177 43.5757C73.6181 43.3422 74.1101 43.2255 74.5938 43.2255H75.8949V46.2529H74.6439C73.6097 46.2529 72.8424 46.4114 72.342 46.7283C71.8583 47.0452 71.6164 47.5706 71.6164 48.3046V55.5854H67.9635V43.4757Z" fill="white"/>
<path d="M62.566 42.4835C70.0527 42.4835 76.1219 36.4143 76.1219 28.9275C76.1219 21.4408 70.0527 15.3716 62.566 15.3716C55.0792 15.3716 49.01 21.4408 49.01 28.9275" stroke="#F1346D" stroke-width="0.864706"/>
<defs>
<linearGradient id="paint0_linear_757_394" x1="43.6892" y1="35.4358" x2="65.8964" y2="8.3517" gradientUnits="userSpaceOnUse">
<stop stop-color="#03E2CD"/>
<stop offset="1" stop-color="#6254FC"/>
</linearGradient>
<linearGradient id="paint1_linear_757_394" x1="53.6253" y1="23.18" x2="72.5822" y2="23.9265" gradientUnits="userSpaceOnUse">
<stop stop-color="#03E2CD"/>
<stop offset="1" stop-color="#6254FC"/>
</linearGradient>
</defs>
</svg>
