<svg width="44" height="34" viewBox="0 0 44 34" fill="none" xmlns="http://www.w3.org/2000/svg">
<path fill-rule="evenodd" clip-rule="evenodd" d="M21.7732 21.0379L21.999 21.0379L22.5042 21.0397C26.3654 21.0651 35.1892 21.4551 35.1892 27.4359C35.1892 33.3774 26.673 33.7648 22.5644 33.7901L21.0422 33.7901C17.1808 33.7647 8.3552 33.3751 8.3552 27.4019C8.3552 21.4529 17.1808 21.0649 21.0422 21.0396L21.5474 21.0379C21.6257 21.0379 21.7011 21.0379 21.7732 21.0379ZM21.7732 24.0379C17.0212 24.0379 11.3552 24.6219 11.3552 27.4019C11.3552 30.119 16.683 30.7542 21.3389 30.7902L21.7732 30.7919C26.5252 30.7919 32.1892 30.2099 32.1892 27.4359C32.1892 24.6279 26.5252 24.0379 21.7732 24.0379ZM37.6804 20.2263C42.5264 20.9523 43.5444 23.2283 43.5444 25.0103C43.5444 26.0983 43.1164 28.0843 40.2564 29.1743C40.0804 29.2403 39.9004 29.2723 39.7224 29.2723C39.1184 29.2723 38.5484 28.9043 38.3204 28.3063C38.0244 27.5323 38.4144 26.6643 39.1884 26.3703C40.5444 25.8543 40.5444 25.2843 40.5444 25.0103C40.5444 24.1343 39.4304 23.5223 37.2344 23.1943C36.4164 23.0703 35.8504 22.3083 35.9724 21.4863C36.0944 20.6663 36.8544 20.1203 37.6804 20.2263ZM7.572 21.4863C7.694 22.3083 7.128 23.0703 6.31 23.1943C4.114 23.5223 3 24.1343 3 25.0103C3 25.2843 3 25.8523 4.358 26.3703C5.132 26.6643 5.522 27.5323 5.226 28.3063C4.998 28.9043 4.428 29.2723 3.824 29.2723C3.646 29.2723 3.466 29.2403 3.29 29.1743C0.428 28.0823 0 26.0963 0 25.0103C0 23.2303 1.018 20.9523 5.866 20.2263C6.692 20.1223 7.448 20.6663 7.572 21.4863ZM21.7732 0.209881C26.8132 0.209881 30.9112 4.30988 30.9112 9.34788C30.9112 14.3859 26.8132 18.4859 21.7732 18.4859H21.7192C19.2792 18.4779 16.9932 17.5219 15.2812 15.7939C13.5652 14.0679 12.6272 11.7759 12.6371 9.34188C12.6371 4.30988 16.7352 0.209881 21.7732 0.209881ZM21.7732 3.20988C18.3892 3.20988 15.6372 5.96388 15.6372 9.34788C15.6312 10.9879 16.2592 12.5219 17.4092 13.6799C18.5592 14.8379 20.0912 15.4799 21.7232 15.4859L21.7732 16.9859V15.4859C25.1572 15.4859 27.9112 12.7339 27.9112 9.34788C27.9112 5.96388 25.1572 3.20988 21.7732 3.20988ZM34.1512 2.16888C37.6672 2.74688 40.2212 5.75488 40.2212 9.32088C40.2132 12.9109 37.5312 15.9909 33.9812 16.4889C33.9112 16.4989 33.8412 16.5029 33.7732 16.5029C33.0372 16.5029 32.3952 15.9609 32.2892 15.2109C32.1752 14.3889 32.7452 13.6309 33.5672 13.5169C35.6472 13.2249 37.2172 11.4209 37.2212 9.31688C37.2212 7.23088 35.7252 5.46688 33.6632 5.12888C32.8472 4.99488 32.2932 4.22288 32.4272 3.40488C32.5632 2.58688 33.3292 2.03888 34.1512 2.16888ZM11.1192 3.40488C11.2532 4.22288 10.6992 4.99488 9.8832 5.12888C7.8212 5.46688 6.3252 7.23088 6.3252 9.32088C6.3292 11.4209 7.8992 13.2269 9.9772 13.5169C10.7992 13.6309 11.3692 14.3889 11.2552 15.2109C11.1492 15.9609 10.5072 16.5029 9.7712 16.5029C9.7032 16.5029 9.6332 16.4989 9.5632 16.4889C6.0132 15.9909 3.3332 12.9109 3.3252 9.32488C3.3252 5.75488 5.8792 2.74688 9.3952 2.16888C10.2372 2.03688 10.9832 2.59088 11.1192 3.40488Z" fill="black"/>
</svg>
