<svg width="41" height="48" viewBox="0 0 41 48" fill="none" xmlns="http://www.w3.org/2000/svg">
<path fill-rule="evenodd" clip-rule="evenodd" d="M29.3458 0.72171C29.7666 3.55157 28.6063 6.3191 27.0791 8.27972C25.4432 10.38 22.6242 12.0075 19.8986 11.9242C19.403 9.21548 20.6796 6.42962 22.2262 4.55146C23.9294 2.48229 26.8492 0.894211 29.3458 0.72171ZM37.5484 40.5237C38.9562 38.3821 39.4806 37.3005 40.5737 34.8762C32.6302 31.8739 31.3519 20.6513 39.2129 16.3438C36.8121 13.3566 33.4447 11.6241 30.2673 11.6241C27.9728 11.6241 26.4013 12.2185 24.9731 12.7587C23.7836 13.2086 22.6935 13.6209 21.3678 13.6209C19.9366 13.6209 18.6685 13.1689 17.34 12.6954C15.8785 12.1744 14.3438 11.6274 12.4383 11.6274C8.86543 11.6274 5.06614 13.7966 2.6587 17.5024C-0.728207 22.7187 -0.153455 32.5322 5.33965 40.8947C7.30532 43.8844 9.92962 47.2469 13.3611 47.278C14.7815 47.2909 15.7276 46.8692 16.7514 46.4128C17.9252 45.8896 19.2011 45.3208 21.411 45.3091C23.6332 45.2978 24.8881 45.8724 26.0462 46.4026C27.0447 46.8597 27.9712 47.2839 29.3835 47.271C32.815 47.2374 35.5844 43.5159 37.5484 40.5237Z" fill="black"/>
</svg>
