<svg width="52" height="47" viewBox="0 0 52 47" fill="none" xmlns="http://www.w3.org/2000/svg">
<path d="M49.513 24.5053H50.2578C50.8023 24.5053 51.2439 24.0552 51.2439 23.5C51.2439 22.9448 50.8023 22.4947 50.2578 22.4947H49.513L51.0633 20.2568C51.2758 19.95 51.3029 19.548 51.1334 19.2146C50.964 18.8811 50.6262 18.6717 50.2578 18.6717H44.3861C43.3512 13.8744 40.7687 9.51046 37.0535 6.3102C33.0783 2.88587 28.0258 1 22.8271 1C10.657 1 0.756104 11.0934 0.756104 23.5C0.756104 35.9066 10.657 46 22.8271 46C28.0258 46 33.0782 44.1141 37.0535 40.6898C40.7688 37.4895 43.3512 33.1255 44.3861 28.3283H50.2578C50.6262 28.3283 50.964 28.1189 51.1334 27.7854C51.3029 27.452 51.2758 27.05 51.0633 26.7432L49.513 24.5053ZM47.0987 22.4947H42.3466L44.336 20.6821H48.3543L47.0987 22.4947ZM22.8271 43.9895C11.7446 43.9895 2.72828 34.798 2.72828 23.5C2.72828 12.202 11.7446 3.01053 22.8271 3.01053C32.4788 3.01053 40.7378 9.97298 42.5611 19.6027L39.3871 22.4947H39.0246C38.5132 13.8392 31.4436 6.95709 22.8271 6.95709C13.8792 6.95709 6.59957 14.3782 6.59957 23.5C6.59957 32.6218 13.8792 40.0429 22.8271 40.0429C31.4437 40.0429 38.5132 33.1608 39.0246 24.5053H39.3871L42.561 27.3972C40.7376 37.0272 32.4786 43.9895 22.8271 43.9895ZM33.1644 22.4947C32.6662 17.1274 28.2202 12.9142 22.827 12.9142C17.1013 12.9142 12.443 17.6629 12.443 23.5C12.443 29.3371 17.1012 34.0858 22.827 34.0858C28.2201 34.0858 32.6662 29.8726 33.1644 24.5053H37.0484C36.5402 32.0514 30.356 38.0324 22.8271 38.0324C14.9666 38.0324 8.57175 31.5132 8.57175 23.5C8.57175 15.4868 14.9667 8.96762 22.8271 8.96762C30.356 8.96762 36.5402 14.9486 37.0484 22.4947H33.1644ZM22.5175 24.5053H31.1812C30.6915 28.7617 27.1317 32.0753 22.827 32.0753C18.1887 32.0753 14.4152 28.2285 14.4152 23.5C14.4152 18.7715 18.1887 14.9247 22.827 14.9247C27.1317 14.9247 30.6915 18.2383 31.1812 22.4947H22.5175C21.973 22.4947 21.5314 22.9448 21.5314 23.5C21.5314 24.0552 21.9729 24.5053 22.5175 24.5053ZM44.3359 26.3179L42.3465 24.5053H47.0986L48.3542 26.3179H44.3359Z" fill="url(#paint0_linear_431_768)" stroke="url(#paint1_linear_431_768)" stroke-width="0.6"/>
<defs>
<linearGradient id="paint0_linear_431_768" x1="0.756104" y1="8.10525" x2="54.4185" y2="10.476" gradientUnits="userSpaceOnUse">
<stop stop-color="#03E2CD"/>
<stop offset="1" stop-color="#6254FC"/>
</linearGradient>
<linearGradient id="paint1_linear_431_768" x1="0.756104" y1="8.10525" x2="54.4185" y2="10.476" gradientUnits="userSpaceOnUse">
<stop stop-color="#03E2CD"/>
<stop offset="1" stop-color="#6254FC"/>
</linearGradient>
</defs>
</svg>
