<svg width="30" height="48" viewBox="0 0 30 48" fill="none" xmlns="http://www.w3.org/2000/svg">
<path d="M28.2077 15.7771H27.0676C26.6087 10.0592 21.8089 5.54691 15.9748 5.54691H15.8984V1.89844C15.8984 1.40232 15.4961 1 15 1C14.5038 1 14.1015 1.40232 14.1015 1.89844V5.54682H14.0251C8.19104 5.54682 3.39122 10.0592 2.9323 15.777H1.79218C1.29606 15.777 0.893738 16.1793 0.893738 16.6754V20.4799C0.893738 20.976 1.29606 21.3783 1.79218 21.3783H2.53573L4.31589 46.166C4.34967 46.6359 4.74077 47 5.21209 47H24.7879C25.2591 47 25.6503 46.6359 25.6841 46.166L27.4643 21.3783H28.2078C28.7039 21.3783 29.1063 20.976 29.1063 20.4799V16.6754C29.1062 16.1793 28.7038 15.7771 28.2077 15.7771ZM15.9748 7.3437C20.8173 7.3437 24.8103 11.0515 25.2638 15.777H15.8984V7.3437H15.9748ZM14.0251 7.3437H14.1015V15.777H4.73618C5.18971 11.0515 9.18256 7.3437 14.0251 7.3437ZM2.69062 17.574H27.3093V19.5815H2.69062V17.574ZM23.9516 45.2032H6.04826L4.77014 27.4054H25.2298L23.9516 45.2032ZM25.3588 25.6085H4.64113L4.33737 21.3783H25.6626L25.3588 25.6085Z" fill="url(#paint0_linear_431_758)" stroke="url(#paint1_linear_431_758)" stroke-width="0.6"/>
<path d="M15 30.7783C12.2248 30.7783 9.96712 33.0332 9.96712 35.8048C9.96712 38.5764 12.2248 40.8312 15 40.8312C17.7752 40.8312 20.0329 38.5763 20.0329 35.8048C20.0329 33.0332 17.7752 30.7783 15 30.7783ZM15 39.0344C13.2157 39.0344 11.764 37.5857 11.764 35.8049C11.764 34.0241 13.2157 32.5752 15 32.5752C16.7843 32.5752 18.236 34.024 18.236 35.8048C18.236 37.5856 16.7843 39.0344 15 39.0344Z" fill="url(#paint2_linear_431_758)" stroke="url(#paint3_linear_431_758)" stroke-width="0.6"/>
<defs>
<linearGradient id="paint0_linear_431_758" x1="0.893738" y1="8.26315" x2="30.9212" y2="8.98834" gradientUnits="userSpaceOnUse">
<stop stop-color="#03E2CD"/>
<stop offset="1" stop-color="#6254FC"/>
</linearGradient>
<linearGradient id="paint1_linear_431_758" x1="0.893738" y1="8.26315" x2="30.9212" y2="8.98834" gradientUnits="userSpaceOnUse">
<stop stop-color="#03E2CD"/>
<stop offset="1" stop-color="#6254FC"/>
</linearGradient>
<linearGradient id="paint2_linear_431_758" x1="9.96712" y1="32.3656" x2="20.67" y2="32.7876" gradientUnits="userSpaceOnUse">
<stop stop-color="#03E2CD"/>
<stop offset="1" stop-color="#6254FC"/>
</linearGradient>
<linearGradient id="paint3_linear_431_758" x1="9.96712" y1="32.3656" x2="20.67" y2="32.7876" gradientUnits="userSpaceOnUse">
<stop stop-color="#03E2CD"/>
<stop offset="1" stop-color="#6254FC"/>
</linearGradient>
</defs>
</svg>
