<svg width="52" height="45" viewBox="0 0 52 45" fill="none" xmlns="http://www.w3.org/2000/svg">
<path d="M50.7852 18.8131C51.3416 18.8131 51.7927 18.3689 51.7927 17.8211V13.538C51.7927 12.9902 51.3416 12.546 50.7852 12.546H36.3406C36.7832 11.5901 36.7525 10.4722 36.2488 9.53872L44.2171 1.6934C44.6105 1.30603 44.6105 0.677915 44.2171 0.29045C43.8238 -0.0968167 43.1857 -0.0968167 42.7923 0.29045L34.8239 8.13577C33.5201 7.45359 31.8618 7.65248 30.7646 8.73264C29.7192 9.76201 29.4865 11.2931 30.0666 12.5459H21.9334C22.5135 11.2931 22.2808 9.76192 21.2354 8.73264C20.1383 7.65248 18.48 7.45369 17.1762 8.13577L9.20785 0.29045C8.81431 -0.0967175 8.17644 -0.0968167 7.783 0.29045C7.38956 0.677816 7.38946 1.30593 7.783 1.6934L15.7513 9.53872C15.2476 10.4722 15.217 11.5901 15.6595 12.546H1.21483C0.658376 12.546 0.207306 12.9902 0.207306 13.538V17.8211C0.207306 18.3689 0.658376 18.8131 1.21483 18.8131H2.80542V38.7328H1.21483C0.658376 38.7328 0.207306 39.177 0.207306 39.7248V44.008C0.207306 44.5558 0.658376 45 1.21483 45H50.7852C51.3416 45 51.7927 44.5558 51.7927 44.008V39.7248C51.7927 39.177 51.3416 38.7328 50.7852 38.7328H49.1946V18.8131H50.7852ZM32.1895 12.1325C31.6304 11.5819 31.6304 10.6861 32.1895 10.1356C32.4691 9.86032 32.8364 9.72273 33.2035 9.72273C33.5708 9.72273 33.938 9.86032 34.2176 10.1356C34.7768 10.6861 34.7768 11.5819 34.2176 12.1324C33.9468 12.3991 33.5866 12.546 33.2036 12.546C32.8205 12.546 32.4604 12.3992 32.1895 12.1325ZM17.7824 12.1325C17.2232 11.5819 17.2232 10.6861 17.7824 10.1356C18.062 9.86032 18.4292 9.72273 18.7965 9.72273C19.1637 9.72273 19.531 9.86032 19.8105 10.1356C20.3696 10.6861 20.3696 11.5819 19.8105 12.1324C19.5396 12.3991 19.1794 12.546 18.7964 12.546C18.4134 12.546 18.0532 12.3992 17.7824 12.1325ZM2.22236 14.5299H49.7776V16.8291H2.22236V14.5299ZM36.7748 38.7327V18.8131H40.0646V38.7328H36.7748V38.7327ZM24.3551 38.7327V18.8131H27.6449V38.7328H24.3551V38.7327ZM11.9353 38.7327V18.8131H15.2251V38.7328H11.9353V38.7327ZM17.2403 18.8131H22.3401V38.7328H17.2403V18.8131ZM29.6599 18.8131H34.7597V38.7328H29.6599V18.8131ZM4.82047 18.8131H9.92027V38.7328H4.82047V18.8131ZM49.7776 43.016H2.22236V40.7167H49.7776V43.016ZM47.1795 38.7327H42.0797V18.8131H47.1795V38.7327Z" fill="url(#paint0_linear_431_761)"/>
<defs>
<linearGradient id="paint0_linear_431_761" x1="0.207307" y1="7.10525" x2="55.0316" y2="9.58003" gradientUnits="userSpaceOnUse">
<stop stop-color="#03E2CD"/>
<stop offset="1" stop-color="#6254FC"/>
</linearGradient>
</defs>
</svg>
