<svg width="50" height="47" viewBox="0 0 50 47" fill="none" xmlns="http://www.w3.org/2000/svg">
<path d="M48.6908 1.16099C48.4146 0.996279 48.061 0.955146 47.7423 1.05068C39.1785 3.61858 29.746 3.61858 21.1823 1.05068C20.8636 0.955146 20.51 0.996191 20.2338 1.16099C19.9576 1.32569 19.7933 1.59341 19.7933 1.87896V14.7512C13.902 15.2847 7.89192 14.7068 2.25775 13.0175C1.93918 12.9221 1.58543 12.9631 1.30922 13.1278C1.033 13.2925 0.868774 13.5602 0.868774 13.8458V33.6142C0.868878 40.4438 7.44929 46 15.5378 46C23.6263 46 30.2068 40.4437 30.2068 33.6142V32.8927C31.5793 33.2441 33.0049 33.4217 34.4623 33.4217C42.5508 33.4217 49.1313 27.8655 49.1313 21.0359V1.87896C49.1313 1.59349 48.967 1.32569 48.6908 1.16099ZM28.1253 33.6143C28.1253 39.4746 22.4787 44.2423 15.5378 44.2423C8.59702 44.2423 2.95036 39.4746 2.95036 33.6143V15.0673C8.74606 16.6124 14.874 17.0616 20.8628 16.4149C20.8983 16.414 20.9339 16.4117 20.9695 16.4078C23.3921 16.1396 25.793 15.6896 28.1253 15.0674V33.6143ZM47.0498 21.0359C47.0498 26.8962 41.403 31.6639 34.4623 31.6639C32.9958 31.6639 31.5675 31.4548 30.2068 31.0416V25.3659C30.2068 23.3848 32.1158 21.7731 34.4623 21.7731C36.8088 21.7731 38.7178 23.3848 38.7178 25.3659V25.3754C38.7178 25.8609 39.1837 26.2543 39.7585 26.2543C40.3333 26.2543 40.7993 25.8609 40.7993 25.3754V25.3659C40.7993 22.4156 37.9565 20.0153 34.4623 20.0153C32.8259 20.0153 31.3324 20.5417 30.2068 21.4045V11.051C30.2068 10.5656 29.7409 10.1721 29.1661 10.1721C28.5913 10.1721 28.1253 10.5656 28.1253 11.051V13.219C28.1238 13.2195 28.1221 13.2199 28.1205 13.2204C28.1172 13.2214 28.1138 13.2224 28.1104 13.2233C28.0784 13.2323 28.0463 13.2413 28.0143 13.2502C28.0133 13.2505 28.0124 13.2508 28.0115 13.251C26.0028 13.8121 23.95 14.2337 21.8748 14.5158V3.10047C30.0464 5.27892 38.8782 5.27892 47.0498 3.10047V21.0359Z" fill="url(#paint0_linear_431_762)" stroke="url(#paint1_linear_431_762)" stroke-width="0.6"/>
<path d="M39.7583 17.5337C40.3331 17.5337 40.7991 17.1402 40.7991 16.6548V11.0514C40.7991 10.566 40.3331 10.1725 39.7583 10.1725C39.1835 10.1725 38.7176 10.566 38.7176 11.0514V16.6548C38.7176 17.1402 39.1835 17.5337 39.7583 17.5337Z" fill="url(#paint2_linear_431_762)" stroke="url(#paint3_linear_431_762)" stroke-width="0.6"/>
<path d="M10.2419 30.112C10.8167 30.112 11.2827 29.7186 11.2827 29.2331V23.6298C11.2827 23.1443 10.8167 22.7509 10.2419 22.7509C9.66711 22.7509 9.20117 23.1443 9.20117 23.6298V29.2331C9.20117 29.7186 9.66711 30.112 10.2419 30.112Z" fill="url(#paint4_linear_431_762)" stroke="url(#paint5_linear_431_762)" stroke-width="0.6"/>
<path d="M20.8338 22.751C20.259 22.751 19.7931 23.1445 19.7931 23.6299V29.2333C19.7931 29.7187 20.259 30.1122 20.8338 30.1122C21.4086 30.1122 21.8746 29.7187 21.8746 29.2333V23.6299C21.8746 23.1445 21.4086 22.751 20.8338 22.751Z" fill="url(#paint6_linear_431_762)" stroke="url(#paint7_linear_431_762)" stroke-width="0.6"/>
<path d="M20.8344 32.5931C20.2596 32.5931 19.7936 32.9866 19.7936 33.472V33.4815C19.7936 35.4627 17.8846 37.0745 15.5382 37.0745C13.1917 37.0745 11.2827 35.4627 11.2827 33.4815V33.472C11.2827 32.9866 10.8167 32.5931 10.2419 32.5931C9.66711 32.5931 9.20117 32.9866 9.20117 33.472V33.4815C9.20117 36.4319 12.044 38.8323 15.5382 38.8323C19.0323 38.8323 21.8751 36.4319 21.8751 33.4815V33.472C21.8751 32.9866 21.4092 32.5931 20.8344 32.5931Z" fill="url(#paint8_linear_431_762)" stroke="url(#paint9_linear_431_762)" stroke-width="0.6"/>
<defs>
<linearGradient id="paint0_linear_431_762" x1="0.868775" y1="8.10525" x2="52.1745" y2="10.272" gradientUnits="userSpaceOnUse">
<stop stop-color="#03E2CD"/>
<stop offset="1" stop-color="#6254FC"/>
</linearGradient>
<linearGradient id="paint1_linear_431_762" x1="0.868775" y1="8.10525" x2="52.1745" y2="10.272" gradientUnits="userSpaceOnUse">
<stop stop-color="#03E2CD"/>
<stop offset="1" stop-color="#6254FC"/>
</linearGradient>
<linearGradient id="paint2_linear_431_762" x1="38.7176" y1="11.3348" x2="40.934" y2="11.3595" gradientUnits="userSpaceOnUse">
<stop stop-color="#03E2CD"/>
<stop offset="1" stop-color="#6254FC"/>
</linearGradient>
<linearGradient id="paint3_linear_431_762" x1="38.7176" y1="11.3348" x2="40.934" y2="11.3595" gradientUnits="userSpaceOnUse">
<stop stop-color="#03E2CD"/>
<stop offset="1" stop-color="#6254FC"/>
</linearGradient>
<linearGradient id="paint4_linear_431_762" x1="9.20117" y1="23.9131" x2="11.4176" y2="23.9378" gradientUnits="userSpaceOnUse">
<stop stop-color="#03E2CD"/>
<stop offset="1" stop-color="#6254FC"/>
</linearGradient>
<linearGradient id="paint5_linear_431_762" x1="9.20117" y1="23.9131" x2="11.4176" y2="23.9378" gradientUnits="userSpaceOnUse">
<stop stop-color="#03E2CD"/>
<stop offset="1" stop-color="#6254FC"/>
</linearGradient>
<linearGradient id="paint6_linear_431_762" x1="19.7931" y1="23.9133" x2="22.0095" y2="23.9379" gradientUnits="userSpaceOnUse">
<stop stop-color="#03E2CD"/>
<stop offset="1" stop-color="#6254FC"/>
</linearGradient>
<linearGradient id="paint7_linear_431_762" x1="19.7931" y1="23.9133" x2="22.0095" y2="23.9379" gradientUnits="userSpaceOnUse">
<stop stop-color="#03E2CD"/>
<stop offset="1" stop-color="#6254FC"/>
</linearGradient>
<linearGradient id="paint8_linear_431_762" x1="9.20117" y1="33.5783" x2="22.6125" y2="34.651" gradientUnits="userSpaceOnUse">
<stop stop-color="#03E2CD"/>
<stop offset="1" stop-color="#6254FC"/>
</linearGradient>
<linearGradient id="paint9_linear_431_762" x1="9.20117" y1="33.5783" x2="22.6125" y2="34.651" gradientUnits="userSpaceOnUse">
<stop stop-color="#03E2CD"/>
<stop offset="1" stop-color="#6254FC"/>
</linearGradient>
</defs>
</svg>
