<svg width="100" height="38" viewBox="0 0 100 38" fill="none" xmlns="http://www.w3.org/2000/svg">
<path d="M10.2853 16.1361C10.2582 16.8902 10.2447 17.8449 10.2447 19.0001C10.2447 20.1553 10.2582 21.118 10.2853 21.8882C10.3124 22.6423 10.3666 23.244 10.4479 23.6933C10.5428 24.1425 10.6715 24.4553 10.8341 24.6319C11.0103 24.8083 11.2407 24.8966 11.5253 24.8966C11.8098 24.8966 12.0334 24.8083 12.196 24.6319C12.3722 24.4553 12.501 24.1425 12.5823 23.6933C12.6771 23.244 12.7381 22.6423 12.7652 21.8882C12.7923 21.118 12.8059 20.1553 12.8059 19.0001C12.8059 17.8449 12.7923 16.8902 12.7652 16.1361C12.7381 15.3659 12.6771 14.7562 12.5823 14.307C12.501 13.8577 12.3722 13.5448 12.196 13.3683C12.0334 13.1918 11.8098 13.1035 11.5253 13.1035C11.2407 13.1035 11.0103 13.1918 10.8341 13.3683C10.6715 13.5448 10.5428 13.8577 10.4479 14.307C10.3666 14.7562 10.3124 15.3659 10.2853 16.1361Z" fill="#252525"/>
<path fill-rule="evenodd" clip-rule="evenodd" d="M11.1266 1.46044C5.59219 1.58248 1.1931 6.28866 1.2819 11.9923L1.39101 19.0002L1.2819 26.0081C1.1931 31.7117 5.59219 36.4179 11.1266 36.5399L17.9282 36.6899L24.7297 36.5399C30.2641 36.4179 34.6633 31.7117 34.5745 26.0081L34.4654 19.0002L34.5745 11.9923C34.6633 6.28866 30.2641 1.58248 24.7297 1.46044L17.9282 1.31055L11.1266 1.46044ZM18.1632 27.9238L15.5925 30.2181L13.2513 27.6164C13.0677 27.6479 12.884 27.6716 12.7005 27.6874C12.5321 27.7189 12.3408 27.7347 12.1266 27.7347H11.7135C10.6271 27.7347 9.70894 27.5849 8.95916 27.2853C8.20939 26.9857 7.60499 26.489 7.14596 25.7952C6.68693 25.0856 6.35791 24.1789 6.15899 23.0752C5.96007 21.9557 5.86061 20.6074 5.86061 19.0307C5.86061 17.4539 5.96007 16.1136 6.15899 15.0098C6.35791 13.8902 6.68693 12.9836 7.14596 12.2898C7.60499 11.5802 8.20939 11.0678 8.95916 10.7524C9.70894 10.4212 10.6271 10.2557 11.7135 10.2557C12.7999 10.2557 13.718 10.4212 14.4678 10.7524C15.2175 11.0678 15.822 11.5802 16.2811 12.2898C16.7401 12.9836 17.0691 13.8902 17.268 15.0098C17.4669 16.1136 17.5664 17.4539 17.5664 19.0307C17.5664 20.6547 17.4593 22.0266 17.245 23.1461C17.0308 24.2657 16.6789 25.1802 16.1892 25.8898L18.1632 27.9238ZM25.4084 16.6654V15.7194C25.4084 14.7575 25.3166 14.1031 25.133 13.7563C24.9494 13.4093 24.651 13.2358 24.2378 13.2358C23.9165 13.2358 23.6564 13.3226 23.4575 13.4961C23.2738 13.6695 23.1285 13.977 23.0214 14.4185C22.9296 14.86 22.8684 15.4592 22.8377 16.2161C22.8071 16.9571 22.7918 17.8954 22.7918 19.0307C22.7918 20.166 22.8071 21.112 22.8377 21.8689C22.8684 22.6101 22.9296 23.2013 23.0214 23.6429C23.1285 24.0843 23.2738 24.3918 23.4575 24.5653C23.6564 24.7387 23.9165 24.8255 24.2378 24.8255C24.4979 24.8255 24.7122 24.7624 24.8805 24.6362C25.0489 24.4943 25.1789 24.2657 25.2707 23.9503C25.3625 23.635 25.4237 23.2171 25.4543 22.6967C25.5002 22.1606 25.5232 21.4905 25.5232 20.6863H29.6546V21.9399C29.6546 23.1225 29.5016 24.0923 29.1956 24.8491C28.8895 25.606 28.4841 26.2052 27.9791 26.6466C27.4741 27.0724 26.8927 27.3562 26.2347 27.4981C25.5921 27.6558 24.9264 27.7347 24.2378 27.7347C23.0443 27.7347 22.065 27.5849 21.2999 27.2853C20.5349 26.9857 19.9381 26.489 19.5096 25.7952C19.0811 25.0856 18.7828 24.1789 18.6145 23.0752C18.4615 21.9557 18.3849 20.6074 18.3849 19.0307C18.3849 17.4223 18.4767 16.0584 18.6604 14.9389C18.8593 13.8193 19.1883 12.9126 19.6474 12.2189C20.1064 11.525 20.7108 11.0283 21.4606 10.7287C22.2103 10.4134 23.1361 10.2557 24.2378 10.2557C25.2019 10.2557 26.0205 10.3819 26.6938 10.6342C27.367 10.8865 27.9102 11.2491 28.3234 11.7221C28.7518 12.1794 29.0578 12.7392 29.2415 13.4015C29.4404 14.0479 29.5399 14.7812 29.5399 15.6011V16.6654H25.4084Z" fill="#252525"/>
<path fill-rule="evenodd" clip-rule="evenodd" d="M50.5229 13.6937L53.9483 17.4343L57.3738 13.6937H63.3252L56.9196 20.1061L63.3252 26.5185H57.3738L53.9483 22.7684L50.5229 26.5185H44.5624L50.9681 20.1061L44.5624 13.6937H50.5229ZM50.1926 20.1061L43.2256 13.1318H50.7506L53.9483 16.6237L57.1461 13.1318H64.4025V13.1223H76.7007C79.5129 13.0921 81.8932 15.5666 81.8548 18.5357C81.854 19.6037 81.5797 20.5881 81.0304 21.4643C80.617 22.1275 80.093 22.6732 79.4652 23.0881L82.0876 26.6311V24.3334C82.0876 22.5331 83.3662 21.3854 84.8368 20.6243C86.322 19.8559 88.196 19.3758 89.7565 18.9874L89.7588 18.9868L89.7765 18.9821C90.7385 18.7332 91.5575 18.5213 92.1407 18.2927C92.4358 18.1769 92.6294 18.072 92.74 17.9829C92.7539 17.9716 92.7654 17.9616 92.7754 17.9529C92.7416 17.9203 92.6724 17.8715 92.5364 17.8153C92.2191 17.6846 91.6774 17.5861 90.8568 17.5859C89.9801 17.5954 89.2348 17.6704 88.7262 17.8582C88.4757 17.9507 88.3243 18.0562 88.239 18.1551C88.1668 18.2401 88.1238 18.3409 88.1276 18.4991L88.1407 19.0744H82.2782V18.5126C82.2782 17.3591 82.4933 16.3948 82.9236 15.6046C83.3562 14.8109 83.9862 14.2313 84.7546 13.8157C86.2621 13.0001 88.3389 12.7979 90.6547 12.7979C93.0259 12.7979 94.9944 13.0858 96.3882 13.827C97.0935 14.2026 97.6667 14.7025 98.0609 15.3527C98.4558 16.0045 98.6494 16.7718 98.6494 17.6442C98.6494 19.2587 97.7236 20.2871 96.5887 20.9573C95.4869 21.6081 94.1 21.9777 92.9483 22.2734H98.4497V27.0614H82.4057L82.4126 27.0709H75.9861L73.6872 23.941H70.2335V27.0709H64.6522L64.6622 27.0804H57.1457L53.9483 23.5801L50.751 27.0804H43.2256L50.1926 20.1061ZM64.4025 26.8203V13.3919L57.695 20.1061L64.4025 26.8203ZM73.9508 23.3792L76.2497 26.509H81.3193L78.6569 22.9115C78.8237 22.8303 78.9827 22.7403 79.1356 22.642C79.718 22.2667 80.2021 21.7681 80.5832 21.1557C81.0742 20.3733 81.3193 19.4954 81.3193 18.5316C81.3561 15.8788 79.2209 13.6555 76.7038 13.6841H64.9372V26.509H69.6979V23.3792H73.9508ZM90.1461 22.8352C90.3128 22.6207 90.6148 22.4383 91.0159 22.2734C91.4884 22.0787 92.0969 21.9082 92.7808 21.7379C95.125 21.1367 98.1147 20.316 98.1147 17.6442C98.1147 14.5143 95.3524 13.3597 90.6547 13.3597C86.2375 13.3597 83.1049 14.1169 82.8329 17.9507C82.8199 18.1311 82.8129 18.3183 82.8129 18.5126H87.5929C87.5921 18.4914 87.5921 18.4705 87.5929 18.45C87.619 17.3101 89.1142 17.0427 90.8545 17.0239C92.5533 17.0239 93.3347 17.4247 93.3347 17.9687C93.3347 18.6401 91.8272 19.0303 89.934 19.5202L89.8825 19.5336C86.7384 20.316 82.6224 21.4039 82.6224 24.3334V26.4994H97.9141V22.8352H90.1461ZM92.8054 17.996C92.8054 17.996 92.8023 17.9925 92.8007 17.9842C92.8054 17.9916 92.8054 17.996 92.8054 17.996ZM76.0146 18.5316C76.0146 18.2313 75.7902 17.9962 75.5044 17.9962H70.2335V19.0576H75.5044C75.658 19.0576 75.7656 19.0085 75.8617 18.9073C75.9715 18.792 76.0146 18.6767 76.0146 18.5316ZM76.5493 18.5316C76.5493 17.9209 76.086 17.4343 75.5044 17.4343H69.6979V19.6194H75.5044C75.7948 19.6194 76.0407 19.5145 76.2405 19.3046C76.4494 19.0851 76.5493 18.8275 76.5493 18.5316Z" fill="#252525"/>
<path d="M45.003 35.7711H47.2834V32.4855L49.568 35.7711H50.7082L52.9929 32.4855V35.7711H55.2733V29.6123H52.4228L50.1381 32.6917L47.8578 29.6123H45.003V35.7711Z" fill="#252525"/>
<path d="M60.0774 29.4609C57.8756 29.4655 56.074 30.1345 56.0826 32.467V32.916C56.074 35.2439 57.8756 35.9175 60.0774 35.9221C62.2749 35.9175 64.0767 35.2439 64.0682 32.916V32.467C64.0682 30.1391 62.2795 29.4609 60.0774 29.4609ZM61.7877 32.7648C61.8008 33.773 61.0086 33.9563 60.0774 33.97C59.142 33.9563 58.3499 33.773 58.363 32.7648V32.6136C58.3499 31.61 59.142 31.4267 60.0774 31.413C61.0086 31.4267 61.8008 31.61 61.7877 32.6136V32.7648Z" fill="#252525"/>
<path d="M70.4563 32.7007C70.4563 33.3193 70.1213 33.828 69.5297 33.828H67.0317V31.5734H69.5297C70.1213 31.5734 70.4563 32.0775 70.4563 32.7007ZM64.7513 29.6214V35.78H69.9561C71.5619 35.803 72.7544 34.3733 72.7414 32.7007C72.7544 31.019 71.5619 29.5984 69.9561 29.6214H64.7513Z" fill="#252525"/>
<path d="M79.0903 32.7696C79.1033 33.7823 78.3119 33.9564 77.3799 33.9702C76.4448 33.9564 75.6573 33.7823 75.6657 32.7696V29.6123H73.3853V32.9208C73.3768 35.2487 75.187 35.9177 77.3799 35.9222C79.5736 35.9177 81.3838 35.2487 81.3753 32.9208V29.6123H79.0903V32.7696Z" fill="#252525"/>
<path d="M82.4019 29.6123V35.7711H89.2479V33.819H84.6824V29.6123H82.4019Z" fill="#252525"/>
<path d="M90.0262 35.7798H96.8723V34.1989H92.3067V33.4107H96.8723V31.9856H92.3067V31.1974H96.8723V29.6211H90.0262V35.7798Z" fill="#252525"/>
<path d="M46.316 6.14848V4.85058H49.6959C49.8596 4.85058 50.0022 4.91291 50.1183 5.04324C50.2398 5.168 50.2979 5.32097 50.2979 5.50232C50.2979 5.67809 50.2398 5.83106 50.1183 5.96147C50.0022 6.08614 49.8596 6.14848 49.6959 6.14848H46.316ZM43.5488 2.62321V10.2405H46.316V8.3815H50.3877C51.8506 8.40422 53.0916 7.07228 53.0705 5.50232C53.0916 3.92677 51.8506 2.60615 50.3877 2.62321H43.5488Z" fill="#252525"/>
<path d="M58.5786 2.4248C55.9064 2.43046 53.72 3.25797 53.7306 6.14282V6.69827C53.72 9.57746 55.9064 10.4105 58.5786 10.4162C61.2453 10.4105 63.432 9.57746 63.4212 6.69827V6.14282C63.4212 3.26363 61.2507 2.4248 58.5786 2.4248ZM60.6536 6.51118C60.6698 7.75806 59.7086 7.98477 58.5786 8.00183C57.4432 7.98477 56.482 7.75806 56.4979 6.51118V6.32417C56.482 5.08294 57.4432 4.85624 58.5786 4.83926C59.7086 4.85624 60.6698 5.08294 60.6536 6.32417V6.51118Z" fill="#252525"/>
<path d="M74.2105 7.44817L72.5678 2.625H69.4521L67.8048 7.44817L66.162 2.625H63.0464L66.162 10.2423H69.4521L71.0103 6.43365L72.5678 10.2423H75.8578L78.9743 2.625H75.8578L74.2105 7.44817Z" fill="#252525"/>
<path d="M79.1855 10.2423H87.4922V8.287H81.9524V7.3121H87.4922V5.54946H81.9524V4.57464H87.4922V2.625H79.1855V10.2423Z" fill="#252525"/>
<path d="M88.9659 2.61833V10.2357H91.7327V8.3767H94.2045L95.5407 10.2357H98.4873L96.9398 8.09898C97.4047 7.86661 97.7796 7.51523 98.0593 7.05616C98.3451 6.59143 98.4873 6.07002 98.4873 5.49751C98.5088 3.92189 97.2672 2.60135 95.805 2.61833H88.9659ZM95.1073 4.84577C95.4454 4.84577 95.7151 5.13482 95.7151 5.49751C95.7151 5.6732 95.6567 5.82625 95.5353 5.95659C95.4193 6.08134 95.2764 6.14368 95.1073 6.14368H91.7327V4.84577H95.1073Z" fill="#252525"/>
</svg>
