<svg width="88" height="42" viewBox="0 0 88 42" fill="none" xmlns="http://www.w3.org/2000/svg">
<path d="M4.53315 8.26951C3.96074 6.81474 4.20924 5.14203 4.73651 3.7352C5.29126 2.25485 6.25722 0.778558 7.70097 0C7.7726 1.56 7.29606 3.10126 6.77537 4.49106C6.30712 5.74111 5.73257 7.07288 4.78381 8.1067C4.63803 8.89003 4.5263 9.6712 4.44774 10.4488C4.76219 9.62732 5.27206 8.87858 5.90826 8.27653C6.72735 7.50131 7.94578 6.90313 9.08951 7.25687C8.75452 8.52116 7.99092 9.7331 7.08658 10.5833C6.37479 11.2525 5.43515 12.1099 4.32835 12.1436C4.28276 13.2879 4.30853 14.4217 4.40269 15.5402C4.55883 14.7217 4.89337 13.951 5.37676 13.377C6.0408 12.5884 7.0254 11.6248 8.28284 11.786C8.21418 13.0656 7.70377 14.3767 6.99296 15.3619C6.42812 16.1447 5.68247 17.1425 4.62406 17.4003C4.79354 18.4992 5.0296 19.58 5.3291 20.6375C5.33198 19.8278 5.51083 19.033 5.86565 18.3955C6.36569 17.4966 7.14451 16.3756 8.4034 16.2879C8.58792 17.5433 8.33789 18.9156 7.83351 20.0071C7.4304 20.8795 6.89295 21.9921 5.91331 22.4524C6.32469 23.5902 6.8115 24.6962 7.36967 25.7637C7.17371 24.8436 7.18154 23.874 7.41346 23.0016C7.73305 21.799 8.52638 20.5357 9.80004 20.1691C10.2503 21.4968 10.1882 22.9786 9.92663 24.3281C9.71138 25.4392 9.28845 26.7442 8.34042 27.466C8.96022 28.4662 9.64588 29.4262 10.3936 30.3395C9.99187 29.4437 9.7922 28.4641 9.89933 27.5671C10.0554 26.2605 10.4225 24.8627 11.7572 24.166C12.5144 25.4725 12.6898 26.9381 12.7542 28.3858C12.8062 29.5561 12.6376 30.9996 11.8248 31.9517C12.7188 32.8812 13.6836 33.7513 14.7139 34.5535C14.0487 33.7002 13.5829 32.6988 13.4842 31.7085C13.345 30.3093 13.4131 28.7691 14.6547 27.7423C15.7167 28.8514 16.3503 30.4848 16.6609 31.9036C16.9355 33.1579 17.2222 34.6426 16.5684 35.8771C17.8797 36.733 19.2796 37.4872 20.7597 38.1258C19.7182 37.3837 18.8657 36.3654 18.4595 35.3141C17.9273 33.9361 17.5981 32.294 18.6348 30.9138C20.0239 31.8036 21.0448 33.3216 21.8492 34.7061C22.5393 35.894 23.2537 37.5337 22.8993 38.9485C23.7188 39.2266 24.5594 39.4707 25.4201 39.6791L25.3689 39.8903C24.505 39.6812 23.6611 39.4362 22.8383 39.1574C22.2618 40.8609 20.3734 41.4237 18.8462 41.6722C16.6702 42.0262 14.0792 41.3402 12.2215 39.9585C13.202 38.5728 15.2025 38.4322 16.7109 38.3262L16.7306 38.3248C18.3831 38.2087 20.1704 38.3639 21.8322 38.7956C19.9125 38.0648 18.1161 37.146 16.4597 36.0658L16.4353 36.1043C15.5276 37.5761 13.7053 37.6335 12.2748 37.5404C10.3338 37.4141 8.09282 36.2339 6.79582 34.6024C8.01578 33.532 9.8177 33.8316 11.2139 34.0637L11.2207 34.0648C12.7789 34.3238 14.4817 34.889 15.9111 35.7591C15.775 35.6518 15.6417 35.5384 15.5122 35.4195C14.1225 34.4286 12.8406 33.3203 11.6773 32.1119C11.6638 32.1254 11.6501 32.1388 11.6363 32.1522C10.5052 33.29 8.85777 32.9921 7.57213 32.6218C5.85168 32.1262 4.06742 30.6312 3.21237 28.9148C4.53739 28.1724 6.12153 28.7842 7.35373 29.2681C8.70613 29.7993 10.137 30.6489 11.2372 31.732C11.1238 31.5889 11.0156 31.4395 10.9133 31.2848C9.89068 30.1306 8.97076 28.8947 8.16202 27.5908L8.12147 27.6162C6.84187 28.442 5.39208 27.844 4.24303 27.2559C2.6851 26.4586 1.43316 24.7063 0.892193 22.9831C2.27424 22.5404 3.63972 23.4093 4.70119 24.0974C5.86213 24.8499 7.0381 25.9232 7.84531 27.154C7.78603 27.0327 7.7308 26.9088 7.67989 26.7824C6.9043 25.4293 6.24542 24.0088 5.71202 22.5352L5.68454 22.5446L5.68229 22.5454C4.51882 22.9877 3.22318 22.3 2.37849 21.5459C1.20448 20.4978 0.376999 18.8866 0.183013 17.3124C1.39603 17.1553 2.53887 18.0938 3.32022 18.8942C4.2196 19.8155 5.02681 20.9044 5.52308 22.1138C5.48686 21.9824 5.45578 21.849 5.42965 21.7142C4.97807 20.3294 4.63596 18.9014 4.41043 17.4414L4.39286 17.4435L4.38692 17.4445C3.15687 17.6499 2.01962 16.7147 1.34017 15.8071C0.38691 14.5336 -0.104498 12.7709 0.0186696 11.1734C1.24395 11.259 2.17693 12.4247 2.78196 13.3676C3.48222 14.4591 4.06292 15.6945 4.31727 16.9869C4.30952 16.8841 4.30493 16.7807 4.3033 16.677C4.11653 15.191 4.04994 13.6746 4.11085 12.1395L4.10734 12.1393C2.85674 12.0943 1.93249 10.9331 1.45532 9.90321C0.77254 8.42934 0.662617 6.56634 1.11835 4.99625C2.31028 5.33079 2.97477 6.69807 3.36698 7.75053C3.8192 8.964 4.13482 10.2875 4.13734 11.6033C4.20239 10.4994 4.3334 9.38675 4.53315 8.26951Z" fill="#252525"/>
<path d="M29.1641 5.5459V10.8166C29.1641 13.1348 27.0645 14.2501 23.8825 14.2501C20.9082 14.2501 18.7758 13.1458 18.7758 10.5432V5.5459H21.7393V10.5432C21.7393 11.4727 22.5374 12.0522 24.0028 12.0522C25.4025 12.0522 26.2335 11.4508 26.2335 10.5541V5.5459H29.1641Z" fill="#252525"/>
<path d="M39.0336 11.8445V14.1299H30.8433V5.5459H33.8067V11.8445H39.0336Z" fill="#252525"/>
<path d="M47.8404 7.70011V5.5459H37.5943V7.70011H41.2138V14.1299H44.21V7.70011H47.8404Z" fill="#252525"/>
<path fill-rule="evenodd" clip-rule="evenodd" d="M58.3517 6.42077C58.7455 6.82532 58.932 7.38305 58.932 8.15935C58.932 8.82645 58.768 9.39508 58.4941 9.77773C58.1877 10.1933 57.7174 10.5432 57.1381 10.6307L59.7303 14.1299H56.4713L54.3387 11.1009H51.6818V14.1299H48.7621V5.5459H55.5965C56.9525 5.5459 57.8382 5.87395 58.3517 6.42077ZM55.9902 8.88114C56.0668 8.74987 56.0884 8.57489 56.0884 8.43281C56.0884 8.26873 56.0668 8.09376 55.9902 7.98447C55.837 7.70011 55.5307 7.62361 55.0712 7.62361H51.6927V9.18731H55.1261C55.5965 9.18731 55.8812 9.09982 55.9902 8.88114Z" fill="#252525"/>
<path fill-rule="evenodd" clip-rule="evenodd" d="M63.6749 12.5444H68.3114L69.0656 14.1299H72.2263L67.8961 5.5459H64.3641L59.7825 14.1299H62.8766L63.6749 12.5444ZM67.3816 10.6197H64.6371L65.7202 8.55309L66.0481 7.7657L66.3545 8.5421L67.3816 10.6197Z" fill="#252525"/>
<path fill-rule="evenodd" clip-rule="evenodd" d="M58.0391 15.7461C56.2047 15.7461 55.2397 16.6156 55.2397 17.8932C55.2397 19.3352 56.2524 20.0668 58.0391 20.0668C60.006 20.0668 60.8331 19.2186 60.8331 17.8932C60.8331 16.5466 59.8997 15.7461 58.0391 15.7461ZM58.0391 19.0012C56.9948 19.0012 56.6921 18.5718 56.6921 17.9091C56.6921 17.2571 57.021 16.8277 58.0337 16.8277C59.1419 16.8277 59.3906 17.3101 59.3906 17.9091C59.3906 18.5453 59.0888 19.0012 58.0391 19.0012Z" fill="#252525"/>
<path d="M52.5207 20.0034V17.5382H49.7533V18.4342H51.2324C51.2219 18.5031 51.1688 18.6357 51.0999 18.7151C50.9462 18.8954 50.5379 19.0544 50.0078 19.0544C49.4564 19.0544 49.1013 18.9113 48.9104 18.6886C48.7832 18.5243 48.709 18.291 48.709 17.9412C48.709 17.5754 48.7832 17.3262 48.9263 17.1619C49.1331 16.9286 49.4829 16.8279 49.9972 16.8279C50.4585 16.8279 50.7765 16.9338 50.925 17.0664C51.0204 17.1459 51.0946 17.2573 51.1105 17.3314H52.4835C52.4783 17.1989 52.4359 16.9869 52.3616 16.8332C52.033 16.1652 51.2695 15.7676 49.9707 15.7676C48.8415 15.7676 48.0834 16.1121 47.6646 16.6317C47.3889 16.9869 47.2617 17.4322 47.2617 17.9305C47.2617 18.4819 47.4101 18.9537 47.654 19.2665C48.0675 19.802 48.8044 20.067 49.6897 20.067C50.4691 20.067 51.0045 19.8815 51.3438 19.6005L51.3809 20.0034H52.5207Z" fill="#252525"/>
<path d="M38.0794 17.4854C39.1555 17.602 39.6167 17.9837 39.6167 18.71C39.6167 19.59 38.7579 20.0671 37.0667 20.0671C35.4922 20.0671 34.8137 19.6218 34.5538 19.0387C34.4955 18.9008 34.469 18.7312 34.4531 18.6251H35.9799C35.9906 18.6887 36.0277 18.7842 36.0807 18.8478C36.2079 19.0016 36.5631 19.0917 37.1674 19.0917C37.9468 19.0917 38.1323 18.9803 38.1323 18.7736C38.1323 18.5509 37.9415 18.5032 37.2364 18.429C36.9554 18.4025 36.5101 18.3601 36.3246 18.3442C34.978 18.2222 34.4797 17.8034 34.4797 17.0878C34.4797 16.3455 35.3597 15.7783 36.966 15.7783C38.3921 15.7783 39.0548 16.2024 39.3305 16.7326C39.4153 16.8916 39.4682 17.0718 39.4842 17.199H37.9574C37.952 17.1407 37.9309 17.0824 37.8726 17.0082C37.7559 16.8545 37.459 16.7537 36.9289 16.7537C36.1814 16.7537 35.9852 16.8438 35.9852 17.0347C35.9852 17.2468 36.2345 17.2945 37.0667 17.3846C37.3901 17.4111 37.9044 17.4641 38.0794 17.4854Z" fill="#252525"/>
<path fill-rule="evenodd" clip-rule="evenodd" d="M22.8591 16.197C23.1401 16.4196 23.2991 16.7961 23.2991 17.3421C23.2991 17.7874 23.1878 18.1213 22.9757 18.3546C22.6895 18.6833 22.2176 18.8318 21.6027 18.8371C21.4118 18.8424 19.779 18.8371 19.779 18.8371V20.0034H18.3528V15.8418H21.5814C22.154 15.8418 22.5887 15.9584 22.8591 16.197ZM21.8041 17.6654C21.8465 17.5913 21.8677 17.4958 21.8677 17.3632C21.8677 17.2255 21.8412 17.1088 21.7935 17.0452C21.7034 16.9126 21.5337 16.849 21.258 16.849H19.7683V17.8669H21.2474C21.5443 17.8669 21.7193 17.798 21.8041 17.6654Z" fill="#252525"/>
<path fill-rule="evenodd" clip-rule="evenodd" d="M28.5158 16.2659C28.7068 16.462 28.7969 16.7324 28.7969 17.1088C28.7969 17.4322 28.7173 17.7079 28.5848 17.8934C28.4364 18.0948 28.2084 18.2645 27.9274 18.3069L29.1839 20.0034H27.604L26.5702 18.5349H25.282V20.0034H23.8665V15.8418H27.1799C27.8373 15.8418 28.2667 16.0008 28.5158 16.2659ZM27.3708 17.4587C27.4079 17.3951 27.4184 17.3103 27.4184 17.2413C27.4184 17.1619 27.4079 17.077 27.3708 17.024C27.2965 16.8862 27.1481 16.849 26.9255 16.849H25.2873V17.6071H26.952C27.1799 17.6071 27.3178 17.5647 27.3708 17.4587Z" fill="#252525"/>
<path d="M34.0234 20.0034V18.9696H31.0387V18.4288H33.9015V17.4163H31.0387V16.8808H33.9863V15.8418H29.6391V20.0034H34.0234Z" fill="#252525"/>
<path d="M44.7756 16.8862V15.8418H39.8082V16.8862H41.5629V20.0034H43.0155V16.8862H44.7756Z" fill="#252525"/>
<path d="M46.6856 15.8418V20.0034H45.2277V15.8418H46.6856Z" fill="#252525"/>
<path d="M54.6639 15.8418V20.0034H53.2057V15.8418H54.6639Z" fill="#252525"/>
<path d="M66.458 15.8418V18.397C66.458 19.521 65.4399 20.0617 63.8974 20.0617C62.4558 20.0617 61.4214 19.5263 61.4214 18.2645V15.8418H62.8585V18.2645C62.8585 18.7151 63.2451 18.9961 63.956 18.9961C64.6344 18.9961 65.0372 18.7046 65.0372 18.2698V15.8418H66.458Z" fill="#252525"/>
<path d="M72.1812 18.71C72.1812 17.9837 71.7199 17.602 70.6441 17.4854C70.4684 17.4641 69.9549 17.4111 69.6314 17.3846C68.7989 17.2945 68.5493 17.2468 68.5493 17.0347C68.5493 16.8438 68.7457 16.7537 69.4935 16.7537C70.0233 16.7537 70.3207 16.8545 70.4369 17.0082C70.4955 17.0824 70.5162 17.1407 70.5216 17.199H72.0488C72.0326 17.0718 71.9794 16.8916 71.8947 16.7326C71.619 16.2024 70.9568 15.7783 69.5305 15.7783C67.924 15.7783 67.0437 16.3455 67.0437 17.0878C67.0437 17.8034 67.5429 18.2222 68.889 18.3442L68.9755 18.3519L69.1196 18.365L69.8008 18.429C70.5063 18.5032 70.6964 18.5509 70.6964 18.7736C70.6964 18.9803 70.5117 19.0917 69.7323 19.0917C69.1277 19.0917 68.7727 19.0016 68.6448 18.8478C68.5925 18.7842 68.5547 18.6887 68.5448 18.6251H67.0176C67.0338 18.7312 67.0599 18.9008 67.1185 19.0387C67.378 19.6218 68.0564 20.0671 69.6314 20.0671C71.3226 20.0671 72.1812 19.59 72.1812 18.71Z" fill="#252525"/>
<path fill-rule="evenodd" clip-rule="evenodd" d="M35.1091 21.5967C33.917 21.5967 33.2899 22.1618 33.2899 22.9922C33.2899 23.9293 33.9479 24.4047 35.1091 24.4047C36.3874 24.4047 36.9249 23.8535 36.9249 22.9922C36.9249 22.117 36.3185 21.5967 35.1091 21.5967ZM35.1091 23.7122C34.4303 23.7122 34.2339 23.4331 34.2339 23.0024C34.2339 22.5787 34.4476 22.2996 35.1057 22.2996C35.8257 22.2996 35.9877 22.6131 35.9877 23.0024C35.9877 23.4159 35.7913 23.7122 35.1091 23.7122Z" fill="#252525"/>
<path d="M28.4794 23.5225C28.4794 23.0505 28.1796 22.8024 27.4802 22.7266C27.3665 22.7128 27.0323 22.6784 26.8221 22.6612C26.2811 22.6025 26.1192 22.5715 26.1192 22.4338C26.1192 22.3097 26.2467 22.2511 26.7325 22.2511C27.0771 22.2511 27.27 22.3165 27.3458 22.4165C27.3837 22.4648 27.3975 22.5026 27.401 22.5405H28.3932C28.3829 22.4578 28.3485 22.3407 28.2933 22.2373C28.1141 21.8928 27.6834 21.6172 26.7566 21.6172C25.7127 21.6172 25.1407 21.9858 25.1407 22.4682C25.1407 22.9334 25.4645 23.2056 26.3397 23.2848C26.4603 23.2951 26.7497 23.3227 26.9324 23.3399C27.3906 23.3881 27.5146 23.4192 27.5146 23.5639C27.5146 23.6982 27.394 23.7706 26.8876 23.7706C26.4947 23.7706 26.2639 23.712 26.1812 23.6121C26.1468 23.5707 26.1226 23.5088 26.1158 23.4674H25.1234C25.1338 23.5363 25.151 23.6465 25.1889 23.7362C25.3578 24.1151 25.7988 24.4045 26.8221 24.4045C27.9212 24.4045 28.4794 24.0945 28.4794 23.5225Z" fill="#252525"/>
<path fill-rule="evenodd" clip-rule="evenodd" d="M21.5999 23.599C21.5999 23.7851 21.5482 23.9677 21.4448 24.0883C21.2863 24.2813 20.99 24.3639 20.6076 24.3639H18.2061V21.6592H20.5421C20.9142 21.6592 21.152 21.7488 21.2829 21.8832C21.4 22.0003 21.4518 22.1554 21.4518 22.3311C21.4518 22.5068 21.4104 22.6515 21.3208 22.7583C21.2484 22.848 21.1244 22.9168 20.9935 22.9341C21.1864 22.9582 21.369 23.0547 21.4724 23.189C21.5585 23.2889 21.5999 23.4406 21.5999 23.599ZM20.4388 22.6515C20.4732 22.6136 20.4939 22.5585 20.4939 22.4931C20.4939 22.4276 20.4732 22.3724 20.4284 22.3346C20.3802 22.2897 20.2905 22.2725 20.1596 22.2725H19.1088V22.7135H20.1838C20.3009 22.7135 20.3906 22.6963 20.4388 22.6515ZM20.2837 23.7507C20.4456 23.7507 20.5421 23.73 20.5972 23.6783C20.6317 23.6438 20.6454 23.5922 20.6454 23.5267C20.6454 23.4578 20.6282 23.4061 20.5869 23.3648C20.5353 23.32 20.4456 23.2993 20.2941 23.2993H19.1088V23.7507H20.2837Z" fill="#252525"/>
<path d="M24.8442 23.6921V24.3639H21.9948V21.6592H24.82V22.3346H22.9043V22.6825H24.7649V23.3406H22.9043V23.6921H24.8442Z" fill="#252525"/>
<path d="M31.8322 21.6592V22.338H30.6883V24.3639H29.7443V22.338H28.6038V21.6592H31.8322Z" fill="#252525"/>
<path d="M40.0777 21.6592V22.3448H38.2413V22.7273H39.9916V23.4061H38.2413V24.3639H37.3145V21.6592H40.0777Z" fill="#252525"/>
<path d="M44.7461 22.338V21.6592H41.5177V22.338H42.6582V24.3639H43.6023V22.338H44.7461Z" fill="#252525"/>
<path d="M48.2685 21.6592V24.3639H47.3451V23.382H45.96V24.3639H45.0366V21.6592H45.96V22.6446H47.3451V21.6592H48.2685Z" fill="#252525"/>
<path d="M51.6647 24.3639V23.6921H49.7248V23.3406H51.5854V22.6825H49.7248V22.3346H51.6405V21.6592H48.8152V24.3639H51.6647Z" fill="#252525"/>
<path d="M57.3768 21.6592H58.2688L57.2804 24.3639H56.2677C56.2677 24.3639 55.7262 22.748 55.7226 22.7032C55.7199 22.748 55.1748 24.3639 55.1748 24.3639H54.1656L53.1526 21.6592H54.1548C54.1548 21.6592 54.7414 23.3613 54.7414 23.4026C54.7414 23.3613 55.282 21.6592 55.282 21.6592H56.2506C56.2506 21.6592 56.7948 23.3613 56.7948 23.4026C56.7948 23.3613 57.3768 21.6592 57.3768 21.6592Z" fill="#252525"/>
<path fill-rule="evenodd" clip-rule="evenodd" d="M60.0384 21.5967C58.8464 21.5967 58.2193 22.1618 58.2193 22.9922C58.2193 23.9293 58.877 24.4047 60.0384 24.4047C61.3169 24.4047 61.8539 23.8535 61.8539 22.9922C61.8539 22.117 61.2475 21.5967 60.0384 21.5967ZM60.0384 23.7122C59.3599 23.7122 59.1635 23.4331 59.1635 23.0024C59.1635 22.5787 59.377 22.2996 60.0348 22.2996C60.7556 22.2996 60.9169 22.6131 60.9169 23.0024C60.9169 23.4159 60.7204 23.7122 60.0384 23.7122Z" fill="#252525"/>
<path fill-rule="evenodd" clip-rule="evenodd" d="M65.266 21.9349C65.3895 22.0624 65.448 22.2381 65.448 22.4827C65.448 22.6929 65.3967 22.872 65.3102 22.9927C65.2138 23.1236 65.066 23.2339 64.8831 23.2613L65.6994 24.3639H64.6732L64.001 23.4096H63.164V24.3639H62.2441V21.6592H64.3975C64.8245 21.6592 65.1038 21.7626 65.266 21.9349ZM64.5218 22.7101C64.5452 22.6688 64.5524 22.6136 64.5524 22.5688C64.5524 22.5171 64.5452 22.4621 64.5218 22.4276C64.4731 22.338 64.3767 22.3138 64.2317 22.3138H63.1676V22.8066H64.2488C64.3975 22.8066 64.4867 22.779 64.5218 22.7101Z" fill="#252525"/>
<path d="M68.5763 24.3639V23.6438H66.9293V21.6592H65.9958V24.3639H68.5763Z" fill="#252525"/>
<path fill-rule="evenodd" clip-rule="evenodd" d="M72.2299 22.9616C72.2299 23.382 72.1884 23.6094 72.065 23.823C71.8785 24.1641 71.51 24.3639 70.8586 24.3639H68.943V21.6592H70.8378C71.4857 21.6592 71.8686 21.8418 72.0578 22.1554C72.192 22.3656 72.2299 22.5895 72.2299 22.9616ZM70.6829 23.699C70.9757 23.699 71.1415 23.63 71.2415 23.4785C71.3037 23.3854 71.3208 23.1684 71.3208 22.9789C71.3172 22.8066 71.2964 22.624 71.2415 22.5413C71.1343 22.3794 70.973 22.3208 70.6901 22.3208H69.8666V23.699H70.6829Z" fill="#252525"/>
<path d="M35.2697 37.5176H33.842C33.842 37.5176 32.9103 40.2409 32.9103 40.307C32.9103 40.2409 32.0393 37.5176 32.0393 37.5176H30.4902C30.4902 37.5176 29.6247 40.2409 29.6247 40.307C29.6247 40.2409 28.6876 37.5176 28.6876 37.5176H27.0834L28.7041 41.845H30.3193C30.3193 41.845 31.1903 39.2596 31.1958 39.188C31.2014 39.2596 32.0668 41.845 32.0668 41.845H33.6875L35.2697 37.5176Z" fill="#252525"/>
<path d="M37.2234 41.845V37.5176H35.7074V41.845H37.2234Z" fill="#252525"/>
<path d="M43.1202 37.5176V41.845H41.6427L39.4983 39.436V41.845H38.0761V37.5176H39.6306L41.7088 39.8715V37.5176H43.1202Z" fill="#252525"/>
<path d="M49.0258 41.845V37.5176H47.6145V39.8715L45.5363 37.5176H43.9817V41.845H45.4039V39.436L47.5484 41.845H49.0258Z" fill="#252525"/>
<path d="M54.4468 40.77V41.845H49.8873V37.5176H54.408V38.5981H51.3427V39.1549H54.3197V40.2078H51.3427V40.77H54.4468Z" fill="#252525"/>
<path fill-rule="evenodd" clip-rule="evenodd" d="M60.2736 38.8351C60.2736 38.4437 60.1799 38.1626 59.9816 37.9586C59.7221 37.683 59.2762 37.5176 58.5923 37.5176H55.1469V41.845H56.6191V40.318H57.9589L59.0338 41.845H60.6763L59.3699 40.081C59.6618 40.0369 59.8987 39.8605 60.0537 39.651C60.1907 39.4581 60.2736 39.1714 60.2736 38.8351ZM58.8401 38.973C58.8401 39.0446 58.8293 39.1328 58.7905 39.1989C58.7355 39.3092 58.5923 39.3533 58.3553 39.3533H56.6245V38.565H58.3274C58.559 38.565 58.7139 38.6036 58.7905 38.7469C58.8293 38.8021 58.8401 38.8903 58.8401 38.973Z" fill="#252525"/>
<path d="M30.868 29.884L30.2701 28.0439L29.6722 29.884H27.7375L29.3027 31.0211L28.7049 32.8612L30.2701 31.724L31.8353 32.8612L31.2375 31.0211L32.8027 29.884H30.868Z" fill="#252525"/>
<path d="M37.1723 28.042L37.7824 29.882H39.7565L38.1594 31.0193L38.7695 32.8592L37.1723 31.7221L35.5752 32.8592L36.1852 31.0193L34.588 29.882H36.5622L37.1723 28.042Z" fill="#252525"/>
<path d="M44.6294 29.882L44.0194 28.042L43.4094 29.882H41.4351L43.0323 31.0193L42.4222 32.8592L44.0194 31.7221L45.6165 32.8592L45.0065 31.0193L46.6037 29.882H44.6294Z" fill="#252525"/>
<path d="M50.8669 28.042L51.477 29.882H53.4511L51.854 31.0193L52.4641 32.8592L50.8669 31.7221L49.2698 32.8592L49.8798 31.0193L48.2826 29.882H50.2569L50.8669 28.042Z" fill="#252525"/>
<path d="M58.367 29.882L57.7688 28.042L57.1705 29.882H55.2361L56.8011 31.0193L56.2037 32.8592L57.7688 31.7221L59.3338 32.8592L58.7365 31.0193L60.3015 29.882H58.367Z" fill="#252525"/>
<path d="M83.4672 8.30973C84.0394 6.85505 83.7907 5.18216 83.2636 3.77533C82.7086 2.29507 81.7427 0.818597 80.2993 0.0400391C80.2272 1.60013 80.7038 3.1413 81.2246 4.53109C81.6931 5.78106 82.2671 7.11274 83.2158 8.14646C83.3618 8.92962 83.4735 9.71061 83.5519 10.488C83.2375 9.66691 82.7284 8.91853 82.0923 8.31666C81.2733 7.54135 80.0542 6.94326 78.9108 7.297C79.246 8.5612 80.0092 9.77323 80.9138 10.6234C81.6256 11.2926 82.5653 12.15 83.6717 12.1838C83.7177 13.3281 83.6916 14.4621 83.597 15.5806C83.4411 14.7621 83.1068 13.9914 82.623 13.4174C81.9589 12.6287 80.9741 11.6652 79.7172 11.8264C79.7857 13.106 80.2966 14.4171 81.0075 15.4023C81.5715 16.1851 82.3175 17.183 83.3762 17.4408C83.2068 18.5395 82.9708 19.6201 82.6707 20.6775C82.668 19.8679 82.4896 19.0731 82.1346 18.4357C81.6346 17.5368 80.8552 16.4157 79.5965 16.328C79.4118 17.5834 79.6623 18.9557 80.1668 20.0472C80.5696 20.9196 81.1075 22.0322 82.0869 22.4925C81.6751 23.6305 81.1886 24.7367 80.63 25.8043C80.8264 24.8841 80.8183 23.9143 80.5867 23.0417C80.2669 21.839 79.474 20.5756 78.1999 20.2091C77.7494 21.537 77.8116 23.0186 78.0738 24.3681C78.2891 25.4794 78.7117 26.7844 79.6596 27.5062C79.0397 28.5069 78.354 29.4673 77.6053 30.3811C78.008 29.4849 78.2072 28.5047 78.0999 27.6074C77.9441 26.3006 77.5774 24.9029 76.243 24.2064C75.4852 25.5129 75.3095 26.9785 75.2456 28.4262C75.1933 29.5966 75.3618 31.0402 76.1754 31.9923C75.2807 32.9216 74.3166 33.7914 73.2868 34.5935C73.9517 33.7401 74.4175 32.7388 74.5157 31.7486C74.6554 30.3495 74.5878 28.8093 73.3453 27.7824C72.284 28.8915 71.6496 30.525 71.3397 31.9437C71.0649 33.198 70.7784 34.6828 71.4316 35.9172C70.1206 36.7733 68.7205 37.5276 67.2401 38.1664C68.2817 37.4241 69.134 36.4057 69.5404 35.3543C70.0729 33.9763 70.4018 32.3341 69.3656 30.9539C67.9763 31.8437 66.9554 33.3616 66.1508 34.7462C65.4606 35.9342 64.7462 37.574 65.1011 38.9888C64.2812 39.2669 63.4406 39.511 62.5801 39.7194L62.6315 39.9306C63.4947 39.7215 64.3389 39.4765 65.1615 39.1977C65.7382 40.9011 67.6267 41.4641 69.1539 41.7125C71.3298 42.0665 73.9211 41.3806 75.779 39.9988C74.7978 38.6131 72.7975 38.4726 71.2892 38.3665L71.2694 38.3652C69.617 38.249 67.8294 38.4042 66.1679 38.836C68.0871 38.1052 69.8837 37.1862 71.5406 36.1059L71.5632 36.1419C72.4705 37.6161 74.2941 37.6738 75.7249 37.5806C77.6665 37.4543 79.9073 36.2741 81.2039 34.6427C79.9839 33.5724 78.1828 33.8718 76.7863 34.1039L76.7791 34.1051C75.2212 34.3641 73.5192 34.9289 72.0902 35.7987C72.2263 35.6916 72.3587 35.5783 72.4885 35.4595C73.8778 34.4688 75.1591 33.3607 76.3223 32.1525C76.3385 32.1686 76.3547 32.1844 76.3709 32.2002C77.5026 33.3293 79.1451 33.0314 80.4281 32.6619C82.149 32.1663 83.933 30.6713 84.7881 28.955C83.4627 28.2125 81.8787 28.8242 80.6471 29.3083C79.2929 29.8398 77.8612 30.6905 76.7601 31.775C76.8737 31.6318 76.9827 31.482 77.0854 31.327C78.108 30.1722 79.0289 28.9356 79.838 27.631L79.8731 27.6527L79.8821 27.6583C81.1606 28.4811 82.6095 27.8837 83.7573 27.296C85.3152 26.4987 86.5676 24.7465 87.1082 23.0232C85.726 22.5806 84.361 23.4494 83.2996 24.1375C82.1373 24.8905 80.9606 25.9645 80.1533 27.1962C80.2128 27.0747 80.2686 26.9503 80.32 26.8237C81.0958 25.4702 81.7544 24.0493 82.2878 22.5753L82.3157 22.5847L82.3202 22.5865C83.4834 23.0268 84.7782 22.3396 85.6224 21.586C86.7955 20.538 87.6236 18.9267 87.8173 17.3526C86.6045 17.1954 85.4611 18.1339 84.68 18.9343C83.7808 19.8562 82.9726 20.9458 82.4761 22.1562C82.5131 22.0241 82.5446 21.8899 82.5707 21.7543C83.0221 20.3697 83.3645 18.9417 83.5898 17.4819L83.624 17.4864C84.8494 17.6848 85.9828 16.7523 86.6604 15.8473C87.6136 14.5737 88.1047 12.8111 87.9812 11.2134C86.7568 11.2992 85.8233 12.4647 85.2188 13.4077C84.5178 14.4998 83.9366 15.7359 83.6826 17.0291C83.6907 16.9257 83.6952 16.8217 83.697 16.7174C83.8835 15.2313 83.9502 13.7149 83.8889 12.1797C85.1404 12.1358 86.0675 10.9739 86.545 9.94352C87.2271 8.46974 87.337 6.60665 86.882 5.03665C85.69 5.37119 85.0251 6.73829 84.6331 7.79075C84.1808 9.00422 83.8655 10.3279 83.8628 11.6437C83.7979 10.5398 83.6663 9.42706 83.4672 8.30973Z" fill="#252525"/>
</svg>
