<svg width="62" height="45" viewBox="0 0 62 45" fill="none" xmlns="http://www.w3.org/2000/svg">
<path d="M60.1594 37.099H58.5882V3.88827C58.5882 1.74423 56.8439 0 54.6999 0H7.30025C5.1562 0 3.41186 1.74423 3.41186 3.88827V37.099H1.84069C1.18615 37.099 0.65535 37.6297 0.65535 38.2843V40.6612C0.65535 43.0537 2.6018 45 4.99417 45H57.0058C59.3983 45 61.3446 43.0536 61.3446 40.6612V38.2843C61.3448 37.6297 60.814 37.099 60.1594 37.099ZM5.78254 3.88827C5.78254 3.05142 6.4634 2.37068 7.30025 2.37068H54.7C55.5368 2.37068 56.2177 3.05154 56.2177 3.88827V37.099H5.78254V3.88827ZM3.02603 40.6612V39.4697H15.4573L16.8118 42.6293H4.99417C3.90887 42.6293 3.02603 41.7465 3.02603 40.6612ZM19.3912 42.6293L18.0367 39.4697H43.9635L42.609 42.6293H19.3912ZM58.9741 40.6612C58.9741 41.7465 58.0912 42.6293 57.0059 42.6293H45.1885L46.5429 39.4697H58.9741V40.6612Z" fill="url(#paint0_linear_431_769)"/>
<path d="M31.0001 29.5152C36.393 29.5152 40.7805 25.1278 40.7805 19.7348C40.7805 14.3419 36.393 9.95447 31.0001 9.95447C25.6073 9.95447 21.2198 14.3419 21.2198 19.7348C21.2198 25.1278 25.6073 29.5152 31.0001 29.5152ZM31.0001 12.3251C35.0859 12.3251 38.4098 15.6491 38.4098 19.7348C38.4098 23.8206 35.0859 27.1445 31.0001 27.1445C26.9144 27.1445 23.5905 23.8206 23.5905 19.7348C23.5905 15.6491 26.9144 12.3251 31.0001 12.3251Z" fill="url(#paint1_linear_431_769)"/>
<path d="M53.3728 33.0684V6.40043C53.3728 5.74576 52.842 5.21509 52.1874 5.21509H9.81272C9.15818 5.21509 8.62738 5.74576 8.62738 6.40043V33.0684C8.62738 33.7231 9.15818 34.2538 9.81272 34.2538H52.1874C52.8421 34.2538 53.3728 33.7231 53.3728 33.0684ZM51.0021 31.8831H10.9981V7.58577H51.0021V31.8831Z" fill="url(#paint2_linear_431_769)"/>
<path d="M28.8555 23.8301C29.1887 24.0048 29.551 24.0914 29.9122 24.0914C30.365 24.0914 30.8158 23.9554 31.204 23.6872L34.2174 21.6048C34.8317 21.1803 35.1985 20.4811 35.1985 19.7344C35.1985 18.9877 34.8316 18.2884 34.2175 17.8641L31.2039 15.7815C30.5063 15.2996 29.6063 15.2447 28.8554 15.6386C28.1045 16.0325 27.6379 16.804 27.6379 17.6519V21.8168C27.638 22.6648 28.1045 23.4362 28.8555 23.8301ZM30.0087 17.8372L32.7541 19.7343L30.0087 21.6316V17.8372Z" fill="url(#paint3_linear_431_769)"/>
<defs>
<linearGradient id="paint0_linear_431_769" x1="0.655351" y1="7.10525" x2="65.1048" y2="10.5279" gradientUnits="userSpaceOnUse">
<stop stop-color="#03E2CD"/>
<stop offset="1" stop-color="#6254FC"/>
</linearGradient>
<linearGradient id="paint1_linear_431_769" x1="21.2198" y1="13.043" x2="42.0187" y2="13.862" gradientUnits="userSpaceOnUse">
<stop stop-color="#03E2CD"/>
<stop offset="1" stop-color="#6254FC"/>
</linearGradient>
<linearGradient id="paint2_linear_431_769" x1="8.62738" y1="9.80014" x2="56.1043" y2="12.6809" gradientUnits="userSpaceOnUse">
<stop stop-color="#03E2CD"/>
<stop offset="1" stop-color="#6254FC"/>
</linearGradient>
<linearGradient id="paint3_linear_431_769" x1="27.6379" y1="16.7533" x2="35.6802" y2="17.0281" gradientUnits="userSpaceOnUse">
<stop stop-color="#03E2CD"/>
<stop offset="1" stop-color="#6254FC"/>
</linearGradient>
</defs>
</svg>
