<svg width="195" height="37" viewBox="0 0 195 37" fill="none" xmlns="http://www.w3.org/2000/svg">
<g opacity="0.6" clip-path="url(#clip0_124_237)">
<path d="M13.117 30.2918C9.3676 34.0494 3.01754 34.0344 1.24414 29.0265C0.896933 28.046 0.619329 27.0379 0.415152 26.0092C-0.418499 21.809 0.00936129 17.4556 1.64463 13.4992C3.2799 9.54283 6.04912 6.16124 9.60212 3.78208C13.1552 1.40293 17.3324 0.133056 21.6055 0.133057C25.8787 0.133057 30.0559 1.40293 33.6088 3.78208C37.1619 6.16124 39.9311 9.54283 41.5663 13.4993C43.2016 17.4556 43.6294 21.809 42.7958 26.0092C42.5917 27.0379 42.314 28.046 41.9668 29.0265C40.1934 34.0344 33.8434 34.0494 30.0939 30.2918L24.3062 24.4916C23.7532 23.9375 23.8103 23.0236 23.9629 22.255C24.0555 21.7878 24.008 21.3035 23.826 20.8633C23.6441 20.4232 23.3361 20.0469 22.9408 19.7823C22.5456 19.5177 22.0809 19.3764 21.6055 19.3764C21.1302 19.3764 20.6655 19.5177 20.2702 19.7823C19.8748 20.0469 19.5668 20.4232 19.3849 20.8633C19.203 21.3035 19.1554 21.7878 19.2482 22.255C19.4007 23.0236 19.4577 23.9375 18.9048 24.4916L13.117 30.2918Z" fill="black"/>
<path d="M60.7872 25.0929H66.5947V28.5226H56.3538V10.283H60.7872V25.0929Z" fill="black"/>
<path d="M74.5184 28.7311C73.1011 28.7311 71.822 28.4279 70.6812 27.8217C69.5578 27.2154 68.6676 26.3494 68.0108 25.2234C67.3713 24.0975 67.0515 22.7811 67.0515 21.274C67.0515 19.7845 67.3798 18.4766 68.0366 17.3507C68.6936 16.2075 69.5923 15.3328 70.733 14.7265C71.8738 14.1203 73.1529 13.8171 74.5702 13.8171C75.9875 13.8171 77.2666 14.1203 78.4073 14.7265C79.5481 15.3328 80.4469 16.2075 81.1037 17.3507C81.7605 18.4766 82.0889 19.7845 82.0889 21.274C82.0889 22.7637 81.7518 24.0802 81.0778 25.2234C80.421 26.3494 79.5136 27.2154 78.3554 27.8217C77.2147 28.4279 75.9357 28.7311 74.5184 28.7311ZM74.5184 24.8856C75.3653 24.8856 76.0826 24.5739 76.6703 23.9503C77.2753 23.3267 77.5777 22.4347 77.5777 21.274C77.5777 20.1135 77.2838 19.2215 76.6962 18.5979C76.1258 17.9743 75.4171 17.6625 74.5702 17.6625C73.706 17.6625 72.9887 17.9743 72.4183 18.5979C71.8479 19.2041 71.5627 20.0961 71.5627 21.274C71.5627 22.4347 71.8393 23.3267 72.3924 23.9503C72.9628 24.5739 73.6715 24.8856 74.5184 24.8856Z" fill="black"/>
<path d="M89.1586 13.8171C90.1784 13.8171 91.0686 14.025 91.8291 14.4407C92.6069 14.8564 93.2033 15.4021 93.6181 16.0775V14.025H98.0515V28.4971C98.0515 29.8309 97.7836 31.0349 97.2478 32.1087C96.7292 33.2 95.9255 34.0661 94.8367 34.7069C93.765 35.3479 92.4254 35.6684 90.818 35.6684C88.6747 35.6684 86.9376 35.1574 85.6067 34.1354C84.2759 33.1307 83.5153 31.7623 83.3252 30.0301H87.7068C87.845 30.5844 88.1735 31.0175 88.6921 31.3293C89.2105 31.6584 89.8501 31.8229 90.6106 31.8229C91.5267 31.8229 92.2525 31.5544 92.7884 31.0175C93.3415 30.4978 93.6181 29.6578 93.6181 28.4971V26.4446C93.1859 27.1201 92.5897 27.6745 91.8291 28.1075C91.0686 28.5232 90.1784 28.7311 89.1586 28.7311C87.9661 28.7311 86.8858 28.4279 85.9178 27.8217C84.9499 27.1981 84.1807 26.3233 83.6105 25.1974C83.0574 24.0542 82.7808 22.7378 82.7808 21.2481C82.7808 19.7584 83.0574 18.4507 83.6105 17.3248C84.1807 16.1988 84.9499 15.3328 85.9178 14.7265C86.8858 14.1203 87.9661 13.8171 89.1586 13.8171ZM93.6181 21.274C93.6181 20.1655 93.307 19.2907 92.6847 18.6499C92.0798 18.009 91.3365 17.6885 90.455 17.6885C89.5735 17.6885 88.8216 18.009 88.1994 18.6499C87.5944 19.2735 87.292 20.1396 87.292 21.2481C87.292 22.3567 87.5944 23.2401 88.1994 23.8983C88.8216 24.5392 89.5735 24.8597 90.455 24.8597C91.3365 24.8597 92.0798 24.5392 92.6847 23.8983C93.307 23.2574 93.6181 22.3827 93.6181 21.274Z" fill="black"/>
<path d="M107.067 28.7311C105.65 28.7311 104.371 28.4279 103.23 27.8217C102.107 27.2154 101.217 26.3494 100.56 25.2234C99.9204 24.0975 99.6006 22.7811 99.6006 21.274C99.6006 19.7845 99.9289 18.4766 100.586 17.3507C101.243 16.2075 102.141 15.3328 103.282 14.7265C104.423 14.1203 105.702 13.8171 107.119 13.8171C108.537 13.8171 109.816 14.1203 110.956 14.7265C112.097 15.3328 112.996 16.2075 113.653 17.3507C114.31 18.4766 114.638 19.7845 114.638 21.274C114.638 22.7637 114.301 24.0802 113.627 25.2234C112.97 26.3494 112.063 27.2154 110.905 27.8217C109.764 28.4279 108.485 28.7311 107.067 28.7311ZM107.067 24.8856C107.914 24.8856 108.632 24.5739 109.219 23.9503C109.824 23.3267 110.127 22.4347 110.127 21.274C110.127 20.1135 109.833 19.2215 109.245 18.5979C108.675 17.9743 107.966 17.6625 107.119 17.6625C106.255 17.6625 105.538 17.9743 104.967 18.5979C104.397 19.2041 104.112 20.0961 104.112 21.274C104.112 22.4347 104.388 23.3267 104.941 23.9503C105.512 24.5739 106.221 24.8856 107.067 24.8856Z" fill="black"/>
<path d="M118.441 12.5182C117.664 12.5182 117.024 12.293 116.523 11.8426C116.039 11.375 115.797 10.8033 115.797 10.1278C115.797 9.43494 116.039 8.86332 116.523 8.41295C117.024 7.94527 117.664 7.71143 118.441 7.71143C119.202 7.71143 119.824 7.94527 120.308 8.41295C120.809 8.86332 121.06 9.43494 121.06 10.1278C121.06 10.8033 120.809 11.375 120.308 11.8426C119.824 12.293 119.202 12.5182 118.441 12.5182ZM120.645 14.0252V28.5234H116.212V14.0252H120.645Z" fill="black"/>
<path d="M127.514 16.0775C127.946 15.4021 128.542 14.8564 129.303 14.4407C130.064 14.025 130.954 13.8171 131.974 13.8171C133.167 13.8171 134.246 14.1203 135.214 14.7265C136.182 15.3328 136.943 16.1988 137.496 17.3248C138.066 18.4507 138.352 19.7584 138.352 21.2481C138.352 22.7378 138.066 24.0542 137.496 25.1974C136.943 26.3233 136.182 27.1981 135.214 27.8217C134.246 28.4279 133.167 28.7311 131.974 28.7311C130.971 28.7311 130.082 28.5232 129.303 28.1075C128.542 27.6917 127.946 27.1548 127.514 26.4966V35.4345H123.081V14.025H127.514V16.0775ZM133.841 21.2481C133.841 20.1396 133.529 19.2735 132.907 18.6499C132.301 18.009 131.551 17.6885 130.652 17.6885C129.77 17.6885 129.018 18.009 128.395 18.6499C127.791 19.2907 127.489 20.1655 127.489 21.274C127.489 22.3827 127.791 23.2574 128.395 23.8983C129.018 24.5392 129.77 24.8597 130.652 24.8597C131.533 24.8597 132.285 24.5392 132.907 23.8983C133.529 23.2401 133.841 22.3567 133.841 21.2481Z" fill="black"/>
<path d="M145.784 28.7311C144.522 28.7311 143.398 28.5145 142.412 28.0815C141.428 27.6484 140.649 27.0595 140.079 26.3146C139.509 25.5525 139.189 24.7038 139.12 23.7684H143.502C143.554 24.2707 143.787 24.6777 144.201 24.9895C144.617 25.3013 145.127 25.4572 145.732 25.4572C146.284 25.4572 146.708 25.3533 147.001 25.1454C147.313 24.9203 147.469 24.6344 147.469 24.288C147.469 23.8723 147.253 23.5692 146.821 23.3787C146.389 23.1708 145.688 22.9457 144.72 22.7031C143.683 22.4606 142.819 22.2095 142.127 21.9496C141.437 21.6725 140.84 21.2481 140.339 20.6765C139.837 20.0876 139.587 19.2994 139.587 18.3121C139.587 17.4807 139.812 16.7272 140.261 16.0516C140.727 15.3588 141.402 14.8131 142.283 14.4147C143.182 14.0163 144.245 13.8171 145.472 13.8171C147.286 13.8171 148.713 14.2675 149.75 15.1682C150.805 16.069 151.41 17.2641 151.565 18.7538H147.469C147.399 18.2515 147.175 17.8531 146.794 17.5585C146.431 17.2641 145.948 17.1169 145.343 17.1169C144.824 17.1169 144.426 17.2208 144.15 17.4287C143.874 17.6192 143.736 17.8877 143.736 18.2341C143.736 18.6499 143.952 18.9617 144.384 19.1695C144.833 19.3774 145.524 19.5853 146.458 19.793C147.529 20.0702 148.401 20.3474 149.076 20.6245C149.75 20.8843 150.338 21.3173 150.839 21.9237C151.357 22.5126 151.626 23.3093 151.643 24.3141C151.643 25.1628 151.401 25.9249 150.916 26.6005C150.451 27.2587 149.767 27.7784 148.868 28.1594C147.987 28.5406 146.959 28.7311 145.784 28.7311Z" fill="black"/>
<path d="M167.864 14.0251V28.5233H163.431V26.5487C162.981 27.1895 162.367 27.7092 161.59 28.1076C160.829 28.4887 159.983 28.6792 159.049 28.6792C157.943 28.6792 156.966 28.4368 156.12 27.9517C155.272 27.4494 154.615 26.7305 154.15 25.7952C153.683 24.8598 153.449 23.7599 153.449 22.4953V14.0251H157.856V21.8978C157.856 22.8678 158.107 23.6213 158.608 24.1583C159.109 24.6952 159.783 24.9637 160.631 24.9637C161.495 24.9637 162.178 24.6952 162.679 24.1583C163.18 23.6213 163.431 22.8678 163.431 21.8978V14.0251H167.864Z" fill="black"/>
<path d="M188.732 13.8694C190.529 13.8694 191.955 14.415 193.01 15.5063C194.081 16.5975 194.617 18.1131 194.617 20.0531V28.5235H190.21V20.6508C190.21 19.7154 189.959 18.9966 189.458 18.4942C188.973 17.9746 188.3 17.7147 187.435 17.7147C186.571 17.7147 185.888 17.9746 185.387 18.4942C184.904 18.9966 184.662 19.7154 184.662 20.6508V28.5235H180.253V20.6508C180.253 19.7154 180.003 18.9966 179.502 18.4942C179.018 17.9746 178.343 17.7147 177.48 17.7147C176.616 17.7147 175.933 17.9746 175.432 18.4942C174.947 18.9966 174.706 19.7154 174.706 20.6508V28.5235H170.272V14.0253H174.706V15.844C175.155 15.2378 175.743 14.7614 176.469 14.415C177.195 14.0512 178.016 13.8694 178.931 13.8694C180.021 13.8694 180.989 14.1032 181.835 14.5709C182.699 15.0386 183.373 15.7055 183.858 16.5716C184.359 15.7747 185.042 15.1252 185.906 14.6229C186.77 14.1205 187.713 13.8694 188.732 13.8694Z" fill="black"/>
</g>
<defs>
<clipPath id="clip0_124_237">
<rect width="194.616" height="36.4905" fill="white" transform="translate(0 0.133057)"/>
</clipPath>
</defs>
</svg>
