<svg width="162" height="33" viewBox="0 0 162 33" fill="none" xmlns="http://www.w3.org/2000/svg">
<g opacity="0.6">
<path d="M46.5689 22.2073C46.5689 23.0039 46.4043 23.6159 46.0752 24.0435C45.7546 24.4712 45.2187 24.685 44.4676 24.685C43.7586 24.685 43.2566 24.4712 42.9611 24.0435C42.6742 23.6159 42.5308 23.0039 42.5308 22.2073V8.91326C42.5308 8.1167 42.6742 7.50461 42.9611 7.07699C43.2566 6.64936 43.7586 6.43555 44.4676 6.43555C45.2187 6.43555 45.7546 6.64936 46.0752 7.07699C46.4043 7.50461 46.5689 8.1167 46.5689 8.91326V22.2073Z" fill="black"/>
<path d="M47.7939 18.3462C47.7939 17.4573 47.9374 16.6189 48.2244 15.8307C48.5197 15.0341 48.9585 14.3382 49.5409 13.7429C50.1316 13.1476 50.8659 12.6738 51.7436 12.3217C52.6297 11.9695 53.6676 11.7935 54.8576 11.7935C55.9969 11.7935 57.0054 11.9569 57.8831 12.2839C58.7608 12.611 59.4992 13.0679 60.0983 13.6549C60.6975 14.2334 61.1532 14.9251 61.4655 15.73C61.7777 16.5266 61.9339 17.3986 61.9339 18.3462C61.9339 19.2266 61.7861 20.0608 61.4908 20.849C61.1955 21.6287 60.7524 22.3164 60.1616 22.9117C59.5709 23.4986 58.8325 23.9681 57.9464 24.3203C57.0602 24.6641 56.0306 24.8359 54.8576 24.8359C53.7015 24.8359 52.6803 24.6725 51.7941 24.3455C50.9164 24.0101 50.1781 23.5531 49.5789 22.9745C48.9881 22.3876 48.5408 21.7001 48.237 20.9119C47.9416 20.1153 47.7939 19.2601 47.7939 18.3462ZM52.0094 18.3462C52.0094 18.8996 52.06 19.4278 52.1613 19.9308C52.2625 20.4255 52.4229 20.8616 52.6423 21.2389C52.8701 21.6162 53.1656 21.9181 53.5284 22.1444C53.8914 22.3624 54.3344 22.4715 54.8576 22.4715C55.3386 22.4715 55.7564 22.3709 56.1108 22.1695C56.4737 21.9684 56.7691 21.6874 56.997 21.3269C57.2332 20.9664 57.4105 20.5346 57.5286 20.0315C57.6467 19.52 57.7058 18.9583 57.7058 18.3462C57.7058 17.7927 57.651 17.2687 57.5413 16.774C57.44 16.271 57.2755 15.8307 57.0475 15.4534C56.8197 15.0677 56.5244 14.7658 56.1614 14.5478C55.807 14.3215 55.3723 14.2083 54.8576 14.2083C54.3428 14.2083 53.904 14.3172 53.541 14.5353C53.1782 14.7533 52.8829 15.0509 52.6549 15.4282C52.4271 15.8056 52.2625 16.2457 52.1613 16.7489C52.06 17.2519 52.0094 17.7843 52.0094 18.3462Z" fill="black"/>
<path d="M72.3267 22.2574C72.0988 22.6766 71.8203 23.033 71.4911 23.3265C71.1705 23.6199 70.8118 23.8631 70.4152 24.056C70.027 24.2404 69.6093 24.3787 69.162 24.471C68.7231 24.5548 68.2717 24.5968 67.8075 24.5968C67.031 24.5968 66.3222 24.4585 65.6808 24.1817C65.0394 23.905 64.4867 23.5067 64.0225 22.9869C63.5668 22.4587 63.2124 21.813 62.9592 21.05C62.7059 20.2869 62.5793 19.4149 62.5793 18.434C62.5793 17.5116 62.6975 16.648 62.9339 15.843C63.1701 15.0381 63.5119 14.338 63.9592 13.7427C64.415 13.1474 64.9719 12.6778 65.6302 12.3341C66.2884 11.9903 67.0396 11.8184 67.8834 11.8184C68.8455 11.8184 69.6979 12.0029 70.4405 12.3717C71.1916 12.7407 71.8372 13.3444 72.3774 14.1828V13.8559C72.3774 13.2522 72.5419 12.7994 72.871 12.4975C73.2086 12.1873 73.6728 12.0322 74.2635 12.0322C74.6179 12.0322 74.9175 12.0909 75.1623 12.2083C75.4069 12.3173 75.6011 12.485 75.7445 12.7114C75.8881 12.9294 75.9893 13.2019 76.0484 13.5289C76.1159 13.8474 76.1496 14.2122 76.1496 14.6231V23.0498C76.1496 24.0727 76.0189 24.9866 75.7572 25.7915C75.504 26.5965 75.1074 27.2757 74.5673 27.8291C74.0272 28.3825 73.3352 28.8017 72.4912 29.0868C71.6473 29.3803 70.6431 29.527 69.4785 29.527C68.6599 29.527 67.9341 29.4893 67.3011 29.4138C66.6766 29.3468 66.1365 29.2419 65.6808 29.0994C65.2251 28.94 64.8791 28.764 64.6428 28.5711C64.415 28.3783 64.301 28.1267 64.301 27.8165C64.301 27.6404 64.3263 27.4728 64.3769 27.3134C64.4276 27.1541 64.5035 27.0116 64.6048 26.8858C64.7145 26.7684 64.8537 26.672 65.0226 26.5965C65.1997 26.5295 65.4149 26.4959 65.6681 26.4959C65.9382 26.4959 66.2082 26.5127 66.4783 26.5462C66.7568 26.5797 67.0438 26.6133 67.3391 26.6468C67.6429 26.6888 67.9594 26.7264 68.2885 26.76C68.6261 26.7935 68.9889 26.8104 69.3772 26.8104C69.8413 26.8104 70.2548 26.7642 70.6178 26.672C70.9806 26.5797 71.2886 26.4163 71.5418 26.1814C71.795 25.9467 71.9891 25.6323 72.1242 25.2382C72.2592 24.8524 72.3267 24.3578 72.3267 23.7541V22.2574ZM72.3267 18.346C72.3267 17.7338 72.2802 17.1762 72.1875 16.6732C72.1031 16.1701 71.9553 15.7425 71.7443 15.3902C71.5334 15.0297 71.2507 14.7531 70.8963 14.5602C70.5417 14.359 70.0987 14.2584 69.5671 14.2584C69.0438 14.2584 68.6092 14.3631 68.2632 14.5727C67.9257 14.7824 67.6556 15.0717 67.4531 15.4406C67.2505 15.8096 67.1071 16.2413 67.0226 16.7361C66.9467 17.2308 66.9088 17.759 66.9088 18.3207C66.9088 19.6036 67.1366 20.5679 67.5923 21.2135C68.048 21.8591 68.7105 22.182 69.5797 22.182C69.9848 22.1736 70.352 22.0981 70.681 21.9555C71.0186 21.8046 71.3098 21.5741 71.5545 21.2638C71.7992 20.9535 71.9891 20.5594 72.1242 20.0815C72.2592 19.6036 72.3267 19.0251 72.3267 18.346Z" fill="black"/>
<path d="M77.3108 18.3462C77.3108 17.4573 77.4542 16.6189 77.7411 15.8307C78.0366 15.0341 78.4754 14.3382 79.0577 13.7429C79.6485 13.1476 80.3826 12.6738 81.2603 12.3217C82.1465 11.9695 83.1845 11.7935 84.3744 11.7935C85.5136 11.7935 86.5221 11.9569 87.3998 12.2839C88.2775 12.611 89.0159 13.0679 89.6151 13.6549C90.2143 14.2334 90.6701 14.9251 90.9822 15.73C91.2945 16.5266 91.4506 17.3986 91.4506 18.3462C91.4506 19.2266 91.303 20.0608 91.0076 20.849C90.7122 21.6287 90.2692 22.3164 89.6784 22.9117C89.0877 23.4986 88.3492 23.9681 87.4631 24.3203C86.577 24.6641 85.5474 24.8359 84.3744 24.8359C83.2182 24.8359 82.197 24.6725 81.3109 24.3455C80.4333 24.0101 79.6948 23.5531 79.0956 22.9745C78.505 22.3876 78.0576 21.7001 77.7538 20.9119C77.4585 20.1153 77.3108 19.2601 77.3108 18.3462ZM81.5261 18.3462C81.5261 18.8996 81.5768 19.4278 81.6781 19.9308C81.7793 20.4255 81.9396 20.8616 82.1591 21.2389C82.3869 21.6162 82.6823 21.9181 83.0452 22.1444C83.4081 22.3624 83.8512 22.4715 84.3744 22.4715C84.8555 22.4715 85.2732 22.3709 85.6276 22.1695C85.9904 21.9684 86.2859 21.6874 86.5137 21.3269C86.7501 20.9664 86.9272 20.5346 87.0454 20.0315C87.1636 19.52 87.2227 18.9583 87.2227 18.3462C87.2227 17.7927 87.1678 17.2687 87.058 16.774C86.9568 16.271 86.7922 15.8307 86.5644 15.4534C86.3366 15.0677 86.0411 14.7658 85.6783 14.5478C85.3238 14.3215 84.8892 14.2083 84.3744 14.2083C83.8596 14.2083 83.4207 14.3172 83.0579 14.5353C82.695 14.7533 82.3996 15.0509 82.1718 15.4282C81.944 15.8056 81.7793 16.2457 81.6781 16.7489C81.5768 17.2519 81.5261 17.7843 81.5261 18.3462Z" fill="black"/>
<path d="M96.8789 7.55521C96.8789 7.83191 96.8156 8.07926 96.689 8.29727C96.5624 8.50688 96.3979 8.68292 96.1953 8.82555C95.9928 8.96808 95.7564 9.07701 95.4864 9.15246C95.2248 9.21954 94.9548 9.25314 94.6762 9.25314C94.3809 9.25314 94.0982 9.21536 93.8281 9.13991C93.5665 9.06446 93.3345 8.95552 93.1319 8.81289C92.9294 8.66199 92.769 8.48173 92.6508 8.27211C92.5327 8.06249 92.4736 7.82352 92.4736 7.55521C92.4736 7.31205 92.5285 7.08986 92.6382 6.88862C92.7563 6.67901 92.9124 6.49873 93.1065 6.3478C93.3007 6.19688 93.5328 6.07949 93.8028 5.99565C94.0729 5.91179 94.3682 5.86987 94.689 5.86987C94.9674 5.86987 95.2375 5.90761 95.4991 5.98307C95.7692 6.05853 96.0054 6.16753 96.208 6.31008C96.4105 6.45262 96.5709 6.62869 96.689 6.83831C96.8156 7.04794 96.8789 7.2869 96.8789 7.55521ZM96.689 22.2076C96.689 23.0042 96.5245 23.6162 96.1953 24.0438C95.8746 24.4715 95.3387 24.6853 94.5876 24.6853C93.8788 24.6853 93.3766 24.4715 93.0813 24.0438C92.7943 23.6162 92.6508 23.0042 92.6508 22.2076V14.5103C92.6508 13.7138 92.7943 13.1017 93.0813 12.6741C93.3766 12.2465 93.8788 12.0326 94.5876 12.0326C95.3387 12.0326 95.8746 12.2465 96.1953 12.6741C96.5245 13.1017 96.689 13.7138 96.689 14.5103V22.2076Z" fill="black"/>
<path d="M102.511 18.3208C102.511 18.8826 102.553 19.4066 102.638 19.893C102.731 20.3793 102.883 20.8068 103.094 21.1758C103.313 21.5363 103.6 21.8214 103.954 22.031C104.317 22.2407 104.764 22.3455 105.296 22.3455C105.786 22.3455 106.195 22.2449 106.524 22.0437C106.861 21.834 107.131 21.5489 107.335 21.1884C107.537 20.8194 107.68 20.3876 107.764 19.893C107.857 19.3982 107.904 18.8616 107.904 18.2831C107.904 17.8219 107.87 17.3524 107.802 16.8744C107.735 16.388 107.609 15.9479 107.423 15.5538C107.237 15.1597 106.98 14.8369 106.651 14.5853C106.321 14.3338 105.891 14.2081 105.359 14.2081C104.828 14.2081 104.376 14.2919 104.005 14.4596C103.642 14.6273 103.347 14.883 103.119 15.2268C102.899 15.5706 102.743 16.0024 102.651 16.5222C102.558 17.0337 102.511 17.6332 102.511 18.3208ZM102.499 14.5099C102.71 14.0655 102.98 13.6756 103.309 13.3402C103.638 13.0048 104.001 12.724 104.397 12.4975C104.794 12.2712 105.208 12.1034 105.638 11.9945C106.077 11.8771 106.511 11.8184 106.941 11.8184C107.718 11.8184 108.419 11.9903 109.043 12.3341C109.668 12.6778 110.199 13.1474 110.638 13.7427C111.085 14.3297 111.428 15.0256 111.664 15.8305C111.9 16.6271 112.018 17.4823 112.018 18.3962C112.018 19.3437 111.891 20.2115 111.638 20.9997C111.394 21.7879 111.043 22.4671 110.587 23.0372C110.14 23.599 109.6 24.0391 108.967 24.3578C108.342 24.6764 107.647 24.8357 106.879 24.8357C105.934 24.8357 105.089 24.6177 104.347 24.1817C103.604 23.7457 102.988 23.1336 102.499 22.3455V26.8733C102.499 27.6697 102.334 28.2819 102.005 28.7095C101.684 29.1371 101.148 29.351 100.397 29.351C99.6883 29.351 99.1861 29.1371 98.8908 28.7095C98.6039 28.2819 98.4604 27.6697 98.4604 26.8733V14.5099C98.4604 13.7133 98.6039 13.1012 98.8908 12.6736C99.1861 12.2461 99.6883 12.0322 100.397 12.0322C101.148 12.0322 101.684 12.2461 102.005 12.6736C102.334 13.1012 102.499 13.7133 102.499 14.5099Z" fill="black"/>
<path d="M116.47 15.4031C116.47 15.73 116.613 15.9858 116.9 16.1703C117.187 16.3464 117.583 16.4931 118.09 16.6105C118.571 16.7195 119.064 16.8243 119.571 16.9249C120.078 17.0256 120.571 17.143 121.052 17.2771C121.533 17.4028 121.984 17.5538 122.407 17.7298C122.828 17.9059 123.2 18.1281 123.52 18.3964C123.841 18.6564 124.094 18.975 124.28 19.3523C124.466 19.7212 124.558 20.1657 124.558 20.6855C124.558 21.3395 124.423 21.9223 124.153 22.4337C123.883 22.9368 123.5 23.3644 123.002 23.7166C122.513 24.0688 121.926 24.3413 121.242 24.5341C120.558 24.727 119.803 24.8276 118.976 24.8359C118.192 24.8359 117.436 24.7857 116.71 24.685C115.985 24.5928 115.339 24.446 114.773 24.2448C114.216 24.0436 113.769 23.7963 113.431 23.5027C113.094 23.2009 112.926 22.8488 112.926 22.4463C112.926 22.0941 113.039 21.8216 113.267 21.6287C113.495 21.436 113.785 21.3395 114.141 21.3395C114.276 21.3395 114.436 21.3646 114.622 21.4149C114.807 21.4653 115.009 21.5282 115.229 21.6036C115.448 21.6791 115.68 21.7629 115.925 21.8552C116.178 21.939 116.44 22.0145 116.71 22.0815C117.048 22.1738 117.393 22.2493 117.748 22.308C118.111 22.3582 118.482 22.3834 118.862 22.3834C119.098 22.3834 119.33 22.3624 119.558 22.3206C119.786 22.2702 119.989 22.199 120.166 22.1068C120.352 22.0061 120.503 21.8803 120.622 21.7294C120.74 21.5785 120.811 21.394 120.837 21.176C120.862 21.1257 120.884 21.0754 120.9 21.025C120.917 20.9748 120.926 20.9161 120.926 20.849C120.926 20.6142 120.816 20.4046 120.596 20.2201C120.386 20.0357 120.085 19.8889 119.697 19.78C119.047 19.6291 118.427 19.4907 117.836 19.3649C117.246 19.2391 116.698 19.105 116.191 18.9625C115.693 18.8199 115.237 18.6564 114.824 18.4719C114.418 18.2875 114.073 18.061 113.785 17.7927C113.508 17.5244 113.287 17.2016 113.128 16.8243C112.975 16.447 112.9 15.99 112.9 15.4534C112.9 14.8749 113.03 14.3592 113.292 13.9064C113.562 13.4452 113.946 13.0596 114.444 12.7493C114.942 12.439 115.545 12.2043 116.255 12.045C116.963 11.8773 117.765 11.7935 118.659 11.7935C120.262 11.7935 121.482 11.9863 122.318 12.3719C123.162 12.7493 123.584 13.244 123.584 13.8561C123.584 14.1999 123.47 14.464 123.242 14.6484C123.014 14.8245 122.739 14.9125 122.42 14.9125C122.25 14.9125 122.073 14.8832 121.887 14.8245C121.71 14.7575 121.495 14.6862 121.242 14.6107C120.988 14.5269 120.685 14.4557 120.331 14.397C119.985 14.3299 119.554 14.2963 119.04 14.2963C118.651 14.2963 118.296 14.313 117.976 14.3466C117.663 14.3801 117.393 14.4388 117.165 14.5226C116.946 14.6066 116.773 14.7197 116.647 14.8623C116.528 15.0048 116.47 15.185 116.47 15.4031Z" fill="black"/>
<path d="M129.699 20.0187C129.699 20.4128 129.749 20.7566 129.851 21.0501C129.96 21.3435 130.108 21.5909 130.294 21.7921C130.48 21.985 130.694 22.1317 130.939 22.2323C131.192 22.3246 131.463 22.3707 131.749 22.3707C132.087 22.3707 132.412 22.3204 132.724 22.2197C133.036 22.1192 133.311 21.964 133.547 21.7544C133.791 21.5448 133.986 21.2806 134.13 20.962C134.272 20.6434 134.345 20.2703 134.345 19.8427V14.5099C134.345 13.7134 134.488 13.1013 134.774 12.6737C135.07 12.2461 135.573 12.0322 136.281 12.0322C137.032 12.0322 137.568 12.2461 137.889 12.6737C138.218 13.1013 138.382 13.7134 138.382 14.5099V22.2072C138.382 23.0037 138.218 23.6158 137.889 24.0434C137.568 24.4711 137.032 24.6849 136.281 24.6849C135.573 24.6849 135.07 24.4711 134.774 24.0434C134.488 23.6158 134.345 23.0037 134.345 22.2072C134.167 22.5929 133.935 22.945 133.648 23.2637C133.369 23.5823 133.041 23.859 132.66 24.0937C132.289 24.3202 131.876 24.4962 131.42 24.622C130.973 24.7478 130.487 24.8107 129.964 24.8107C129.399 24.8107 128.855 24.7142 128.331 24.5214C127.817 24.3202 127.361 24.0266 126.964 23.6409C126.568 23.2469 126.252 22.7605 126.015 22.182C125.778 21.6035 125.661 20.9285 125.661 20.157V14.5099C125.661 13.7134 125.804 13.1013 126.091 12.6737C126.387 12.2461 126.888 12.0322 127.597 12.0322C128.348 12.0322 128.884 12.2461 129.205 12.6737C129.534 13.1013 129.699 13.7134 129.699 14.5099V20.0187Z" fill="black"/>
<path d="M140.214 14.5099C140.214 13.7133 140.358 13.1012 140.645 12.6736C140.94 12.246 141.442 12.0322 142.151 12.0322C142.903 12.0322 143.439 12.246 143.759 12.6736C144.088 13.1012 144.253 13.7133 144.253 14.5099C144.422 14.1074 144.649 13.7427 144.937 13.4157C145.232 13.0803 145.566 12.7952 145.936 12.5604C146.316 12.3257 146.726 12.1454 147.164 12.0196C147.603 11.8854 148.059 11.8184 148.532 11.8184C148.97 11.8184 149.4 11.8771 149.823 11.9945C150.253 12.1034 150.65 12.2837 151.013 12.5353C151.384 12.7784 151.709 13.0887 151.987 13.466C152.266 13.8433 152.481 14.2961 152.633 14.8243C152.895 14.2626 153.203 13.7888 153.557 13.4031C153.911 13.0174 154.296 12.7071 154.708 12.4724C155.122 12.2376 155.553 12.0699 156 11.9693C156.456 11.8687 156.911 11.8184 157.367 11.8184C157.907 11.8184 158.422 11.9148 158.912 12.1076C159.41 12.3005 159.844 12.594 160.215 12.9881C160.596 13.3737 160.895 13.8643 161.114 14.4596C161.342 15.0465 161.456 15.7341 161.456 16.5222V22.2071C161.456 23.0037 161.291 23.6157 160.962 24.0433C160.642 24.471 160.105 24.6848 159.355 24.6848C158.646 24.6848 158.144 24.471 157.849 24.0433C157.561 23.6157 157.418 23.0037 157.418 22.2071V16.6983C157.418 16.321 157.367 15.9856 157.266 15.6921C157.165 15.3902 157.021 15.1388 156.835 14.9375C156.658 14.7279 156.448 14.5727 156.202 14.4722C155.958 14.3631 155.696 14.3086 155.418 14.3086C155.071 14.3086 154.743 14.3631 154.431 14.4722C154.119 14.5811 153.844 14.7489 153.608 14.9752C153.38 15.2017 153.194 15.4909 153.05 15.843C152.915 16.1952 152.848 16.6187 152.848 17.1133V22.2071C152.848 23.0037 152.683 23.6157 152.355 24.0433C152.034 24.471 151.498 24.6848 150.746 24.6848C150.038 24.6848 149.535 24.471 149.24 24.0433C148.953 23.6157 148.809 23.0037 148.809 22.2071V16.9372C148.809 16.0737 148.628 15.4196 148.266 14.9752C147.911 14.5309 147.426 14.3086 146.81 14.3086C146.447 14.3086 146.109 14.3673 145.797 14.4847C145.484 14.6022 145.214 14.774 144.987 15.0004C144.759 15.2268 144.577 15.5077 144.442 15.843C144.316 16.1784 144.253 16.5642 144.253 17.0001V22.2071C144.253 23.0037 144.088 23.6157 143.759 24.0433C143.439 24.471 142.903 24.6848 142.151 24.6848C141.442 24.6848 140.94 24.471 140.645 24.0433C140.358 23.6157 140.214 23.0037 140.214 22.2071V14.5099Z" fill="black"/>
<path d="M16.2027 22.5387C12.6232 22.5387 9.72144 19.6556 9.72144 16.0992C9.72144 12.5427 12.6232 9.65967 16.2027 9.65967C19.7823 9.65967 22.684 12.5427 22.684 16.0992C22.684 19.6556 19.7823 22.5387 16.2027 22.5387Z" fill="black"/>
<path d="M3.64935 18.2986C1.77111 18.6276 0.483684 20.4303 1.20468 22.1846C2.21127 24.6338 3.81716 26.8159 5.89908 28.5211C8.87607 30.9592 12.6309 32.262 16.4884 32.1951C20.3459 32.1283 24.0527 30.696 26.9423 28.1561C28.963 26.3798 30.4913 24.1433 31.4113 21.6607C32.0702 19.8825 30.7202 18.1256 28.8315 17.8619C26.943 17.5982 25.2472 18.964 24.3144 20.6168C23.8087 21.5126 23.1523 22.3254 22.3659 23.0167C20.7079 24.4741 18.5811 25.2957 16.3679 25.3342C14.1547 25.3725 12.0003 24.6251 10.2922 23.2261C9.48196 22.5625 8.79743 21.773 8.26058 20.8952C7.27024 19.2758 5.52758 17.9695 3.64935 18.2986Z" fill="#727272"/>
<path d="M32.2813 18.1106C32.364 17.4515 32.4066 16.7801 32.4066 16.0988C32.4066 7.20767 25.1522 0 16.2033 0C7.25446 0 0 7.20767 0 16.0988C0 16.9732 0.0701603 17.8312 0.205199 18.6678C0.949448 17.6555 2.11103 16.9329 3.36571 16.7131C4.72321 16.4753 5.95696 16.8024 7.00012 17.4138C6.93849 16.9843 6.9066 16.5452 6.9066 16.0988C6.9066 10.9975 11.0689 6.86205 16.2033 6.86205C21.3377 6.86205 25.5 10.9975 25.5 16.0988C25.5 16.4351 25.4818 16.7673 25.4466 17.0943C26.4678 16.4468 27.6895 16.0769 29.0548 16.2676C30.316 16.4437 31.5019 17.1252 32.2813 18.1106Z" fill="black"/>
</g>
</svg>
