<svg width="164" height="37" viewBox="0 0 164 37" fill="none" xmlns="http://www.w3.org/2000/svg">
<g opacity="0.6">
<path d="M28.5958 15.1016C31.8256 15.1016 32.5523 16.5044 32.5523 18.2542C32.5523 20.1089 31.6733 21.4377 28.6092 21.4377C25.5646 21.4377 24.6846 20.1861 24.6846 18.2542C24.6846 16.3531 25.6438 15.1016 28.5958 15.1016Z" fill="black"/>
<path d="M62.3494 15.1016C65.5793 15.1016 66.3059 16.5044 66.3059 18.2542C66.3059 20.1089 65.4259 21.4377 62.3628 21.4377C59.3193 21.4377 58.4382 20.1861 58.4382 18.2542C58.4382 16.3531 59.3975 15.1016 62.3494 15.1016Z" fill="black"/>
<path fill-rule="evenodd" clip-rule="evenodd" d="M0 36.4905V0H163.219V36.4905H0ZM77.7898 34.432H161.16V2.05853H77.7898V34.432ZM28.6117 24.5438C34.3458 24.5438 36.7563 22.0705 36.7563 18.2077C36.7563 14.2821 34.0411 11.9487 28.6117 11.9487C23.2657 11.9487 20.4517 14.4828 20.4517 18.2077C20.4517 22.4112 23.4037 24.5438 28.6117 24.5438ZM8.67592 12.2266V24.3586H20.249V21.1277H12.863V12.2266H8.67592ZM49.7086 24.3586L49.6005 23.1832C48.1998 24.1828 46.4949 24.6639 44.7784 24.5438C42.198 24.5438 40.0489 23.7709 38.8437 22.2105C38.0487 21.0713 37.6472 19.7038 37.7001 18.3158C37.655 16.9568 38.0703 15.6225 38.8787 14.5291C40.0983 13.015 42.3092 12.0105 45.6008 12.0105C49.3874 12.0105 51.6127 13.1694 52.5699 15.1168C52.7754 15.5754 52.8961 16.0674 52.9261 16.5691H48.9202C48.8192 16.2642 48.6313 15.9956 48.3798 15.7961C47.5818 15.2671 46.6289 15.0224 45.6749 15.1014C45.1153 15.0335 44.5475 15.0852 44.0094 15.2531C43.4713 15.421 42.9749 15.7011 42.5531 16.0751C42.0741 16.7307 41.8492 17.5378 41.9201 18.3466C41.8646 19.1183 42.0713 19.8861 42.5068 20.5256C42.9324 20.9222 43.4384 21.2225 43.9903 21.4065C44.5423 21.5905 45.1272 21.6538 45.7058 21.5919C46.8547 21.6854 47.9955 21.331 48.8893 20.6028C49.0812 20.3628 49.2136 20.0805 49.2753 19.7794H44.9647V17.1723H53.031V24.3586H49.7086ZM62.3654 24.5438C68.0984 24.5438 70.51 22.0705 70.51 18.2077C70.51 14.2821 67.7906 11.9487 62.3654 11.9487C57.0194 11.9487 54.2054 14.4828 54.2054 18.2077C54.2054 22.4112 57.1574 24.5438 62.3654 24.5438Z" fill="black"/>
<path d="M84.844 24.3121V12.1802H87.8289V24.3121H84.844Z" fill="black"/>
<path d="M103.153 19.2432C102.396 20.2324 101.094 20.6842 99.259 20.6955C98.872 20.6955 93.7411 20.6801 93.7411 20.6801V24.3124H90.8201V12.1804H99.26C99.9365 12.1089 100.621 12.1806 101.267 12.3909C101.915 12.6013 102.509 12.9455 103.015 13.4011C103.682 14.27 104.006 15.3534 103.927 16.4457C103.995 17.4391 103.722 18.4261 103.153 19.2432ZM100.758 15.2878C100.449 14.8246 99.7829 14.5673 98.6559 14.5673H93.7257V18.2603H98.624C99.8292 18.2603 100.464 18.0133 100.758 17.5336C100.932 17.1957 101.007 16.8152 100.974 16.4364C100.999 16.0414 100.925 15.6463 100.758 15.2878Z" fill="black"/>
<path d="M112.535 24.4973C107.033 24.4973 105.349 22.4388 105.349 20.4019H108.47C108.47 21.4065 109.845 22.164 112.674 22.164C115.486 22.164 116.228 21.6689 116.228 20.8651C116.228 19.9686 115.672 19.6907 113.06 19.3973C112.545 19.351 111.144 19.1812 110.618 19.104C106.913 18.6861 105.487 17.5889 105.487 15.6261C105.487 13.5552 107.574 11.9949 112.102 11.9949C117.016 11.9949 118.902 13.9268 118.902 15.9359H115.814C115.814 14.9159 114.655 14.3282 111.919 14.3282C109.106 14.3282 108.504 14.7142 108.504 15.4717C108.504 16.2601 109.122 16.5072 112.107 16.8623C112.787 16.9559 114.301 17.1258 114.718 17.171C117.872 17.4953 119.293 18.6388 119.293 20.6633C119.288 23.0749 117.124 24.4973 112.535 24.4973Z" fill="black"/>
<path d="M128.084 24.4819C124.051 24.4819 121.424 22.8897 121.424 19.5415V12.1802H124.374V19.5826C124.374 21.1132 125.627 22.1321 128.207 22.1321C130.541 22.1321 131.932 21.1749 131.932 19.5826V12.1802H134.853V19.8163C134.853 22.8598 132.411 24.4819 128.084 24.4819Z" fill="black"/>
<path d="M150.848 24.3121V16.2139L147.062 24.3121H144.188L140.509 16.2139V24.3121H137.73V12.1802H141.495L145.668 21.4219L149.933 12.1802H153.639V24.3121H150.848Z" fill="black"/>
</g>
</svg>
