<svg width="163" height="37" viewBox="0 0 163 37" fill="none" xmlns="http://www.w3.org/2000/svg">
<g opacity="0.6">
<path d="M0 36.6236H36.4905V0.133057H0V36.6236ZM29.467 14.8672H21.7563V7.15659H29.467V14.8672ZM7.02211 7.15659H14.7371V21.8894H29.467V29.6H7.02211V7.15659ZM60.2527 0.133057C56.6441 0.133057 53.1165 1.20313 50.1162 3.20795C47.1157 5.21276 44.7772 8.06228 43.3963 11.3962C42.0153 14.7301 41.6541 18.3985 42.358 21.9377C43.0621 25.4769 44.7997 28.7279 47.3513 31.2796C49.9029 33.8314 53.1539 35.569 56.6932 36.273C60.2325 36.9769 63.9009 36.6157 67.2349 35.2348C70.5688 33.8538 73.4182 31.5153 75.4231 28.5148C77.4279 25.5144 78.498 21.9868 78.498 18.3783C78.4923 13.5411 76.5682 8.90364 73.1477 5.48322C69.7273 2.06278 65.09 0.138705 60.2527 0.133057ZM60.2527 29.6C58.0333 29.6 55.8636 28.9419 54.0182 27.7088C52.1729 26.4758 50.7345 24.7232 49.8852 22.6727C49.0359 20.6222 48.8136 18.3659 49.2465 16.189C49.6796 14.0122 50.7484 12.0127 52.3177 10.4433C53.8872 8.87397 55.8867 7.80521 58.0634 7.37222C60.2402 6.93922 62.4965 7.16145 64.5471 8.01079C66.5975 8.86013 68.3502 10.2985 69.5832 12.1439C70.8163 13.9892 71.4744 16.1589 71.4744 18.3783C71.4699 21.3532 70.2861 24.2048 68.1826 26.3083C66.0791 28.4118 63.2274 29.5955 60.2527 29.6ZM143.788 0.133057C140.179 0.132786 136.652 1.20261 133.651 3.20725C130.651 5.21189 128.312 8.06131 126.931 11.3952C125.55 14.729 125.188 18.3976 125.892 21.9369C126.596 25.4762 128.333 28.7274 130.885 31.2792C133.436 33.8309 136.687 35.5688 140.227 36.2729C143.765 36.9769 147.434 36.6157 150.769 35.2349C154.102 33.854 156.952 31.5154 158.956 28.515C160.962 25.5145 162.032 21.9869 162.032 18.3783C162.026 13.5414 160.103 8.90409 156.683 5.48372C153.263 2.06333 148.625 0.139089 143.788 0.133057ZM143.788 29.6C141.569 29.6003 139.399 28.9423 137.553 27.7095C135.708 26.4766 134.269 24.7241 133.42 22.6737C132.57 20.6232 132.348 18.3668 132.78 16.1899C133.213 14.0131 134.282 12.0135 135.851 10.4439C137.421 8.87433 139.421 7.80542 141.597 7.37232C143.774 6.93921 146.03 7.16135 148.08 8.01066C150.132 8.85996 151.884 10.2983 153.118 12.1438C154.35 13.9892 155.008 16.1589 155.008 18.3783C155.004 21.3529 153.821 24.2043 151.717 26.3078C149.614 28.4113 146.763 29.5952 143.788 29.6ZM102.02 0.133057C98.4111 0.133057 94.8836 1.20313 91.8832 3.20795C88.8828 5.21276 86.5442 8.06228 85.1633 11.3962C83.7823 14.7301 83.4211 18.3985 84.125 21.9377C84.8291 25.4769 86.5667 28.7279 89.1183 31.2796C91.67 33.8314 94.921 35.569 98.4602 36.273C101.999 36.9769 105.668 36.6157 109.002 35.2348C112.336 33.8538 115.185 31.5153 117.19 28.5148C119.195 25.5144 120.265 21.9868 120.265 18.3783C120.259 13.5411 118.335 8.90364 114.915 5.48322C111.494 2.06278 106.857 0.138705 102.02 0.133057ZM102.02 29.6C99.9518 29.601 97.924 29.0307 96.1598 27.9519C94.3957 26.8731 92.9639 25.328 92.0225 23.4868C91.0813 21.6457 90.6669 19.5801 90.8254 17.5185C90.9838 15.4566 91.7088 13.4788 92.9205 11.803C94.1321 10.1274 95.7832 8.81909 97.6914 8.02256C99.5997 7.22601 101.691 6.97224 103.734 7.28923C105.778 7.60624 107.694 8.48167 109.271 9.81893C110.848 11.1562 112.025 12.9033 112.672 14.8672H102.02V21.8894H112.672C111.931 24.1304 110.504 26.0814 108.591 27.4654C106.679 28.8494 104.38 29.5962 102.02 29.6Z" fill="black"/>
</g>
</svg>
