<svg width="152" height="37" viewBox="0 0 152 37" fill="none" xmlns="http://www.w3.org/2000/svg">
<g opacity="0.6" clip-path="url(#clip0_124_226)">
<path d="M46.2651 25.1762H56.928V21.9721H50.0549V9.90356H46.2651V25.1762Z" fill="black"/>
<path d="M63.2467 23.0404C61.7265 23.0404 60.9342 21.7161 60.9342 19.7296C60.9342 17.7431 61.7265 16.3974 63.2467 16.3974C64.7669 16.3974 65.5805 17.7431 65.5805 19.7296C65.5805 21.7161 64.7669 23.0404 63.2467 23.0404ZM63.2681 25.5182C66.8009 25.5182 69.1134 23.019 69.1134 19.7296C69.1134 16.4401 66.8009 13.9409 63.2681 13.9409C59.7566 13.9409 57.4014 16.4401 57.4014 19.7296C57.4014 23.019 59.7566 25.5182 63.2681 25.5182Z" fill="black"/>
<path d="M75.2268 28.9573C76.8541 28.9573 78.2886 28.5942 79.2521 27.7398C80.13 26.9495 80.7081 25.7533 80.7081 24.1085V14.2401H77.3679V15.4149H77.3251C76.6828 14.4964 75.6978 13.9197 74.2419 13.9197C71.5226 13.9197 69.6384 16.1839 69.6384 19.3879C69.6384 22.7415 71.9294 24.5785 74.3917 24.5785C75.7193 24.5785 76.5543 24.0445 77.1966 23.3182H77.2823V24.4076C77.2823 25.7319 76.6614 26.5009 75.184 26.5009C74.0278 26.5009 73.4496 26.0096 73.2569 25.4329H69.874C70.2165 27.7184 72.2078 28.9573 75.2268 28.9573ZM75.2054 21.9939C73.8993 21.9939 73.0428 20.9259 73.0428 19.2811C73.0428 17.615 73.8993 16.547 75.2054 16.547C76.6613 16.547 77.4322 17.7859 77.4322 19.2598C77.4322 20.7977 76.7256 21.9939 75.2054 21.9939Z" fill="black"/>
<path d="M87.5782 23.0404C86.058 23.0404 85.2658 21.7161 85.2658 19.7296C85.2658 17.7431 86.058 16.3974 87.5782 16.3974C89.0984 16.3974 89.912 17.7431 89.912 19.7296C89.912 21.7161 89.0984 23.0404 87.5782 23.0404ZM87.5996 25.5182C91.1325 25.5182 93.4449 23.019 93.4449 19.7296C93.4449 16.4401 91.1325 13.9409 87.5996 13.9409C84.0882 13.9409 81.7329 16.4401 81.7329 19.7296C81.7329 23.019 84.0882 25.5182 87.5996 25.5182Z" fill="black"/>
<path d="M94.4619 25.1762H97.952V14.2397H94.4619V25.1762ZM94.4619 12.7231H97.952V9.90356H94.4619V12.7231Z" fill="black"/>
<path d="M99.4685 28.7864H102.959V24.0445H103.001C103.687 24.963 104.693 25.5183 106.106 25.5183C108.975 25.5183 110.881 23.2541 110.881 19.7083C110.881 16.4188 109.104 13.9197 106.192 13.9197C104.693 13.9197 103.622 14.5818 102.873 15.5644H102.809V14.2401H99.4685V28.7864ZM105.207 22.8269C103.708 22.8269 102.851 21.6094 102.851 19.8365C102.851 18.0636 103.622 16.7179 105.143 16.7179C106.641 16.7179 107.348 17.9568 107.348 19.8365C107.348 21.6948 106.534 22.8269 105.207 22.8269Z" fill="black"/>
<path d="M116.563 25.5183C119.432 25.5183 121.552 24.2794 121.552 21.8871C121.552 19.0889 119.283 18.5976 117.356 18.2772C115.964 18.0209 114.722 17.9141 114.722 17.1451C114.722 16.4616 115.386 16.1411 116.242 16.1411C117.206 16.1411 117.869 16.4402 117.998 17.4228H121.21C121.038 15.2654 119.368 13.9197 116.264 13.9197C113.673 13.9197 111.532 15.1159 111.532 17.4228C111.532 19.986 113.566 20.4987 115.471 20.8191C116.927 21.0754 118.255 21.1822 118.255 22.1648C118.255 22.8696 117.591 23.2541 116.542 23.2541C115.386 23.2541 114.658 22.7201 114.529 21.6307H111.232C111.339 24.0445 113.352 25.5183 116.563 25.5183Z" fill="black"/>
<path d="M126.293 25.4969C127.813 25.4969 128.777 24.8988 129.569 23.8308H129.633V25.1765H132.973V14.24H129.483V20.349C129.483 21.652 128.755 22.5491 127.556 22.5491C126.443 22.5491 125.908 21.887 125.908 20.6908V14.24H122.439V21.4171C122.439 23.8521 123.766 25.4969 126.293 25.4969Z" fill="black"/>
<path d="M134.491 25.1766H137.981V19.0461C137.981 17.7432 138.623 16.8247 139.715 16.8247C140.764 16.8247 141.257 17.5082 141.257 18.683V25.1766H144.747V19.0461C144.747 17.7432 145.368 16.8247 146.481 16.8247C147.53 16.8247 148.023 17.5082 148.023 18.683V25.1766H151.513V18.0636C151.513 15.6071 150.271 13.9197 147.787 13.9197C146.374 13.9197 145.196 14.5178 144.34 15.8421H144.297C143.74 14.6673 142.648 13.9197 141.214 13.9197C139.629 13.9197 138.58 14.6673 137.895 15.7994H137.831V14.2401H134.491V25.1766Z" fill="black"/>
<path fill-rule="evenodd" clip-rule="evenodd" d="M18.4522 35.8566C28.3065 35.8566 36.295 27.8871 36.295 18.0563C36.295 8.22555 28.3065 0.256104 18.4522 0.256104C8.59785 0.256104 0.609375 8.22555 0.609375 18.0563C0.609375 27.8871 8.59785 35.8566 18.4522 35.8566ZM24.0185 8.54821C24.2895 7.58807 23.3555 7.02031 22.5025 7.62656L10.5952 16.089C9.67014 16.7465 9.81565 18.0563 10.8138 18.0563H13.9493V18.0321H20.0603L15.081 19.7848L12.8859 27.5645C12.6149 28.5247 13.5488 29.0924 14.4019 28.4861L26.3092 20.0237C27.2342 19.3662 27.0886 18.0563 26.0906 18.0563H21.3357L24.0185 8.54821Z" fill="black"/>
</g>
<defs>
<clipPath id="clip0_124_226">
<rect width="151.664" height="36.4905" fill="white" transform="translate(0 0.133057)"/>
</clipPath>
</defs>
</svg>
