<svg width="66" height="37" viewBox="0 0 66 37" fill="none" xmlns="http://www.w3.org/2000/svg">
<g opacity="0.6">
<path d="M65.6778 12.978C65.6846 12.9273 65.6846 12.876 65.6778 12.8253C65.6843 12.784 65.6843 12.7418 65.6778 12.7004L65.1912 9.1333C65.121 8.70653 64.9333 8.30766 64.6491 7.98128L64.5657 7.88411L64.4128 7.73142L55.9892 0.486145L56.2255 0.722121C56.0322 0.491156 55.7895 0.306415 55.5153 0.181506C55.2411 0.0565971 54.9422 -0.00530636 54.6409 0.00036255H52.0832C51.6673 -0.00786564 51.2608 0.124172 50.9294 0.375124C50.5814 0.125683 50.1624 -0.00567864 49.734 0.00036255H47.1763C46.8408 -0.00507185 46.51 0.0780575 46.217 0.241358C45.9241 0.404659 45.6796 0.642332 45.5083 0.930307C45.2441 1.34162 45.1449 1.83719 45.2302 2.3183L45.55 4.56682C45.3382 4.44693 45.0984 4.38473 44.8549 4.3864H32.4697C32.0253 4.38919 31.5912 4.51924 31.2186 4.76114C30.8584 4.98631 30.5692 5.30872 30.3846 5.69109L29.4255 4.87218C29.048 4.52342 28.5497 4.33438 28.0355 4.34476H8.60271C8.15677 4.35287 7.72073 4.47727 7.33781 4.70563C6.81394 5.01181 6.43001 5.50964 6.26745 6.09361L0.0956781 26.7052C-0.0196394 27.0448 -0.0309835 27.4111 0.0630988 27.7572C0.157181 28.1033 0.352429 28.4136 0.623899 28.6484C0.694636 28.7083 0.76891 28.7639 0.84631 28.8149C0.84631 28.8149 0.721187 28.7316 0.651685 28.6623L9.07536 35.9214C9.4317 36.249 9.89759 36.4321 10.3819 36.4349H29.9676C30.4149 36.4234 30.8513 36.2941 31.2326 36.0602C31.4482 35.9425 31.6412 35.7874 31.8025 35.6021L31.872 35.505L31.9832 35.3662L32.0666 35.2135L32.984 36.0047C33.3353 36.3193 33.791 36.4923 34.2628 36.4905H53.8902C54.337 36.4756 54.7725 36.3466 55.1551 36.1157C55.3659 35.9909 55.5578 35.8366 55.7251 35.6577L55.7945 35.5605L55.9057 35.4218C55.9648 35.3339 56.0161 35.2411 56.0586 35.1441C56.1041 35.06 56.1413 34.9717 56.1698 34.8804L61.7995 16.0594V15.8928C61.8064 15.8282 61.8064 15.7631 61.7995 15.6985V15.5736C61.8062 15.5322 61.8062 15.49 61.7995 15.4486C61.8058 15.3609 61.8058 15.2727 61.7995 15.1849H63.6066C63.7638 15.1993 63.922 15.1993 64.0791 15.1849H64.2043C64.306 15.1546 64.404 15.1126 64.4962 15.06H64.6353L64.8854 14.8657L64.9966 14.7824L65.1912 14.5325V14.4493L65.3302 14.2133C65.3225 14.1674 65.3225 14.1205 65.3302 14.0746C65.3228 14.052 65.3228 14.0277 65.3302 14.0051C65.3598 13.9238 65.383 13.8402 65.3997 13.7553C65.3933 13.7279 65.3933 13.6994 65.3997 13.672C65.393 13.6307 65.393 13.5884 65.3997 13.5471C65.3997 13.5471 65.6778 13.0058 65.6778 12.978Z" fill="black"/>
<path d="M28.6067 5.92684C28.6805 5.99347 28.732 6.08109 28.7544 6.17788C28.7768 6.27467 28.7689 6.37598 28.7318 6.46815L22.574 27.0659C22.4964 27.2907 22.3378 27.4787 22.1292 27.5933C21.9594 27.7067 21.7629 27.7737 21.5592 27.7876H1.98747C1.82033 27.7796 1.66198 27.7105 1.54266 27.5933C1.47167 27.5277 1.42185 27.4425 1.39957 27.3487C1.37728 27.2547 1.38356 27.1563 1.41756 27.0659L7.58933 6.46815C7.66044 6.24043 7.8141 6.0474 8.02024 5.92684C8.19281 5.82159 8.38837 5.75967 8.59016 5.7464H28.1619C28.3277 5.74799 28.4867 5.81251 28.6067 5.92684ZM18.3899 22.9158L22.0735 10.6182H11.7595L8.08973 22.9158H18.3899ZM47.2888 6.13503C47.3556 6.21252 47.4391 6.27397 47.5329 6.31482C47.6268 6.35567 47.7286 6.37487 47.831 6.37099H50.3747C50.4716 6.37193 50.567 6.34822 50.6522 6.30207C50.7374 6.25593 50.8092 6.18888 50.8612 6.10727C50.9064 6.04352 50.9383 5.97135 50.955 5.89505C50.9717 5.81876 50.9729 5.73989 50.9585 5.66313L50.4581 1.99884C50.4105 1.82925 50.3249 1.67265 50.208 1.5408C50.1411 1.46332 50.0577 1.40187 49.9638 1.36101C49.87 1.32016 49.7681 1.30097 49.6658 1.30485H47.1221C47.0252 1.30391 46.9297 1.32763 46.8445 1.37377C46.7594 1.41991 46.6875 1.48695 46.6355 1.56857C46.5382 1.76288 46.4965 1.8878 46.5382 1.99884L47.0525 5.66313C47.0789 5.84155 47.1617 6.00687 47.2888 6.13503ZM55.365 1.97108C55.3173 1.80148 55.2317 1.64488 55.1148 1.51304C55.0508 1.43584 54.9698 1.37441 54.8782 1.33348C54.7866 1.29257 54.6868 1.27326 54.5866 1.27709H52.0288C51.9336 1.27438 51.8394 1.29746 51.7562 1.34388C51.673 1.39031 51.6039 1.45836 51.5563 1.5408C51.4638 1.66394 51.4237 1.81861 51.4451 1.97108L51.9593 5.63536C51.9916 5.8119 52.0735 5.97559 52.1957 6.10727C52.2637 6.18324 52.3473 6.24366 52.4409 6.28439C52.5345 6.32511 52.6357 6.34518 52.7378 6.34322H55.2955C55.3905 6.34448 55.4841 6.32078 55.5671 6.2745C55.6501 6.22821 55.7194 6.16098 55.7681 6.07952C55.8165 6.01742 55.8502 5.94528 55.8671 5.86843C55.884 5.79158 55.8833 5.71195 55.8654 5.63536L55.365 1.97108ZM45.0509 7.52302L44.8006 5.71864H32.471C32.2774 5.72929 32.0902 5.79161 31.9289 5.89907C31.8265 5.95482 31.7374 6.03209 31.6678 6.12554C31.5983 6.219 31.5498 6.32641 31.5258 6.44039L30.4972 9.88257C30.4561 9.96859 30.4421 10.0651 30.4569 10.1593C30.4719 10.2534 30.515 10.3408 30.5805 10.41C30.6978 10.5201 30.8508 10.5842 31.0115 10.5905H45.9961L42.3125 22.8881H27.3696C27.1769 22.8924 26.9892 22.9501 26.8275 23.0545C26.6309 23.1792 26.4873 23.372 26.4244 23.5959L25.3818 27.0381C25.3478 27.1264 25.3389 27.2224 25.356 27.3154C25.3733 27.4086 25.4158 27.4951 25.4791 27.5655C25.5927 27.6829 25.7468 27.7524 25.91 27.7598H45.5374C45.7403 27.7424 45.936 27.6757 46.1073 27.5655C46.3125 27.4504 46.4665 27.262 46.5382 27.0381L52.1817 8.21701H45.8293C45.7285 8.21899 45.6284 8.20031 45.5352 8.16211C45.4419 8.12392 45.3576 8.067 45.2872 7.99492C45.1723 7.86906 45.091 7.71631 45.0509 7.55078V7.52302Z" fill="white"/>
</g>
</svg>
