<svg width="163" height="37" viewBox="0 0 163 37" fill="none" xmlns="http://www.w3.org/2000/svg">
<g opacity="0.6">
<path d="M16.7456 5.31112V0H0V36.4905H16.7456V31.1794C13.3153 31.1794 10.0254 29.8166 7.59982 27.391C5.1742 24.9654 3.81151 21.6756 3.81151 18.2453C3.81151 14.8149 5.1742 11.525 7.59982 9.09944C10.0254 6.67383 13.3153 5.31112 16.7456 5.31112Z" fill="black"/>
<path d="M16.7449 5.31152V31.1798C20.1752 31.1798 23.4651 29.817 25.8907 27.3914C28.3164 24.9658 29.679 21.676 29.679 18.2457C29.679 14.8153 28.3164 11.5254 25.8907 9.09985C23.4651 6.67423 20.1752 5.31152 16.7449 5.31152Z" fill="black"/>
<path d="M39.0774 8.56055H42.8264V26.6183H39.0774V8.56055Z" fill="black"/>
<path d="M44.9259 20.4327C44.9259 19.1336 45.3117 17.8636 46.0342 16.7839C46.7568 15.7042 47.7836 14.8633 48.9847 14.3678C50.1858 13.8724 51.5068 13.7447 52.7805 14.0009C54.0541 14.2571 55.2231 14.8857 56.1391 15.8069C57.0551 16.7283 57.6771 17.9008 57.926 19.1759C58.1748 20.4511 58.0396 21.7714 57.5372 22.9696C57.0349 24.1676 56.1882 25.1897 55.1044 25.906C54.0205 26.6225 52.7483 27.0009 51.4492 26.9935C50.5875 27.0003 49.7331 26.8349 48.9362 26.507C48.1393 26.1792 47.4157 25.6956 46.8081 25.0846C46.2005 24.4735 45.7212 23.7472 45.3979 22.9484C45.0747 22.1497 44.9143 21.2944 44.9259 20.4327ZM54.3234 20.4327C54.3087 19.8726 54.1291 19.3293 53.8072 18.8708C53.4853 18.4121 53.0354 18.0586 52.5135 17.8544C51.9918 17.6502 51.4214 17.6043 50.8738 17.7227C50.3261 17.8409 49.8255 18.118 49.4345 18.5193C49.0434 18.9206 48.7794 19.4282 48.6754 19.9788C48.5714 20.5294 48.632 21.0984 48.8497 21.6147C49.0674 22.1309 49.4325 22.5717 49.8993 22.8815C50.3661 23.1914 50.9138 23.3567 51.4742 23.357C51.8557 23.3645 52.2346 23.2931 52.5873 23.1474C52.9399 23.0018 53.2587 22.785 53.5238 22.5106C53.7888 22.2361 53.9944 21.9098 54.1277 21.5524C54.2611 21.1949 54.3192 20.8137 54.2984 20.4327H54.3234Z" fill="black"/>
<path d="M72.804 14.2464V26.0058C72.804 30.1548 69.5549 31.9168 66.2682 31.9168C65.1089 32.0119 63.9461 31.7816 62.9107 31.2517C61.8752 30.7219 61.0082 29.9134 60.4072 28.9176L63.5689 27.0931C63.8251 27.6097 64.2326 28.0358 64.7372 28.3149C65.2419 28.5939 65.8195 28.7126 66.3932 28.6551C66.7587 28.7001 67.1296 28.6639 67.4794 28.5489C67.8293 28.4338 68.1494 28.243 68.4168 27.9898C68.6843 27.7366 68.8925 27.4276 69.0266 27.0846C69.1607 26.7416 69.2173 26.3732 69.1925 26.0058V24.8686C68.7562 25.3976 68.2026 25.8175 67.5758 26.0952C66.9488 26.3729 66.2658 26.5006 65.5809 26.4682C63.9237 26.4682 62.3345 25.8099 61.1627 24.6381C59.9908 23.4664 59.3325 21.877 59.3325 20.2198C59.3325 18.5627 59.9908 16.9734 61.1627 15.8016C62.3345 14.6298 63.9237 13.9715 65.5809 13.9715C66.2658 13.9391 66.9488 14.0668 67.5758 14.3445C68.2026 14.6222 68.7562 15.0421 69.1925 15.5711V14.3214L72.804 14.2464ZM69.1925 20.1824C69.2173 19.5845 69.0629 18.9928 68.7488 18.4834C68.4348 17.9741 67.9756 17.5703 67.4302 17.324C66.8848 17.0777 66.2783 17.0002 65.6885 17.1014C65.0988 17.2026 64.5527 17.4779 64.1206 17.8919C63.6886 18.306 63.3903 18.8398 63.2641 19.4248C63.1379 20.0098 63.1895 20.619 63.4123 21.1743C63.6353 21.7297 64.0192 22.2057 64.5147 22.5411C65.0103 22.8765 65.5949 23.0561 66.1932 23.0566C66.5838 23.0847 66.9758 23.0306 67.3439 22.8979C67.7122 22.7651 68.0486 22.5565 68.3312 22.2856C68.6139 22.0148 68.8365 21.6876 68.9849 21.3253C69.1332 20.963 69.2039 20.5736 69.1925 20.1824Z" fill="black"/>
<path d="M74.9199 20.4329C74.9199 19.1347 75.305 17.8658 76.0265 16.7866C76.7479 15.7074 77.7733 14.8665 78.9728 14.3703C80.1724 13.8741 81.4922 13.7449 82.7652 13.9991C84.0382 14.2532 85.2072 14.8793 86.1243 15.7981C87.0413 16.717 87.6652 17.8872 87.9169 19.1606C88.1687 20.4341 88.037 21.7537 87.5385 22.9522C87.04 24.1509 86.1971 25.1747 85.1166 25.8941C84.036 26.6135 82.7663 26.9962 81.4682 26.9937C80.6049 27.002 79.7485 26.838 78.9494 26.5111C78.1504 26.1841 77.4246 25.701 76.8148 25.0899C76.2048 24.4788 75.723 23.7521 75.3976 22.9525C75.0723 22.1528 74.9099 21.2962 74.9199 20.4329ZM84.3174 20.4329C84.3027 19.8723 84.1227 19.3284 83.8003 18.8695C83.4779 18.4108 83.0271 18.0573 82.5046 17.8534C81.9822 17.6496 81.4112 17.6045 80.8632 17.7238C80.3152 17.8431 79.8146 18.1215 79.4241 18.524C79.0335 18.9265 78.7705 19.4354 78.668 19.9868C78.5654 20.5381 78.6278 21.1075 78.8473 21.6235C79.0669 22.1396 79.4339 22.5793 79.9024 22.8877C80.3708 23.196 80.9198 23.3594 81.4807 23.3571C81.8622 23.3646 82.2411 23.2933 82.5937 23.1476C82.9464 23.002 83.2652 22.7851 83.5303 22.5107C83.7953 22.2363 84.0009 21.91 84.1342 21.5526C84.2676 21.1951 84.3257 20.8139 84.3049 20.4329H84.3174Z" fill="black"/>
<path d="M89.7507 10.9346C89.7507 10.4947 89.8812 10.0646 90.1256 9.69883C90.3701 9.333 90.7175 9.0479 91.1239 8.87953C91.5304 8.71117 91.9776 8.66712 92.4092 8.75295C92.8405 8.83877 93.2369 9.05063 93.5481 9.36173C93.8592 9.67283 94.071 10.0692 94.1568 10.5006C94.2427 10.9321 94.1986 11.3794 94.0302 11.7859C93.8619 12.1923 93.5767 12.5397 93.211 12.7841C92.8452 13.0286 92.4152 13.1591 91.9752 13.1591C91.3872 13.1526 90.8252 12.9161 90.4094 12.5003C89.9937 12.0846 89.7572 11.5226 89.7507 10.9346ZM90.1131 14.2463H93.8622V26.618H90.1131V14.2463Z" fill="black"/>
<path d="M109.909 20.4326C109.951 21.2554 109.83 22.0785 109.553 22.8543C109.276 23.6301 108.848 24.3434 108.294 24.9531C107.74 25.5629 107.07 26.057 106.325 26.4072C105.579 26.7574 104.771 26.9566 103.948 26.9934C103.25 27.0399 102.55 26.9281 101.901 26.6663C101.252 26.4043 100.67 25.9993 100.199 25.4813V31.5922H96.4502V14.2468H100.199V15.4089C100.671 14.8925 101.253 14.4893 101.902 14.2296C102.551 13.9698 103.251 13.8604 103.948 13.9093C104.768 13.9462 105.572 14.1443 106.316 14.4921C107.059 14.8398 107.726 15.3307 108.28 15.9364C108.833 16.5422 109.262 17.251 109.542 18.0225C109.821 18.7939 109.946 19.6129 109.909 20.4326ZM106.16 20.4326C106.145 19.8522 105.96 19.2891 105.626 18.8138C105.293 18.3386 104.826 17.9722 104.286 17.7608C103.745 17.5494 103.154 17.5024 102.586 17.6255C102.019 17.7486 101.501 18.0365 101.096 18.453C100.692 18.8695 100.419 19.3962 100.313 19.967C100.206 20.5377 100.271 21.1272 100.498 21.6616C100.725 22.1958 101.105 22.6512 101.59 22.9706C102.074 23.29 102.643 23.4591 103.223 23.4569C103.621 23.4737 104.018 23.4064 104.388 23.2592C104.758 23.1119 105.092 22.8883 105.369 22.6027C105.647 22.3171 105.86 21.9761 105.997 21.6022C106.133 21.2282 106.189 20.8297 106.16 20.4326Z" fill="black"/>
<path d="M121.319 22.9067C121.319 25.7559 118.82 26.9681 116.17 26.9681C115.09 27.0653 114.005 26.8363 113.056 26.3105C112.107 25.7848 111.337 24.9865 110.847 24.0189L114.071 22.1943C114.199 22.6402 114.475 23.0288 114.855 23.2949C115.235 23.5611 115.695 23.6887 116.158 23.6565C117.045 23.6565 117.495 23.3815 117.495 22.8817C117.495 21.5195 111.409 22.2443 111.409 17.958C111.409 15.2587 113.683 13.909 116.258 13.909C117.236 13.8651 118.209 14.0872 119.071 14.5515C119.933 15.0157 120.654 15.7049 121.156 16.5458L117.932 18.2454C117.79 17.923 117.557 17.6488 117.262 17.4558C116.967 17.2629 116.623 17.1595 116.27 17.1582C115.62 17.1582 115.233 17.4081 115.233 17.8455C115.233 19.2701 121.319 18.3329 121.319 22.9067Z" fill="black"/>
<path d="M134.901 14.2463V26.6181H131.152V25.4559C130.725 25.9704 130.184 26.3774 129.573 26.6445C128.961 26.9115 128.295 27.0309 127.628 26.993C125.128 26.993 122.991 25.206 122.991 21.8694V14.2463H126.74V21.307C126.71 21.6022 126.745 21.9002 126.843 22.1806C126.94 22.4609 127.096 22.7169 127.301 22.9308C127.508 23.1446 127.757 23.3114 128.034 23.4194C128.31 23.5274 128.606 23.5742 128.902 23.5564C130.252 23.5564 131.202 22.7566 131.202 21.0571V14.2463H134.901Z" fill="black"/>
<path d="M156.147 19.0199V26.6179H152.398V19.3448C152.398 18.0951 151.811 17.3203 150.624 17.3203C149.436 17.3203 148.687 18.1826 148.687 19.6447V26.6179H144.938V19.3448C144.938 18.0951 144.35 17.3203 143.163 17.3203C141.976 17.3203 141.226 18.1826 141.226 19.6447V26.6179H137.477V14.2461H141.226V15.3833C141.615 14.881 142.121 14.4831 142.702 14.2256C143.282 13.9682 143.918 13.8592 144.55 13.9087C145.184 13.8756 145.816 14.0081 146.383 14.2929C146.951 14.5777 147.434 15.0052 147.787 15.5333C148.199 14.9814 148.744 14.5431 149.371 14.259C149.998 13.9748 150.687 13.8544 151.373 13.9087C154.298 13.9087 156.147 15.9332 156.147 19.0199Z" fill="black"/>
<path d="M159.295 14.1717C160.813 14.1717 162.044 12.9407 162.044 11.4224C162.044 9.90403 160.813 8.6731 159.295 8.6731C157.776 8.6731 156.545 9.90403 156.545 11.4224C156.545 12.9407 157.776 14.1717 159.295 14.1717Z" fill="black"/>
</g>
</svg>
