<svg width="160" height="37" viewBox="0 0 160 37" fill="none" xmlns="http://www.w3.org/2000/svg">
<g opacity="0.6">
<path d="M155.444 7.12478L159.252 10.9587C159.385 11.0646 159.484 11.2076 159.535 11.3695C159.612 12.3131 158.898 12.3648 158.168 12.4175C157.852 12.4403 157.534 12.4634 157.276 12.559C155.995 12.9056 154.853 13.6376 154.004 14.6556C153.153 15.6737 152.638 16.9286 152.526 18.25C152.444 18.4026 152.32 18.5282 152.167 18.6117C152.016 18.6952 151.843 18.733 151.67 18.7207C151.469 18.7029 151.281 18.615 151.139 18.4725L149.889 17.2141C149.898 17.3002 149.898 17.3855 149.898 17.4541V18.2842C149.898 18.3366 149.9 18.3872 149.894 18.4376C149.886 18.4942 149.867 18.5505 149.822 18.6093V18.6864C149.822 18.7257 149.826 18.7623 149.831 18.7994C149.84 18.8754 149.85 18.9537 149.822 19.063C149.794 19.1649 149.792 19.2837 149.788 19.3898C149.787 19.4529 149.785 19.5114 149.779 19.5592C149.77 19.6256 149.77 19.6964 149.764 19.7671C149.759 19.8333 149.748 19.8994 149.719 19.9615C149.679 20.0483 149.665 20.1312 149.661 20.2155C149.659 20.2558 149.659 20.2964 149.659 20.338L149.607 20.6033L147.665 29.8629L147.511 30.556L147.451 31.5659L146.595 35.9389L146.458 36.6236H77.2001L76.8663 36.2898L76.8063 36.5808H69.3953L65.2704 32.4303L65.664 30.556H63.3363L61.8901 29.0927C60.0952 30.3997 57.9227 31.0848 55.7028 31.0439C53.3165 31.1378 50.9901 30.2822 49.2331 28.6648L46.9824 26.397L46.4946 28.6733C46.4347 28.9985 46.3576 29.3067 46.2721 29.6062L46.1951 29.8886L46.0667 30.2993C46.0561 30.335 46.0418 30.3695 46.0239 30.402C45.8965 30.7793 45.7451 31.1481 45.5704 31.506C45.5749 31.5198 45.5749 31.5349 45.5704 31.5487C45.5479 31.5962 45.5222 31.6419 45.4933 31.6857C45.3641 31.9414 45.2213 32.1899 45.0654 32.4303C45.0365 32.474 45.0108 32.5198 44.9884 32.5672L44.8943 32.6698C44.6851 32.9699 44.4564 33.2557 44.2096 33.5256C44.1419 33.5933 44.0742 33.6569 44.0055 33.7193C43.9352 33.7831 43.8639 33.8458 43.7903 33.9107L43.6021 34.0904C43.4834 34.189 43.362 34.2842 43.238 34.3758C43.1357 34.4515 43.0317 34.5246 42.926 34.5953C41.1623 35.6403 39.1279 36.1377 37.081 36.0245C34.2569 36.0245 31.9976 35.2029 30.5685 33.7653L26.5463 29.7174C24.9397 30.6265 23.1206 31.0932 21.2747 31.0695C18.8956 31.1432 16.5833 30.276 14.8392 28.6562L12.5886 26.3884L11.8611 29.8886L11.7156 30.5817H4.142L0 26.4055L0.213945 25.3957L4.76671 3.53049L4.9036 2.84587H12.5029L12.6998 3.03417V2.84587H63.9012L64.0895 3.03417V2.84587H71.5005L75.6425 7.02208L75.4371 8.02334L75.2146 9.11875H77.3455L77.6793 9.45255C78.6169 8.90304 79.6819 8.60802 80.7686 8.59675C81.5678 8.58097 82.3614 8.73276 83.0983 9.04229C83.8353 9.35184 84.4993 9.81216 85.0475 10.3938L84.9362 10.2655L86.9473 12.2937C88.1711 9.9917 90.9181 8.59675 94.6491 8.59675C97.5419 8.59675 99.6729 9.33268 100.965 10.6677L102.42 12.1311L102.908 9.77768L103.053 9.09305H110.472L112.595 11.224L112.894 9.78626L113.04 9.10162H127.64L128.033 9.49534C129.022 8.91182 130.154 8.61544 131.303 8.63952C131.993 8.61257 132.681 8.73902 133.318 9.0098C133.954 9.28059 134.522 9.68901 134.982 10.2056C134.958 10.1787 134.936 10.1518 134.913 10.1253C134.872 10.0763 134.831 10.0284 134.787 9.98404L135.53 10.7276C136.178 10.0568 136.957 9.52562 137.817 9.1666C138.679 8.80755 139.604 8.62814 140.536 8.63952C141.031 8.60907 141.526 8.65122 142.006 8.76336L141.195 7.94634C141.085 7.82825 141.01 7.68131 140.98 7.52258C140.95 7.36384 140.966 7.19973 141.024 7.04935C141.083 6.89892 141.184 6.76834 141.314 6.67265C141.445 6.57696 141.599 6.52007 141.76 6.50863H142.411C142.586 6.49192 142.76 6.46622 142.932 6.43159C143.842 6.24042 144.698 5.84951 145.438 5.28707C146.178 4.72469 146.784 4.00486 147.212 3.17964C147.249 3.11581 147.283 3.05015 147.314 2.98282V2.94004C147.609 2.3062 147.787 1.62535 147.845 0.928929C147.86 0.712529 147.957 0.509918 148.116 0.362204C148.275 0.214438 148.484 0.132537 148.701 0.133059H148.769C148.899 0.145386 149.025 0.187277 149.136 0.255492C149.247 0.323761 149.341 0.416526 149.411 0.526737C150.027 1.12579 153.45 4.60877 153.45 4.60877C153.735 4.91548 153.714 5.31366 153.693 5.71652C153.679 5.96563 153.665 6.21655 153.724 6.44872C153.88 6.47667 154.037 6.49782 154.194 6.51214C154.346 6.52577 154.497 6.53318 154.649 6.53429C154.826 6.53799 154.998 6.5968 155.14 6.70263C155.283 6.8084 155.389 6.95596 155.444 7.12478Z" fill="black"/>
<path d="M39.1694 9.93989H44.578L41.5485 24.3084C40.9923 27.0298 39.9311 28.5874 38.3222 29.6913C36.6949 30.6356 34.8263 31.0819 32.948 30.9749C29.3708 30.9749 25.9391 29.4774 25.5968 25.8403H31.0395C31.2107 26.6961 31.9981 27.1839 33.1961 27.1839C34.8136 27.1839 35.5581 26.2083 35.8919 24.6764L36.217 23.0932H36.0972C35.6196 23.6182 35.0404 24.0406 34.3946 24.3348C33.7487 24.629 33.0499 24.7889 32.3403 24.8048C29.1911 24.8048 26.6921 22.2973 26.7435 18.626C26.812 14.3471 29.6018 9.48632 34.283 9.48632C35.1701 9.42656 36.0557 9.62206 36.8352 10.0497C37.6148 10.4773 38.2554 11.1193 38.6817 11.8996H38.7758L39.1694 9.93989ZM34.5226 20.7912C36.6021 20.7912 37.7574 18.395 37.7916 16.3326C37.7916 14.9548 37.2525 13.5427 35.6608 13.5427C33.487 13.5427 32.3831 15.9646 32.3489 18.0441C32.3489 19.4476 32.8881 20.7912 34.4798 20.7912M95.2407 21.2533C95.2407 22.169 94.4525 22.537 93.4171 22.537C91.7057 22.537 91.1325 21.6812 91.1239 20.4831H85.7411C85.6469 24.9503 89.6349 26.0542 93.178 26.0542C97.7047 26.0542 100.64 24.0945 100.701 20.1836C100.701 17.0599 98.0386 16.1101 95.4204 15.5024C93.4088 15.0404 92.5276 14.7066 92.5358 13.9449C92.5449 13.1833 93.4435 12.8752 94.3248 12.8752C95.4286 12.8752 96.1812 13.2688 96.2588 14.2787H101.488C101.428 10.5475 98.0641 9.45211 94.6413 9.45211C90.4821 9.45211 87.2387 11.3433 87.1873 14.9205C87.1873 17.736 89.0872 18.7715 91.9538 19.5075C93.7938 19.9953 95.2571 20.1493 95.2407 21.2533ZM135.231 12.259H135.137C134.904 11.4163 134.39 10.6786 133.68 10.168C132.97 9.65746 132.107 9.40485 131.234 9.45211C128.907 9.45211 127.486 10.6074 126.143 12.3532H126.049L126.545 9.93989H121.101L117.841 25.5322H123.533L125.244 17.1199C125.637 15.2885 126.571 14.0048 127.983 14.0048C129.395 14.0048 129.583 15.1344 129.292 16.5123L127.409 25.5322H133.1L134.812 17.1199C135.205 15.1687 136.138 14.0048 137.55 14.0048C138.962 14.0048 139.151 15.0746 138.86 16.5123L136.977 25.5322H142.667L144.704 16.2641C145.56 12.3532 144.251 9.41781 140.494 9.41781C139.449 9.41352 138.42 9.67132 137.5 10.1677C136.581 10.664 135.801 11.3831 135.231 12.259ZM1.04443 25.5322H6.92365L11.4678 3.66699H5.59719L1.04443 25.5322ZM18.742 9.47774C22.7128 9.47774 26.5039 11.6514 26.444 16.5721C26.3927 21.955 22.7299 25.9858 17.1331 25.9858C13.2821 25.9858 9.43113 23.8463 9.49955 18.9512C9.59369 13.6968 13.2051 9.47774 18.742 9.47774ZM17.2957 22.169C19.8032 22.169 20.7188 18.5319 20.7188 16.3924C20.7188 14.8606 20.2482 13.363 18.5965 13.363C16.1147 13.363 15.2675 17.214 15.2675 19.1995C15.2675 20.7912 15.7125 22.169 17.33 22.169M13.4276 3.66699L12.5718 8.04003H61.9418L62.7976 3.66699H13.4276ZM53.1358 9.47774C57.1066 9.47774 60.8977 11.6514 60.8379 16.5721C60.7865 21.955 57.1152 25.9858 51.5184 25.9858C47.6673 25.9858 43.8163 23.8463 43.8934 18.9512C44.0132 13.6968 47.6246 9.47774 53.1358 9.47774ZM51.7152 22.169C54.2227 22.169 55.1383 18.5319 55.1383 16.3924C55.1383 14.8606 54.6591 13.363 53.0075 13.363C50.5342 13.363 49.6784 17.214 49.6784 19.1995C49.6784 20.7912 50.1234 22.169 51.7495 22.169M64.8172 3.66699L63.9615 8.04003H69.6439L70.4996 3.66699H64.8172ZM60.2645 25.5322H65.9554L69.2159 9.93989H63.4907L60.2645 25.5322ZM78.4241 26.0542C77.5184 26.1185 76.6126 25.9292 75.8084 25.5075C75.0042 25.0857 74.3334 24.4482 73.8714 23.6666H73.7772L72.0657 31.5569H66.3062L70.9275 9.93989H76.336L75.9082 12.0194C76.473 11.2513 77.2046 10.6212 78.048 10.1764C78.8914 9.73181 79.8246 9.48413 80.7776 9.45211C84.2006 9.45211 86.2117 12.3874 86.1519 16.2042C86.0748 21.0051 83.5845 26.0542 78.3899 26.0542H78.4241ZM78.2016 13.8679C76.0023 13.8679 74.6502 16.6834 74.616 18.8486C74.616 20.3547 75.1465 22.032 76.9522 22.032C79.3056 22.032 80.2726 18.917 80.2983 16.8374C80.2983 15.4254 79.8876 13.8679 78.2016 13.8679ZM111.107 23.0761H111.201L110.704 25.5494H116.112L119.374 9.95695H113.691L111.877 18.6688C111.509 20.4745 110.396 21.4245 108.993 21.4245C107.589 21.4245 107.281 20.1065 107.564 18.7287L109.404 9.95695H103.721L101.71 19.5845C100.854 23.7778 102.805 26.0371 106.075 26.0371C107.101 26.0271 108.107 25.7466 108.99 25.2237C109.873 24.7008 110.604 23.9541 111.107 23.059V23.0761ZM141.632 31.634L142.488 27.2608H75.001L74.1452 31.634H141.632Z" fill="white"/>
<path d="M147.749 14.2197C147.693 14.2155 147.639 14.2 147.589 14.1744C147.537 14.1489 147.493 14.1136 147.456 14.0706C147.42 14.0276 147.392 13.9779 147.375 13.9242C147.358 13.8704 147.351 13.8139 147.356 13.7576C147.427 12.9955 147.337 12.2268 147.09 11.5021C146.844 10.7774 146.447 10.1128 145.925 9.55216C145.405 8.99144 144.771 8.54715 144.066 8.24839C143.361 7.94963 142.601 7.80314 141.836 7.81852C141.723 7.81852 141.614 7.77344 141.534 7.69319C141.454 7.61295 141.408 7.50411 141.408 7.39062C141.408 7.27714 141.454 7.16831 141.534 7.08807C141.614 7.00782 141.723 6.96273 141.836 6.96273C142.041 6.976 142.247 6.976 142.453 6.96273C143.972 6.8008 145.388 6.11406 146.456 5.02068C147.526 3.92731 148.179 2.49569 148.306 0.972267C148.315 0.864818 148.363 0.764591 148.442 0.691607C148.522 0.618625 148.626 0.57827 148.733 0.578615C148.79 0.582935 148.845 0.598341 148.895 0.62394C148.945 0.649539 148.99 0.684828 149.026 0.727779C149.064 0.77073 149.091 0.82049 149.108 0.8742C149.126 0.927911 149.132 0.984504 149.128 1.04073C149.056 1.80216 149.147 2.57006 149.392 3.2942C149.638 4.01832 150.034 4.68239 150.554 5.24297C151.075 5.80355 151.707 6.24802 152.411 6.54733C153.115 6.84663 153.874 6.99402 154.638 6.97985C154.752 6.97985 154.861 7.02494 154.941 7.10518C155.022 7.18543 155.066 7.29426 155.066 7.40775C155.066 7.52123 155.022 7.63007 154.941 7.71032C154.861 7.79056 154.752 7.83563 154.638 7.83563C153.013 7.86249 151.454 8.4888 150.261 9.59439C149.069 10.7 148.327 12.2069 148.178 13.8261C148.169 13.9336 148.12 14.0338 148.041 14.1068C147.962 14.1798 147.858 14.2201 147.749 14.2197Z" fill="white"/>
</g>
</svg>
