<svg width="95" height="37" viewBox="0 0 95 37" fill="none" xmlns="http://www.w3.org/2000/svg">
<g opacity="0.6">
<path d="M22.5204 0C18.8152 0 15.2619 1.47185 12.642 4.09175L4.09175 12.642C1.47185 15.2619 0 18.8152 0 22.5204C0 30.2359 6.25464 36.4905 13.9701 36.4905C17.6753 36.4905 21.2286 35.0186 23.8485 32.3987L29.7628 26.4845C29.7628 26.4843 29.7629 26.4846 29.7628 26.4845L46.9949 9.25229C48.2462 8.00104 49.9432 7.2981 51.7128 7.2981C54.6753 7.2981 57.187 9.22895 58.0577 11.9009L63.4962 6.46242C61.0152 2.57664 56.6649 0 51.7128 0C48.0077 0 44.4543 1.47185 41.8344 4.09175L18.688 27.2382C17.4367 28.4895 15.7397 29.1924 13.9701 29.1924C10.2853 29.1924 7.2981 26.2053 7.2981 22.5204C7.2981 20.7508 8.00104 19.0538 9.25229 17.8025L17.8025 9.25229C19.0538 8.00104 20.7508 7.2981 22.5204 7.2981C25.483 7.2981 27.9945 9.22904 28.8653 11.901L34.3039 6.46255C31.8229 2.57672 27.4726 0 22.5204 0Z" fill="black"/>
<path d="M47.8809 27.2382C46.6296 28.4895 44.9326 29.1924 43.163 29.1924C40.2009 29.1924 37.6895 27.2621 36.8184 24.5906L31.3801 30.0289C33.8612 33.9142 38.2113 36.4905 43.163 36.4905C46.8682 36.4905 50.4215 35.0186 53.0414 32.3987L76.1878 9.25229C77.4391 8.00104 79.1361 7.2981 80.9057 7.2981C84.5906 7.2981 87.5777 10.2853 87.5777 13.9701C87.5777 15.7397 86.8748 17.4367 85.6235 18.688L77.0733 27.2382C75.822 28.4895 74.125 29.1924 72.3554 29.1924C69.393 29.1924 66.8815 27.2617 66.0106 24.59L60.5723 30.0284C63.0533 33.914 67.4034 36.4905 72.3554 36.4905C76.0606 36.4905 79.6139 35.0186 82.2338 32.3987L90.784 23.8485C93.4039 21.2286 94.8758 17.6753 94.8758 13.9701C94.8758 6.25464 88.6212 0 80.9057 0C77.2005 0 73.6472 1.47185 71.0273 4.09175L47.8809 27.2382Z" fill="black"/>
</g>
</svg>
