<svg width="151" height="37" viewBox="0 0 151 37" fill="none" xmlns="http://www.w3.org/2000/svg">
<g opacity="0.6">
<path d="M45.4031 26.0983H55.9858V22.8943H49.1644V10.8257H45.4031V26.0983Z" fill="black"/>
<path d="M62.2547 23.962C60.7459 23.962 59.9597 22.6377 59.9597 20.6512C59.9597 18.6647 60.7459 17.319 62.2547 17.319C63.7635 17.319 64.571 18.6647 64.571 20.6512C64.571 22.6377 63.7635 23.962 62.2547 23.962ZM62.276 26.4398C65.7823 26.4398 68.0773 23.9407 68.0773 20.6512C68.0773 17.3617 65.7823 14.8625 62.276 14.8625C58.7909 14.8625 56.4534 17.3617 56.4534 20.6512C56.4534 23.9407 58.7909 26.4398 62.276 26.4398Z" fill="black"/>
<path d="M74.1479 29.879C75.7629 29.879 77.1867 29.5158 78.143 28.6614C79.0142 27.8711 79.588 26.6749 79.588 25.0302V15.1617H76.2729V16.3365H76.2304C75.5929 15.418 74.6154 14.8413 73.1704 14.8413C70.4716 14.8413 68.6016 17.1055 68.6016 20.3095C68.6016 23.6631 70.8754 25.5001 73.3191 25.5001C74.6367 25.5001 75.4654 24.9661 76.1029 24.2398H76.1879V25.3292C76.1879 26.6536 75.5717 27.4225 74.1054 27.4225C72.9579 27.4225 72.3841 26.9312 72.1929 26.3545H68.8353C69.1753 28.6401 71.1516 29.879 74.1479 29.879ZM74.1267 22.9155C72.8304 22.9155 71.9804 21.8475 71.9804 20.2027C71.9804 18.5366 72.8304 17.4686 74.1267 17.4686C75.5717 17.4686 76.3367 18.7075 76.3367 20.1814C76.3367 21.7193 75.6354 22.9155 74.1267 22.9155Z" fill="black"/>
<path d="M86.4049 23.962C84.8961 23.962 84.1098 22.6377 84.1098 20.6512C84.1098 18.6647 84.8961 17.319 86.4049 17.319C87.9136 17.319 88.7208 18.6647 88.7208 20.6512C88.7208 22.6377 87.9136 23.962 86.4049 23.962ZM86.4261 26.4398C89.9321 26.4398 92.2271 23.9407 92.2271 20.6512C92.2271 17.3617 89.9321 14.8625 86.4261 14.8625C82.9411 14.8625 80.6035 17.3617 80.6035 20.6512C80.6035 23.9407 82.9411 26.4398 86.4261 26.4398Z" fill="black"/>
<path d="M93.2363 26.0978H96.7001V15.1613H93.2363V26.0978ZM93.2363 13.6448H96.7001V10.8252H93.2363V13.6448Z" fill="black"/>
<path d="M98.2041 29.7081H101.668V24.9661H101.71C102.39 25.8846 103.389 26.44 104.792 26.44C107.639 26.44 109.531 24.1758 109.531 20.6299C109.531 17.3405 107.767 14.8413 104.877 14.8413C103.389 14.8413 102.327 15.5035 101.583 16.4861H101.519V15.1617H98.2041V29.7081ZM103.899 23.7486C102.412 23.7486 101.562 22.531 101.562 20.7581C101.562 18.9852 102.327 17.6395 103.835 17.6395C105.323 17.6395 106.024 18.8784 106.024 20.7581C106.024 22.6165 105.217 23.7486 103.899 23.7486Z" fill="black"/>
<path d="M115.169 26.4399C118.017 26.4399 120.121 25.2011 120.121 22.8087C120.121 20.0105 117.868 19.5192 115.956 19.1988C114.574 18.9425 113.342 18.8357 113.342 18.0667C113.342 17.3832 114.001 17.0628 114.851 17.0628C115.807 17.0628 116.466 17.3618 116.593 18.3444H119.781C119.611 16.187 117.953 14.8413 114.872 14.8413C112.3 14.8413 110.175 16.0375 110.175 18.3444C110.175 20.9076 112.194 21.4203 114.086 21.7407C115.531 21.997 116.848 22.1038 116.848 23.0864C116.848 23.7913 116.189 24.1758 115.148 24.1758C114.001 24.1758 113.278 23.6418 113.15 22.5524H109.878C109.984 24.9661 111.982 26.4399 115.169 26.4399Z" fill="black"/>
<path d="M124.828 26.4185C126.337 26.4185 127.293 25.8204 128.08 24.7524H128.143V26.0981H131.458V15.1616H127.995V21.2707C127.995 22.5736 127.272 23.4708 126.082 23.4708C124.977 23.4708 124.446 22.8086 124.446 21.6124V15.1616H121.003V22.3387C121.003 24.7738 122.321 26.4185 124.828 26.4185Z" fill="black"/>
<path d="M132.962 26.0982H136.426V19.9678C136.426 18.6648 137.063 17.7463 138.147 17.7463C139.189 17.7463 139.677 18.4298 139.677 19.6047V26.0982H143.141V19.9678C143.141 18.6648 143.757 17.7463 144.862 17.7463C145.904 17.7463 146.392 18.4298 146.392 19.6047V26.0982H149.856V18.9852C149.856 16.5288 148.624 14.8413 146.159 14.8413C144.756 14.8413 143.587 15.4394 142.737 16.7637H142.695C142.142 15.5889 141.059 14.8413 139.635 14.8413C138.062 14.8413 137.021 15.5889 136.341 16.721H136.277V15.1617H132.962V26.0982Z" fill="black"/>
<path fill-rule="evenodd" clip-rule="evenodd" d="M17.798 35.8883C27.5783 35.8883 35.5066 27.9189 35.5066 18.0881C35.5066 8.25728 27.5783 0.287842 17.798 0.287842C8.01777 0.287842 0.0893555 8.25728 0.0893555 18.0881C0.0893555 27.9189 8.01777 35.8883 17.798 35.8883ZM20.5313 14.0408C22.0408 12.5234 22.0408 10.0633 20.5313 8.54596C19.0217 7.0286 16.5743 7.0286 15.0647 8.54596C13.5552 10.0633 13.5552 12.5234 15.0647 14.0408L17.798 16.7882L20.5313 14.0408ZM21.8245 20.8355C23.334 22.3529 25.7814 22.3529 27.291 20.8355C28.8005 19.3181 28.8005 16.8581 27.291 15.3407C25.7814 13.8234 23.334 13.8234 21.8245 15.3407L19.0912 18.0881L21.8245 20.8355ZM20.5313 27.6302C22.0408 26.1129 22.0408 23.6528 20.5313 22.1354L17.798 19.388L15.0647 22.1354C13.5552 23.6528 13.5552 26.1129 15.0647 27.6302C16.5743 29.1476 19.0217 29.1476 20.5313 27.6302ZM8.30495 20.8355C6.79543 19.3181 6.79543 16.8581 8.30495 15.3407C9.81455 13.8234 12.262 13.8234 13.7715 15.3407L16.5048 18.0881L13.7715 20.8355C12.262 22.3529 9.81455 22.3529 8.30495 20.8355Z" fill="black"/>
</g>
</svg>
