<svg width="183" height="37" viewBox="0 0 183 37" fill="none" xmlns="http://www.w3.org/2000/svg">
<g opacity="0.6" clip-path="url(#clip0_124_201)">
<path d="M54.8177 27.7721V9.19849H58.3202V24.5881H66.8109V27.7721H54.8177Z" fill="black"/>
<path d="M74.3739 28.1439C73.0649 28.1439 71.8885 27.8786 70.8449 27.3479C69.8011 26.8173 68.9786 26.0478 68.3772 25.0395C67.7758 24.0312 67.4751 22.8195 67.4751 21.4043V20.9798C67.4751 19.5647 67.7758 18.3529 68.3772 17.3447C68.9786 16.3364 69.8011 15.5669 70.8449 15.0362C71.8885 14.5056 73.0649 14.2402 74.3739 14.2402C75.6828 14.2402 76.8592 14.5056 77.9028 15.0362C78.9465 15.5669 79.769 16.3364 80.3705 17.3447C80.9719 18.3529 81.2726 19.5647 81.2726 20.9798V21.4043C81.2726 22.8195 80.9719 24.0312 80.3705 25.0395C79.769 26.0478 78.9465 26.8173 77.9028 27.3479C76.8592 27.8786 75.6828 28.1439 74.3739 28.1439ZM74.3739 25.1721C75.3998 25.1721 76.2489 24.8448 76.9211 24.1904C77.5932 23.5182 77.9294 22.5629 77.9294 21.3248V21.0594C77.9294 19.8211 77.5932 18.8748 76.9211 18.2202C76.2666 17.5481 75.4175 17.2119 74.3739 17.2119C73.3479 17.2119 72.4988 17.5481 71.8266 18.2202C71.1544 18.8748 70.8183 19.8211 70.8183 21.0594V21.3248C70.8183 22.5629 71.1544 23.5182 71.8266 24.1904C72.4988 24.8448 73.3479 25.1721 74.3739 25.1721Z" fill="black"/>
<path d="M82.528 21.2452V20.8206C82.528 19.4408 82.8021 18.2645 83.3505 17.2915C83.8989 16.301 84.6241 15.5492 85.5262 15.0362C86.4461 14.5056 87.4455 14.2402 88.5246 14.2402C89.7274 14.2402 90.6384 14.4524 91.2575 14.877C91.8767 15.3015 92.3277 15.7438 92.6107 16.2037H93.0884V14.6116H96.3786V30.1073C96.3786 31.0096 96.1133 31.7259 95.5825 32.2566C95.0518 32.805 94.3444 33.0791 93.4598 33.0791H84.6507V30.1605H92.2924C92.7877 30.1605 93.0353 29.8951 93.0353 29.3644V25.9416H92.5577C92.3809 26.2246 92.1332 26.5164 91.8148 26.8173C91.4964 27.1002 91.0719 27.3391 90.5412 27.5336C90.0104 27.7282 89.3383 27.8255 88.5246 27.8255C87.4455 27.8255 86.4461 27.569 85.5262 27.056C84.6241 26.5253 83.8989 25.7735 83.3505 24.8006C82.8021 23.8101 82.528 22.6248 82.528 21.2452ZM89.4798 24.9068C90.5058 24.9068 91.3637 24.5795 92.0536 23.925C92.7435 23.2705 93.0884 22.3507 93.0884 21.1656V20.9002C93.0884 19.6973 92.7435 18.7775 92.0536 18.1406C91.3814 17.4862 90.5235 17.1589 89.4798 17.1589C88.4538 17.1589 87.5959 17.4862 86.906 18.1406C86.2161 18.7775 85.8712 19.6973 85.8712 20.9002V21.1656C85.8712 22.3507 86.2161 23.2705 86.906 23.925C87.5959 24.5795 88.4538 24.9068 89.4798 24.9068Z" fill="black"/>
<path d="M105.152 28.1439C103.843 28.1439 102.667 27.8786 101.623 27.3479C100.58 26.8173 99.7572 26.0478 99.1558 25.0395C98.5544 24.0312 98.2535 22.8195 98.2535 21.4043V20.9798C98.2535 19.5647 98.5544 18.3529 99.1558 17.3447C99.7572 16.3364 100.58 15.5669 101.623 15.0362C102.667 14.5056 103.843 14.2402 105.152 14.2402C106.461 14.2402 107.638 14.5056 108.681 15.0362C109.725 15.5669 110.548 16.3364 111.149 17.3447C111.75 18.3529 112.051 19.5647 112.051 20.9798V21.4043C112.051 22.8195 111.75 24.0312 111.149 25.0395C110.548 26.0478 109.725 26.8173 108.681 27.3479C107.638 27.8786 106.461 28.1439 105.152 28.1439ZM105.152 25.1721C106.178 25.1721 107.027 24.8448 107.7 24.1904C108.372 23.5182 108.708 22.5629 108.708 21.3248V21.0594C108.708 19.8211 108.372 18.8748 107.7 18.2202C107.045 17.5481 106.196 17.2119 105.152 17.2119C104.126 17.2119 103.277 17.5481 102.605 18.2202C101.933 18.8748 101.597 19.8211 101.597 21.0594V21.3248C101.597 22.5629 101.933 23.5182 102.605 24.1904C103.277 24.8448 104.126 25.1721 105.152 25.1721Z" fill="black"/>
<path d="M113.944 27.7725V14.6117H117.287V27.7725H113.944ZM115.616 13.0728C115.014 13.0728 114.502 12.8782 114.076 12.489C113.67 12.0999 113.466 11.5869 113.466 10.9501C113.466 10.3133 113.67 9.8003 114.076 9.41114C114.502 9.02198 115.014 8.82739 115.616 8.82739C116.235 8.82739 116.748 9.02198 117.154 9.41114C117.561 9.8003 117.765 10.3133 117.765 10.9501C117.765 11.5869 117.561 12.0999 117.154 12.489C116.748 12.8782 116.235 13.0728 115.616 13.0728Z" fill="black"/>
<path d="M119.799 33.0791V14.6116H123.088V16.2037H123.566C123.866 15.6907 124.335 15.2396 124.972 14.8504C125.609 14.4437 126.52 14.2402 127.706 14.2402C128.766 14.2402 129.748 14.5056 130.65 15.0362C131.553 15.5492 132.278 16.3098 132.826 17.3181C133.374 18.3264 133.649 19.547 133.649 20.9798V21.4043C133.649 22.8372 133.374 24.0577 132.826 25.0659C132.278 26.0742 131.553 26.8437 130.65 27.3744C129.748 27.8873 128.766 28.1439 127.706 28.1439C126.91 28.1439 126.237 28.0466 125.688 27.852C125.158 27.6751 124.725 27.4451 124.388 27.1621C124.07 26.8614 123.814 26.5607 123.619 26.26H123.141V33.0791H119.799ZM126.696 25.2251C127.741 25.2251 128.598 24.898 129.27 24.2434C129.96 23.5712 130.306 22.5984 130.306 21.3248V21.0594C130.306 19.7858 129.96 18.8217 129.27 18.1672C128.58 17.495 127.723 17.1589 126.696 17.1589C125.671 17.1589 124.813 17.495 124.123 18.1672C123.433 18.8217 123.088 19.7858 123.088 21.0594V21.3248C123.088 22.5984 123.433 23.5712 124.123 24.2434C124.813 24.898 125.671 25.2251 126.696 25.2251Z" fill="black"/>
<path d="M140.989 28.1439C139.273 28.1439 137.867 27.7724 136.77 27.0295C135.674 26.2866 135.01 25.2251 134.78 23.8454L137.857 23.0494C137.982 23.6686 138.185 24.1549 138.469 24.5088C138.769 24.8625 139.131 25.1191 139.557 25.2783C139.998 25.4198 140.476 25.4905 140.989 25.4905C141.768 25.4905 142.342 25.3579 142.713 25.0925C143.085 24.8095 143.271 24.4645 143.271 24.0577C143.271 23.6508 143.094 23.3413 142.74 23.129C142.386 22.8991 141.82 22.7133 141.042 22.5718L140.299 22.4391C139.379 22.2622 138.539 22.0234 137.779 21.7227C137.017 21.4043 136.407 20.9709 135.947 20.4225C135.488 19.8743 135.257 19.1667 135.257 18.2999C135.257 16.9908 135.735 15.9914 136.691 15.3015C137.645 14.594 138.902 14.2402 140.459 14.2402C141.926 14.2402 143.147 14.5674 144.12 15.2219C145.093 15.8765 145.729 16.7344 146.03 17.7958L142.926 18.7509C142.785 18.0788 142.493 17.6011 142.05 17.3181C141.625 17.0351 141.095 16.8936 140.459 16.8936C139.821 16.8936 139.335 17.0086 138.999 17.2385C138.662 17.4508 138.495 17.7515 138.495 18.1406C138.495 18.5652 138.672 18.8837 139.025 19.0959C139.379 19.2904 139.856 19.4408 140.459 19.547L141.201 19.6796C142.192 19.8565 143.085 20.0954 143.881 20.3961C144.695 20.6791 145.331 21.0947 145.792 21.6431C146.268 22.1738 146.508 22.8991 146.508 23.8189C146.508 25.1987 146.004 26.2689 144.996 27.0295C144.005 27.7724 142.67 28.1439 140.989 28.1439Z" fill="black"/>
<path d="M153.26 27.9849C152.234 27.9849 151.332 27.7549 150.553 27.295C149.793 26.8174 149.201 26.1629 148.775 25.3315C148.351 24.5001 148.139 23.5449 148.139 22.4658V14.6118H151.482V22.2005C151.482 23.1911 151.721 23.934 152.199 24.4294C152.694 24.9246 153.393 25.1723 154.295 25.1723C155.321 25.1723 156.117 24.8362 156.682 24.164C157.249 23.4741 157.532 22.5189 157.532 21.2984V14.6118H160.875V27.7726H157.584V26.0479H157.108C156.896 26.4902 156.497 26.9235 155.914 27.348C155.33 27.7726 154.445 27.9849 153.26 27.9849Z" fill="black"/>
<path d="M163.402 27.7726V14.6119H166.692V16.0447H167.17C167.4 15.6025 167.781 15.2222 168.311 14.9038C168.841 14.5676 169.54 14.3997 170.407 14.3997C171.344 14.3997 172.097 14.5854 172.663 14.9568C173.228 15.3107 173.662 15.7793 173.963 16.3632H174.44C174.741 15.7971 175.166 15.3283 175.714 14.9568C176.263 14.5854 177.04 14.3997 178.048 14.3997C178.863 14.3997 179.597 14.5765 180.251 14.9304C180.923 15.2664 181.455 15.7882 181.843 16.4958C182.25 17.1857 182.453 18.0613 182.453 19.1227V27.7726H179.11V19.3615C179.11 18.6362 178.924 18.0967 178.554 17.7429C178.182 17.3715 177.66 17.1857 176.988 17.1857C176.227 17.1857 175.634 17.4333 175.21 17.9286C174.803 18.4062 174.6 19.0961 174.6 19.9982V27.7726H171.257V19.3615C171.257 18.6362 171.071 18.0967 170.699 17.7429C170.327 17.3715 169.806 17.1857 169.133 17.1857C168.373 17.1857 167.78 17.4333 167.355 17.9286C166.948 18.4062 166.745 19.0961 166.745 19.9982V27.7726H163.402Z" fill="black"/>
<path d="M44.2239 17.8226C44.2239 13.1311 42.3601 8.63164 39.0427 5.31421C35.7252 1.99678 31.2258 0.133057 26.5343 0.133057C21.8427 0.133056 17.3433 1.99678 14.0259 5.31421C10.7084 8.63164 8.84473 13.1311 8.84473 17.8226H14.3728C16.2046 17.8226 17.6332 16.2875 18.3042 14.583C18.7447 13.4638 19.4132 12.4354 20.28 11.5684C21.9388 9.90969 24.1885 8.97783 26.5343 8.97783C28.88 8.97783 31.1298 9.90969 32.7885 11.5684C34.4472 13.2271 35.379 15.4769 35.379 17.8226H44.2239Z" fill="black"/>
<path d="M34.0342 24.592C34.9232 22.4457 35.3808 20.1455 35.3808 17.8225H44.2246C44.2246 27.5922 36.3047 35.512 26.535 35.512C25.005 35.512 23.5203 35.3178 22.1045 34.9526C22.9056 34.7462 23.693 34.4834 24.4606 34.1655C26.6069 33.2765 28.5569 31.9735 30.1996 30.3309C31.8422 28.6882 33.1453 26.7382 34.0342 24.592Z" fill="black"/>
<path d="M0 17.8225C-3.32329e-07 20.1456 0.457553 22.4459 1.34653 24.5921C2.23552 26.7383 3.53852 28.6884 5.18115 30.331C6.82377 31.9735 8.77386 33.2766 10.92 34.1656C13.0662 35.0546 15.3665 35.5121 17.6896 35.5121C20.0125 35.5121 22.3128 35.0546 24.459 34.1656C26.6052 33.2766 28.5553 31.9735 30.198 30.331C31.8406 28.6884 33.1435 26.7383 34.0325 24.5921C34.9215 22.4459 35.3792 20.1456 35.3792 17.8225H29.8511C28.0192 17.8225 26.5906 19.3576 25.9197 21.0621C25.9006 21.1106 25.881 21.159 25.8611 21.2073C25.4166 22.2804 24.7651 23.2555 23.9437 24.0768C23.1224 24.898 22.1473 25.5496 21.0743 25.9941C20.0012 26.4386 18.8511 26.6674 17.6896 26.6674C16.528 26.6674 15.3779 26.4386 14.3049 25.9941C13.2317 25.5496 12.2567 24.898 11.4353 24.0768C10.614 23.2555 9.96254 22.2804 9.51805 21.2073C9.07355 20.1342 8.84478 18.984 8.84478 17.8225H0Z" fill="#A3A3A3"/>
<path d="M0.0032959 17.8226C0.0032959 8.05291 7.92316 0.133057 17.6928 0.133057C19.2224 0.133057 20.7067 0.327193 22.1224 0.692186C19.0847 1.47473 16.2824 3.0584 14.0265 5.31422C10.7091 8.63162 8.84538 13.1311 8.84538 17.8226H0.0032959Z" fill="#A3A3A3"/>
</g>
<defs>
<clipPath id="clip0_124_201">
<rect width="182.453" height="36.4905" fill="white" transform="translate(0 0.133057)"/>
</clipPath>
</defs>
</svg>
