<svg width="29" height="47" viewBox="0 0 29 47" fill="none" xmlns="http://www.w3.org/2000/svg">
<path d="M27.6503 19.908C27.4183 19.908 27.1958 20.0001 27.0318 20.1642C26.8677 20.3282 26.7756 20.5507 26.7756 20.7827V22.782C26.7756 26.0377 25.4823 29.1601 23.1801 31.4622C20.878 33.7643 17.7556 35.0577 14.4999 35.0577C11.2442 35.0577 8.12184 33.7643 5.8197 31.4622C3.51756 29.1601 2.22424 26.0377 2.22424 22.782V20.7827C2.22424 20.5507 2.13208 20.3282 1.96805 20.1642C1.80401 20.0001 1.58153 19.908 1.34955 19.908C1.11756 19.908 0.895083 20.0001 0.731046 20.1642C0.56701 20.3282 0.474854 20.5507 0.474854 20.7827V22.782C0.480302 26.3484 1.84228 29.7791 4.28445 32.3782C6.72662 34.9772 10.0661 36.5499 13.6252 36.777V40.5707H8.54201C7.5553 40.5707 6.60892 40.9623 5.91073 41.6596C5.21255 42.3568 4.81965 43.3027 4.81833 44.2894V45.8588C4.81833 46.0908 4.91048 46.3133 5.07452 46.4773C5.23855 46.6414 5.46103 46.7335 5.69302 46.7335H23.3068C23.5388 46.7335 23.7613 46.6414 23.9253 46.4773C24.0893 46.3133 24.1815 46.0908 24.1815 45.8588V44.3044C24.1802 43.3177 23.7873 42.3718 23.0891 41.6746C22.3909 40.9773 21.4445 40.5857 20.4578 40.5857H15.3746V36.792C18.9338 36.5649 22.2732 34.9922 24.7154 32.3932C27.1575 29.7941 28.5195 26.3634 28.525 22.797V20.7977C28.527 20.6816 28.5058 20.5662 28.4627 20.4583C28.4197 20.3505 28.3556 20.2523 28.2741 20.1695C28.1927 20.0866 28.0956 20.0209 27.9885 19.976C27.8814 19.9311 27.7664 19.908 27.6503 19.908ZM22.4321 44.3044V44.9842H6.56771V44.3044C6.58188 43.788 6.79535 43.2972 7.1634 42.9347C7.53144 42.5723 8.02549 42.3663 8.54201 42.3601H20.4578C20.9743 42.3663 21.4684 42.5723 21.8364 42.9347C22.2045 43.2972 22.418 43.788 22.4321 44.3044Z" fill="url(#paint0_linear_109_250)"/>
<path d="M14.5 31.8238C16.8937 31.8198 19.1881 30.8668 20.8803 29.1737C22.5724 27.4807 23.5241 25.1857 23.5268 22.792V9.02682C23.5268 6.63276 22.5757 4.33675 20.8829 2.64389C19.19 0.951037 16.894 0 14.5 0C12.1059 0 9.8099 0.951037 8.11704 2.64389C6.42418 4.33675 5.47314 6.63276 5.47314 9.02682V22.792C5.47579 25.1857 6.42751 27.4807 8.11966 29.1737C9.8118 30.8668 12.1063 31.8198 14.5 31.8238ZM14.5 1.74938C16.4297 1.75071 18.2799 2.51786 19.6444 3.88236C21.0089 5.24685 21.7761 7.09713 21.7774 9.02682V9.15178H18.9134C18.6814 9.15178 18.4589 9.24393 18.2949 9.40797C18.1309 9.572 18.0387 9.79449 18.0387 10.0265C18.0387 10.2585 18.1309 10.4809 18.2949 10.645C18.4589 10.809 18.6814 10.9012 18.9134 10.9012H21.7774V14.9347H18.9134C18.6814 14.9347 18.4589 15.0269 18.2949 15.1909C18.1309 15.355 18.0387 15.5774 18.0387 15.8094C18.0387 16.0414 18.1309 16.2639 18.2949 16.4279C18.4589 16.592 18.6814 16.6841 18.9134 16.6841H21.7774V20.1829H7.22253V16.6841H10.0865C10.3185 16.6841 10.541 16.592 10.705 16.4279C10.8691 16.2639 10.9612 16.0414 10.9612 15.8094C10.9612 15.5774 10.8691 15.355 10.705 15.1909C10.541 15.0269 10.3185 14.9347 10.0865 14.9347H7.22253V10.9012H10.0865C10.3185 10.9012 10.541 10.809 10.705 10.645C10.8691 10.4809 10.9612 10.2585 10.9612 10.0265C10.9612 9.79449 10.8691 9.572 10.705 9.40797C10.541 9.24393 10.3185 9.15178 10.0865 9.15178H7.22253V9.02682C7.22385 7.09713 7.99101 5.24685 9.3555 3.88236C10.72 2.51786 12.5703 1.75071 14.5 1.74938ZM7.22253 21.9523H21.7774V22.792C21.7774 24.7221 21.0107 26.5731 19.6459 27.9379C18.2811 29.3027 16.4301 30.0694 14.5 30.0694C12.5699 30.0694 10.7188 29.3027 9.35404 27.9379C7.98926 26.5731 7.22253 24.7221 7.22253 22.792V21.9523Z" fill="url(#paint1_linear_109_250)"/>
<defs>
<linearGradient id="paint0_linear_109_250" x1="0.474854" y1="24.1436" x2="30.2965" y2="25.3715" gradientUnits="userSpaceOnUse">
<stop stop-color="#03E2CD"/>
<stop offset="1" stop-color="#6254FC"/>
</linearGradient>
<linearGradient id="paint1_linear_109_250" x1="5.47314" y1="5.0248" x2="24.6898" y2="5.45408" gradientUnits="userSpaceOnUse">
<stop stop-color="#03E2CD"/>
<stop offset="1" stop-color="#6254FC"/>
</linearGradient>
</defs>
</svg>
