<svg width="57" height="57" viewBox="0 0 57 57" fill="none" xmlns="http://www.w3.org/2000/svg">
<path d="M26.0236 35.3852C25.7497 35.3836 25.4863 35.4905 25.2909 35.6825C25.0956 35.8745 24.9842 36.1361 24.9811 36.4099C24.9811 39.3367 23.8184 42.1435 21.7489 44.213C19.6794 46.2826 16.8725 47.4452 13.9458 47.4452C11.0191 47.4452 8.21224 46.2826 6.14273 44.213C4.07322 42.1435 2.91058 39.3367 2.91058 36.4099V34.5737C2.91058 34.2988 2.80137 34.0351 2.60697 33.8407C2.41257 33.6463 2.14891 33.5371 1.87399 33.5371C1.59907 33.5371 1.33541 33.6463 1.14101 33.8407C0.946615 34.0351 0.837402 34.2988 0.837402 34.5737V36.4099C0.849163 39.7001 2.09663 42.8657 4.33255 45.2793C6.56847 47.693 9.62961 49.1785 12.9092 49.4414V54.2867H8.98796C8.71304 54.2867 8.44938 54.3959 8.25498 54.5903C8.06058 54.7847 7.95137 55.0484 7.95137 55.3233C7.95137 55.5982 8.06058 55.8619 8.25498 56.0563C8.44938 56.2507 8.71304 56.3599 8.98796 56.3599H18.8918C19.1668 56.3599 19.4304 56.2507 19.6248 56.0563C19.8192 55.8619 19.9284 55.5982 19.9284 55.3233C19.9284 55.0484 19.8192 54.7847 19.6248 54.5903C19.4304 54.3959 19.1668 54.2867 18.8918 54.2867H14.9883V49.4828C18.2751 49.2193 21.3421 47.728 23.579 45.3055C25.816 42.8831 27.0588 39.7072 27.0602 36.4099C27.057 36.1371 26.9465 35.8765 26.7524 35.6846C26.5583 35.4928 26.2965 35.3852 26.0236 35.3852Z" fill="url(#paint0_linear_101_775)" stroke="url(#paint1_linear_101_775)" stroke-width="0.6"/>
<path d="M13.9518 44.9395C16.212 44.9364 18.3785 44.0363 19.9756 42.437C21.5726 40.8377 22.4696 38.67 22.4696 36.4098V26.1565C22.4111 23.9355 21.4877 21.8252 19.8961 20.275C18.3045 18.7249 16.1706 17.8574 13.9489 17.8574C11.7271 17.8574 9.59322 18.7249 8.00165 20.275C6.41008 21.8252 5.48666 23.9355 5.4281 26.1565V36.4098C5.4281 38.671 6.32594 40.8397 7.92428 42.4391C9.52262 44.0386 11.6907 44.9379 13.9518 44.9395ZM7.50128 26.1565C7.55209 24.4803 8.25366 22.8898 9.45727 21.7221C10.6609 20.5544 12.2719 19.9014 13.9489 19.9014C15.6258 19.9014 17.2369 20.5544 18.4405 21.7221C19.6441 22.8898 20.3456 24.4803 20.3965 26.1565V36.4098C20.3456 38.086 19.6441 39.6765 18.4405 40.8442C17.2369 42.0119 15.6258 42.6649 13.9489 42.6649C12.2719 42.6649 10.6609 42.0119 9.45727 40.8442C8.25366 39.6765 7.55209 38.086 7.50128 36.4098V26.1565Z" fill="url(#paint2_linear_101_775)" stroke="url(#paint3_linear_101_775)" stroke-width="0.6"/>
<path d="M39.7125 6.1006C36.6962 6.09667 33.8019 7.29112 31.6663 9.42117C29.5307 11.5512 28.3287 14.4424 28.3248 17.4587C28.3209 20.4749 29.5153 23.3692 31.6453 25.5048C33.7754 27.6404 36.6666 28.8424 39.6828 28.8464H39.748C42.7643 28.8416 45.6551 27.6389 47.7846 25.5027C49.9141 23.3666 51.1078 20.472 51.1031 17.4557C51.0984 14.4394 49.8957 11.5486 47.7595 9.41907C45.6233 7.28958 42.7287 6.09589 39.7125 6.1006ZM45.0435 20.2575C45.257 18.4076 45.257 16.5393 45.0435 14.6895C46.1154 14.4392 47.1535 14.0613 48.1355 13.5641C48.7051 14.7886 49.0002 16.1229 49.0002 17.4735C49.0002 18.824 48.7051 20.1583 48.1355 21.3829C47.1561 20.8891 46.1224 20.5114 45.0553 20.2575H45.0435ZM39.7125 26.7732H39.671C38.664 26.7732 37.3846 24.9962 36.7093 21.9219C38.6845 21.6524 40.6871 21.6524 42.6623 21.9219C42.0226 24.9784 40.7431 26.7495 39.7362 26.7732H39.7125ZM36.4131 19.8724C36.2473 18.2774 36.2473 16.6695 36.4131 15.0745C38.6025 15.3737 40.8224 15.3737 43.0118 15.0745C43.1836 16.6692 43.1836 18.2777 43.0118 19.8724C40.8226 19.5704 38.6023 19.5704 36.4131 19.8724ZM31.2776 21.3829C30.708 20.1583 30.4129 18.824 30.4129 17.4735C30.4129 16.1229 30.708 14.7886 31.2776 13.5641C32.2613 14.0622 33.3014 14.4401 34.3755 14.6895C34.162 16.5393 34.162 18.4076 34.3755 20.2575C33.3017 20.5078 32.2617 20.8857 31.2776 21.3829ZM39.7125 8.17378C40.7254 8.17378 42.0167 9.95079 42.6741 13.025C40.6988 13.2916 38.6965 13.2916 36.7212 13.025C37.4201 9.95079 38.6996 8.17378 39.7125 8.17378ZM47.0693 11.787C46.3125 12.1542 45.518 12.4382 44.6999 12.6341C44.4358 11.3476 43.9953 10.1038 43.3909 8.9379C44.8406 9.55717 46.1072 10.5382 47.0693 11.787ZM36.0163 8.9379C35.4067 10.1016 34.9659 11.3461 34.7072 12.6341C33.8893 12.4378 33.0949 12.1538 32.3379 11.787C33.3018 10.5401 34.5679 9.55946 36.0163 8.9379ZM32.3556 23.154C33.1126 22.7872 33.907 22.5032 34.725 22.3069C34.9836 23.5941 35.4223 24.8384 36.0281 26.0031C34.5812 25.3847 33.3168 24.4058 32.3556 23.1599V23.154ZM43.4205 26.0031C44.0254 24.838 44.4641 23.5938 44.7236 22.3069C45.5417 22.5028 46.3361 22.7868 47.093 23.154C46.1325 24.4035 44.8682 25.3863 43.4205 26.0091V26.0031Z" fill="url(#paint4_linear_101_775)" stroke="url(#paint5_linear_101_775)" stroke-width="0.6"/>
<path d="M39.7125 1.01777C36.746 1.0188 33.835 1.82173 31.2875 3.34158C28.7399 4.86144 26.6506 7.0417 25.2406 9.65166C23.8307 12.2616 23.1524 15.2042 23.2778 18.168C23.4031 21.1318 24.3272 24.0067 25.9525 26.4883L24.7678 31.1381C24.7248 31.3116 24.7273 31.4932 24.7752 31.6654C24.823 31.8375 24.9146 31.9944 25.0409 32.1208C25.1673 32.2472 25.3242 32.3387 25.4963 32.3866C25.6685 32.4344 25.8501 32.4369 26.0236 32.3939L30.6734 31.2092C32.8169 32.617 35.2598 33.5043 37.8072 33.8003C40.3545 34.0963 42.9358 33.7928 45.345 32.9141C47.7542 32.0353 49.9247 30.6057 51.6833 28.7391C53.4418 26.8726 54.7398 24.6209 55.4736 22.1636C56.2074 19.7064 56.3567 17.1116 55.9096 14.5864C55.4626 12.0612 54.4315 9.67547 52.8986 7.61952C51.3658 5.56357 49.3736 3.89435 47.0811 2.74505C44.7886 1.59574 42.2592 0.998167 39.6947 1L39.7125 1.01777ZM39.7125 31.8608C36.7721 31.8627 33.9028 30.9566 31.4968 29.2663C31.3747 29.1818 31.236 29.1244 31.0899 29.0978C30.9438 29.0713 30.7937 29.0762 30.6497 29.1123L27.2379 29.9712L28.0968 26.5594C28.1329 26.4153 28.1378 26.2653 28.1113 26.1192C28.0847 25.9731 28.0273 25.8344 27.9428 25.7123C26.0999 23.073 25.1957 19.8916 25.3751 16.6776C25.5544 13.4635 26.8069 10.4025 28.932 7.98455C31.057 5.5666 33.9319 3.93149 37.0963 3.34096C40.2608 2.75042 43.5319 3.23858 46.386 4.72732C49.2401 6.21607 51.5123 8.6193 52.8388 11.5524C54.1653 14.4854 54.4695 17.7787 53.7026 20.9051C52.9357 24.0315 51.1421 26.8102 48.6089 28.7965C46.0757 30.7828 42.9493 31.8618 39.7303 31.8608H39.7125Z" fill="url(#paint6_linear_101_775)" stroke="url(#paint7_linear_101_775)" stroke-width="0.6"/>
<defs>
<linearGradient id="paint0_linear_101_775" x1="0.837403" y1="37.1407" x2="28.7063" y2="38.4016" gradientUnits="userSpaceOnUse">
<stop stop-color="#03E2CD"/>
<stop offset="1" stop-color="#6254FC"/>
</linearGradient>
<linearGradient id="paint1_linear_101_775" x1="0.837403" y1="37.1407" x2="28.7063" y2="38.4016" gradientUnits="userSpaceOnUse">
<stop stop-color="#03E2CD"/>
<stop offset="1" stop-color="#6254FC"/>
</linearGradient>
<linearGradient id="paint2_linear_101_775" x1="5.4281" y1="22.1335" x2="23.5654" y2="22.5829" gradientUnits="userSpaceOnUse">
<stop stop-color="#03E2CD"/>
<stop offset="1" stop-color="#6254FC"/>
</linearGradient>
<linearGradient id="paint3_linear_101_775" x1="5.4281" y1="22.1335" x2="23.5654" y2="22.5829" gradientUnits="userSpaceOnUse">
<stop stop-color="#03E2CD"/>
<stop offset="1" stop-color="#6254FC"/>
</linearGradient>
<linearGradient id="paint4_linear_101_775" x1="28.3248" y1="9.69202" x2="52.545" y2="10.6471" gradientUnits="userSpaceOnUse">
<stop stop-color="#03E2CD"/>
<stop offset="1" stop-color="#6254FC"/>
</linearGradient>
<linearGradient id="paint5_linear_101_775" x1="28.3248" y1="9.69202" x2="52.545" y2="10.6471" gradientUnits="userSpaceOnUse">
<stop stop-color="#03E2CD"/>
<stop offset="1" stop-color="#6254FC"/>
</linearGradient>
<linearGradient id="paint6_linear_101_775" x1="23.2631" y1="6.19635" x2="58.2443" y2="7.57334" gradientUnits="userSpaceOnUse">
<stop stop-color="#03E2CD"/>
<stop offset="1" stop-color="#6254FC"/>
</linearGradient>
<linearGradient id="paint7_linear_101_775" x1="23.2631" y1="6.19635" x2="58.2443" y2="7.57334" gradientUnits="userSpaceOnUse">
<stop stop-color="#03E2CD"/>
<stop offset="1" stop-color="#6254FC"/>
</linearGradient>
</defs>
</svg>
