<svg width="57" height="57" viewBox="0 0 57 57" fill="none" xmlns="http://www.w3.org/2000/svg">
<path fill-rule="evenodd" clip-rule="evenodd" d="M34.6797 23.7994C33.0847 25.3899 30.9251 26.2845 28.6726 26.2876C26.4192 26.286 24.258 25.3922 22.6618 23.8015C21.0655 22.2108 20.1642 20.0528 20.1548 17.7993V9.29332C20.2133 7.0739 21.1361 4.96504 22.7266 3.41595C24.317 1.86687 26.4495 1 28.6697 1C30.8899 1 33.0223 1.86687 34.6128 3.41595C36.2033 4.96504 37.126 7.0739 37.1846 9.29332V17.7993C37.1752 20.0518 36.2746 22.2089 34.6797 23.7994ZM24.1812 4.86202C22.9784 6.02889 22.2773 7.6183 22.2265 9.29332V17.7993C22.2773 19.4744 22.9784 21.0638 24.1812 22.2306C25.384 23.3975 26.9939 24.0501 28.6697 24.0501C30.3455 24.0501 31.9554 23.3975 33.1582 22.2306C34.3609 21.0638 35.062 19.4744 35.1128 17.7993V9.29332C35.062 7.6183 34.3609 6.02889 33.1582 4.86202C31.9554 3.69515 30.3455 3.04254 28.6697 3.04254C26.9939 3.04254 25.384 3.69515 24.1812 4.86202ZM52.4563 33.3436H29.7085V30.822C32.9859 30.5593 36.0449 29.0748 38.2793 26.6628C40.5136 24.2508 41.7603 21.0874 41.772 17.7995C41.772 17.5248 41.6629 17.2613 41.4686 17.0671C41.2743 16.8728 41.0109 16.7637 40.7361 16.7637C40.4614 16.7637 40.1979 16.8728 40.0037 17.0671C39.8094 17.2613 39.7003 17.5248 39.7003 17.7995C39.7003 20.7243 38.5384 23.5292 36.4703 25.5973C34.4023 27.6653 31.5973 28.8272 28.6726 28.8272C25.7479 28.8272 22.943 27.6653 20.8749 25.5973C18.8069 23.5292 17.645 20.7243 17.645 17.7995C17.645 17.5248 17.5359 17.2613 17.3416 17.0671C17.1474 16.8728 16.8839 16.7637 16.6091 16.7637C16.3344 16.7637 16.0709 16.8728 15.8767 17.0671C15.6824 17.2613 15.5733 17.5248 15.5733 17.7995C15.585 21.0874 16.8316 24.2508 19.066 26.6628C21.3004 29.0748 24.3594 30.5593 27.6368 30.822V33.3377H4.88897C3.85755 33.3377 2.86838 33.7474 2.13905 34.4767C1.40973 35.206 1 36.1952 1 37.2266V52.232C1.00157 53.2629 1.4118 54.2512 2.14078 54.9802C2.86977 55.7092 3.85803 56.1194 4.88897 56.121H52.4563C53.4873 56.1194 54.4755 55.7092 55.2045 54.9802C55.9335 54.2512 56.3437 53.2629 56.3453 52.232V37.2325C56.3453 36.2011 55.9356 35.212 55.2062 34.4826C54.4769 33.7533 53.4877 33.3436 52.4563 33.3436ZM54.2735 52.2379C54.272 52.7194 54.08 53.1807 53.7396 53.5212C53.3991 53.8616 52.9378 54.0536 52.4563 54.0551H4.88897C4.40749 54.0536 3.94618 53.8616 3.60572 53.5212C3.26527 53.1807 3.07331 52.7194 3.07175 52.2379V37.2325C3.07175 36.7506 3.2632 36.2884 3.604 35.9476C3.94479 35.6068 4.40701 35.4153 4.88897 35.4153H52.4563C52.9383 35.4153 53.4005 35.6068 53.7413 35.9476C54.0821 36.2884 54.2735 36.7506 54.2735 37.2325V52.2379ZM23.7301 38.2689C23.4553 38.2689 23.1918 38.378 22.9976 38.5723C22.8033 38.7666 22.6942 39.0301 22.6942 39.3048V45.9225L19.0124 38.8194C18.9068 38.6116 18.7341 38.4455 18.5224 38.348C18.3107 38.2504 18.0722 38.2272 17.8456 38.2819C17.619 38.3367 17.4175 38.4663 17.2737 38.6497C17.1299 38.8332 17.0522 39.0598 17.0531 39.2929V50.1489C17.0531 50.4236 17.1622 50.6871 17.3565 50.8814C17.5508 51.0756 17.8143 51.1848 18.089 51.1848C18.3637 51.1848 18.6272 51.0756 18.8215 50.8814C19.0157 50.6871 19.1249 50.4236 19.1249 50.1489V43.5489L22.8067 50.652C22.9125 50.8603 23.0857 51.0267 23.298 51.1242C23.5103 51.2216 23.7494 51.2444 23.9763 51.1889C24.2033 51.1334 24.4048 51.0028 24.5481 50.8182C24.6915 50.6338 24.7682 50.4062 24.7659 50.1726V39.3048C24.7644 39.0305 24.6547 38.768 24.4608 38.574C24.2669 38.3801 24.0043 38.2705 23.7301 38.2689ZM39.7536 38.2677C39.4819 38.2724 39.223 38.3836 39.0326 38.5773C38.8421 38.7711 38.7354 39.0319 38.7355 39.3036V50.1596C38.7355 50.4343 38.8446 50.6978 39.0389 50.892C39.2331 51.0863 39.4966 51.1954 39.7713 51.1954C40.0461 51.1954 40.3096 51.0863 40.5038 50.892C40.6981 50.6978 40.8072 50.4343 40.8072 50.1596V39.3036C40.8072 39.1661 40.7799 39.0299 40.7267 38.903C40.6735 38.7762 40.5956 38.6612 40.4976 38.5648C40.3995 38.4684 40.2832 38.3924 40.1555 38.3414C40.0277 38.2904 39.8911 38.2654 39.7536 38.2677ZM33.7691 38.9966C33.7043 38.7852 33.5732 38.6003 33.3952 38.4692C33.2172 38.3381 33.0017 38.2677 32.7806 38.2686C32.56 38.2696 32.3454 38.3407 32.1677 38.4715C31.9901 38.6024 31.8585 38.7862 31.7921 38.9966L28.4122 49.8526C28.359 49.9861 28.3343 50.1292 28.3394 50.2728C28.3446 50.4164 28.3795 50.5574 28.4421 50.6867C28.5047 50.8161 28.5935 50.931 28.7029 51.0242C28.8123 51.1174 28.9398 51.1868 29.0775 51.228C29.2152 51.2692 29.3599 51.2814 29.5025 51.2636C29.6451 51.2459 29.7824 51.1987 29.9058 51.125C30.0292 51.0513 30.1359 50.9527 30.2191 50.8356C30.3023 50.7184 30.3602 50.5853 30.3892 50.4445L30.9811 48.5208H34.5919L35.1838 50.4445C35.2128 50.5853 35.2707 50.7184 35.354 50.8356C35.4372 50.9527 35.5439 51.0513 35.6672 51.125C35.7906 51.1987 35.928 51.2459 36.0706 51.2636C36.2132 51.2814 36.3579 51.2692 36.4956 51.228C36.6332 51.1868 36.7608 51.1174 36.8702 51.0242C36.9796 50.931 37.0684 50.8161 37.1309 50.6867C37.1935 50.5574 37.2285 50.4164 37.2336 50.2728C37.2388 50.1292 37.214 49.9861 37.1609 49.8526C36.5312 47.8451 35.985 46.0948 35.2742 43.8172L35.2725 43.8117L35.269 43.8005L35.2674 43.7954C34.8439 42.4384 34.3619 40.8939 33.7691 38.9966ZM31.6323 46.4786L32.7806 42.7909L33.9645 46.4786H31.6323ZM50.1541 43.8137C49.867 44.6598 49.3173 45.3923 48.5851 45.9044L50.2839 49.7756C50.3456 49.901 50.3813 50.0376 50.3889 50.1771C50.3964 50.3166 50.3757 50.4562 50.3279 50.5875C50.2801 50.7188 50.2062 50.839 50.1107 50.941C50.0152 51.043 49.9001 51.1246 49.7722 51.181C49.6443 51.2373 49.5064 51.2672 49.3667 51.2688C49.227 51.2705 49.0884 51.2438 48.9592 51.1905C48.8301 51.1372 48.7131 51.0583 48.6152 50.9586C48.5173 50.8589 48.4407 50.7404 48.3898 50.6103L46.6495 46.6739C46.4898 46.6828 46.3297 46.6828 46.17 46.6739H45.3236V50.1604C45.3236 50.4351 45.2144 50.6986 45.0202 50.8929C44.8259 51.0871 44.5624 51.1963 44.2877 51.1963C44.013 51.1963 43.7495 51.0871 43.5552 50.8929C43.361 50.6986 43.2518 50.4351 43.2518 50.1604V39.3044C43.2518 39.0297 43.361 38.7662 43.5552 38.572C43.7495 38.3777 44.013 38.2686 44.2877 38.2686H46.17C47.0636 38.2665 47.9345 38.5497 48.656 39.0769C49.3774 39.6041 49.9118 40.3478 50.1812 41.1998C50.4507 42.0517 50.4412 42.9675 50.1541 43.8137ZM45.3236 40.3403V44.6022H46.17C46.7352 44.6022 47.2772 44.3777 47.6768 43.9781C48.0765 43.5784 48.301 43.0364 48.301 42.4713C48.301 41.9061 48.0765 41.3641 47.6768 40.9645C47.2772 40.5648 46.7352 40.3403 46.17 40.3403H45.3236ZM10.8793 38.2686H11.2403C12.276 38.2701 13.2688 38.6822 14.0011 39.4145C14.7334 40.1469 15.1455 41.1396 15.1471 42.1753V47.2955C15.1455 48.3306 14.7332 49.3227 14.0007 50.0541C13.2682 50.7855 12.2754 51.1963 11.2403 51.1963H10.8793C9.84416 51.1963 8.85136 50.7855 8.11888 50.0541C7.38639 49.3227 6.9741 48.3306 6.97253 47.2955V42.1753C6.9741 41.1396 7.3862 40.1469 8.11852 39.4145C8.85083 38.6822 9.84361 38.2701 10.8793 38.2686ZM12.9355 47.9968C13.0278 47.7745 13.0753 47.5362 13.0753 47.2955V42.1753C13.0753 41.6886 12.882 41.2219 12.5379 40.8778C12.1937 40.5336 11.727 40.3403 11.2403 40.3403H10.8793C10.3926 40.3403 9.92586 40.5336 9.58173 40.8778C9.23761 41.2219 9.04428 41.6886 9.04428 42.1753V47.2955C9.04428 47.5362 9.09179 47.7745 9.18408 47.9968C9.27637 48.2191 9.41162 48.421 9.58209 48.5909C9.75256 48.7608 9.9549 48.8954 10.1775 48.987C10.4001 49.0786 10.6386 49.1253 10.8793 49.1245H11.2403C11.481 49.1253 11.7195 49.0786 11.9421 48.987C12.1647 48.8954 12.367 48.7608 12.5375 48.5909C12.708 48.421 12.8432 48.2191 12.9355 47.9968Z" fill="url(#paint0_linear_101_778)"/>
<path d="M28.6726 26.2876L28.6724 26.5876L28.673 26.5876L28.6726 26.2876ZM34.6797 23.7994L34.8915 24.0119L34.6797 23.7994ZM22.6618 23.8015L22.8735 23.589H22.8735L22.6618 23.8015ZM20.1548 17.7993H19.8548L19.8548 17.8006L20.1548 17.7993ZM20.1548 9.29332L19.8548 9.28541V9.29332H20.1548ZM22.7266 3.41595L22.5172 3.20104V3.20104L22.7266 3.41595ZM34.6128 3.41595L34.8221 3.20104L34.6128 3.41595ZM37.1846 9.29332H37.4847L37.4845 9.28541L37.1846 9.29332ZM37.1846 17.7993L37.4846 17.8006V17.7993H37.1846ZM22.2265 9.29332L21.9265 9.28423V9.29332H22.2265ZM24.1812 4.86202L23.9723 4.6467L24.1812 4.86202ZM22.2265 17.7993H21.9264L21.9267 17.8084L22.2265 17.7993ZM35.1128 17.7993L35.4128 17.8084V17.7993H35.1128ZM35.1128 9.29332H35.4129L35.4127 9.28423L35.1128 9.29332ZM33.1582 4.86202L33.3671 4.6467L33.1582 4.86202ZM29.7085 33.3436H29.4085V33.6436H29.7085V33.3436ZM29.7085 30.822L29.6845 30.5229L29.4085 30.5451V30.822H29.7085ZM41.772 17.7995L42.072 17.8006V17.7995H41.772ZM41.4686 17.0671L41.2565 17.2792V17.2792L41.4686 17.0671ZM40.0037 17.0671L40.2158 17.2792L40.0037 17.0671ZM36.4703 25.5973L36.2582 25.3851L36.4703 25.5973ZM17.3416 17.0671L17.1295 17.2792L17.1295 17.2792L17.3416 17.0671ZM15.8767 17.0671L16.0888 17.2792L16.0888 17.2792L15.8767 17.0671ZM15.5733 17.7995H15.2733L15.2733 17.8006L15.5733 17.7995ZM19.066 26.6628L18.8459 26.8667L19.066 26.6628ZM27.6368 30.822H27.9368V30.5451L27.6607 30.5229L27.6368 30.822ZM27.6368 33.3377V33.6377H27.9368V33.3377H27.6368ZM2.13905 34.4767L2.35118 34.6888H2.35118L2.13905 34.4767ZM1 52.232H0.7L0.7 52.2325L1 52.232ZM2.14078 54.9802L2.35291 54.7681L2.14078 54.9802ZM4.88897 56.121L4.88851 56.421H4.88897V56.121ZM52.4563 56.121V56.421H52.4568L52.4563 56.121ZM56.3453 52.232L56.6453 52.2325V52.232H56.3453ZM53.7396 53.5212L53.9517 53.7333L53.7396 53.5212ZM54.2735 52.2379L54.5735 52.2389V52.2379H54.2735ZM52.4563 54.0551V54.3552L52.4573 54.3551L52.4563 54.0551ZM4.88897 54.0551L4.88799 54.3551H4.88897V54.0551ZM3.60572 53.5212L3.39359 53.7333H3.39359L3.60572 53.5212ZM3.07175 52.2379H2.77175L2.77175 52.2389L3.07175 52.2379ZM23.7301 38.2689L23.7318 37.9689H23.7301V38.2689ZM22.6942 45.9225L22.4278 46.0606L22.9942 45.9225H22.6942ZM19.0124 38.8194L18.745 38.9554L18.746 38.9575L19.0124 38.8194ZM18.5224 38.348L18.6479 38.0755L18.6479 38.0755L18.5224 38.348ZM17.8456 38.2819L17.9161 38.5735H17.9161L17.8456 38.2819ZM17.0531 39.2929H17.3531L17.3531 39.2917L17.0531 39.2929ZM17.3565 50.8814L17.1444 51.0935L17.3565 50.8814ZM18.8215 50.8814L18.6093 50.6692L18.8215 50.8814ZM19.1249 43.5489L19.3912 43.4109L18.8249 43.5489H19.1249ZM22.8067 50.652L23.0741 50.5161L23.073 50.514L22.8067 50.652ZM23.298 51.1242L23.1729 51.3968H23.1729L23.298 51.1242ZM23.9763 51.1889L23.905 50.8975H23.905L23.9763 51.1889ZM24.5481 50.8182L24.3112 50.6342H24.3112L24.5481 50.8182ZM24.7659 50.1726H24.4659L24.4659 50.1755L24.7659 50.1726ZM24.7659 39.3048H25.0659L25.0659 39.3031L24.7659 39.3048ZM24.4608 38.574L24.2487 38.7862L24.4608 38.574ZM39.0326 38.5773L38.8186 38.3671L39.0326 38.5773ZM39.7536 38.2677L39.7484 37.9678L39.7536 38.2677ZM38.7355 39.3036H39.0355V39.3036L38.7355 39.3036ZM39.0389 50.892L38.8267 51.1042H38.8267L39.0389 50.892ZM40.8072 39.3036L40.5072 39.3036V39.3036H40.8072ZM40.7267 38.903L40.45 39.019L40.45 39.019L40.7267 38.903ZM40.4976 38.5648L40.7079 38.3509L40.7079 38.3508L40.4976 38.5648ZM40.1555 38.3414L40.2667 38.0628L40.2667 38.0628L40.1555 38.3414ZM33.3952 38.4692L33.5731 38.2277L33.3952 38.4692ZM33.7691 38.9966L33.4823 39.0846L33.4828 39.0861L33.7691 38.9966ZM32.7806 38.2686L32.7795 37.9686L32.7792 37.9686L32.7806 38.2686ZM32.1677 38.4715L31.9898 38.23H31.9898L32.1677 38.4715ZM31.7921 38.9966L31.506 38.9063L31.5056 38.9075L31.7921 38.9966ZM28.4122 49.8526L28.6909 49.9635L28.6952 49.9528L28.6986 49.9418L28.4122 49.8526ZM28.3394 50.2728L28.0396 50.2836V50.2836L28.3394 50.2728ZM28.4421 50.6867L28.7122 50.5561L28.4421 50.6867ZM28.7029 51.0242L28.8974 50.7958L28.8974 50.7958L28.7029 51.0242ZM29.0775 51.228L28.9915 51.5154H28.9915L29.0775 51.228ZM29.5025 51.2636L29.4655 50.9659L29.4655 50.9659L29.5025 51.2636ZM29.9058 51.125L29.752 50.8674H29.752L29.9058 51.125ZM30.2191 50.8356L30.4637 51.0093L30.4637 51.0093L30.2191 50.8356ZM30.3892 50.4445L30.1025 50.3563L30.0983 50.37L30.0954 50.384L30.3892 50.4445ZM30.9811 48.5208V48.2208H30.7596L30.6944 48.4325L30.9811 48.5208ZM34.5919 48.5208L34.8786 48.4325L34.8135 48.2208H34.5919V48.5208ZM35.1838 50.4445L35.4777 50.384L35.4748 50.37L35.4706 50.3563L35.1838 50.4445ZM35.354 50.8356L35.1094 51.0093L35.1094 51.0093L35.354 50.8356ZM36.0706 51.2636L36.1076 50.9659L36.1076 50.9659L36.0706 51.2636ZM36.4956 51.228L36.5816 51.5154H36.5816L36.4956 51.228ZM36.8702 51.0242L36.6756 50.7958L36.8702 51.0242ZM37.1309 50.6867L37.401 50.8174L37.1309 50.6867ZM37.2336 50.2728L37.5335 50.2836V50.2836L37.2336 50.2728ZM37.1609 49.8526L36.8746 49.9424L36.878 49.9531L36.8821 49.9635L37.1609 49.8526ZM35.2742 43.8172L34.9878 43.9066L34.9878 43.9066L35.2742 43.8172ZM35.2725 43.8117L35.5588 43.7223V43.7223L35.2725 43.8117ZM35.269 43.8005L34.9826 43.8898L34.9826 43.8898L35.269 43.8005ZM35.2674 43.7954L35.5538 43.7061L35.5537 43.706L35.2674 43.7954ZM32.7806 42.7909L33.0663 42.6992L32.7763 41.7959L32.4942 42.7017L32.7806 42.7909ZM31.6323 46.4786L31.3458 46.3894L31.2246 46.7786H31.6323V46.4786ZM33.9645 46.4786V46.7786H34.3759L34.2501 46.3869L33.9645 46.4786ZM48.5851 45.9044L48.4132 45.6586L48.2115 45.7996L48.3104 46.025L48.5851 45.9044ZM50.1541 43.8137L49.87 43.7173L50.1541 43.8137ZM50.2839 49.7756L50.009 49.8963L50.0148 49.9081L50.2839 49.7756ZM50.3889 50.1771L50.0893 50.1933V50.1933L50.3889 50.1771ZM50.3279 50.5875L50.6098 50.6901L50.6098 50.6901L50.3279 50.5875ZM50.1107 50.941L49.8917 50.736L49.8917 50.736L50.1107 50.941ZM49.7722 51.181L49.6512 50.9064H49.6512L49.7722 51.181ZM49.3667 51.2688L49.3702 51.5688H49.3702L49.3667 51.2688ZM48.9592 51.1905L48.8448 51.4678L48.8448 51.4678L48.9592 51.1905ZM48.6152 50.9586L48.8293 50.7485L48.8293 50.7485L48.6152 50.9586ZM48.3898 50.6103L48.6694 50.5009L48.6641 50.489L48.3898 50.6103ZM46.6495 46.6739L46.9239 46.5526L46.84 46.363L46.6329 46.3744L46.6495 46.6739ZM46.17 46.6739L46.1866 46.3744L46.1783 46.3739H46.17V46.6739ZM45.3236 46.6739V46.3739H45.0236V46.6739H45.3236ZM45.0202 50.8929L45.2323 51.105L45.2323 51.105L45.0202 50.8929ZM43.5552 50.8929L43.3431 51.105H43.3431L43.5552 50.8929ZM46.17 38.2686V38.5686H46.1707L46.17 38.2686ZM45.3236 44.6022H45.0236V44.9022H45.3236V44.6022ZM45.3236 40.3403V40.0403H45.0236V40.3403H45.3236ZM47.6768 40.9645L47.889 40.7523L47.6768 40.9645ZM11.2403 38.2686L11.2408 37.9686H11.2403V38.2686ZM10.8793 38.2686V37.9686H10.8788L10.8793 38.2686ZM15.1471 42.1753H15.4471L15.4471 42.1748L15.1471 42.1753ZM15.1471 47.2955L15.4471 47.2959V47.2955H15.1471ZM6.97253 47.2955H6.67253L6.67253 47.2959L6.97253 47.2955ZM6.97253 42.1753L6.67253 42.1748V42.1753H6.97253ZM8.11852 39.4145L7.90638 39.2024L8.11852 39.4145ZM13.0753 47.2955H12.7753H13.0753ZM12.5379 40.8778L12.3257 41.0899L12.5379 40.8778ZM9.58173 40.8778L9.3696 40.6656L9.58173 40.8778ZM9.04428 47.2955H9.34428H9.04428ZM10.1775 48.987L10.0634 49.2644L10.0634 49.2644L10.1775 48.987ZM10.8793 49.1245V48.8245L10.8783 48.8245L10.8793 49.1245ZM11.2403 49.1245L11.2413 48.8245H11.2403V49.1245ZM11.9421 48.987L12.0562 49.2644L12.0562 49.2644L11.9421 48.987ZM28.673 26.5876C31.0048 26.5844 33.2404 25.6583 34.8915 24.0119L34.4678 23.587C32.929 25.1215 30.8454 25.9846 28.6722 25.9876L28.673 26.5876ZM22.45 24.014C24.1024 25.6607 26.3396 26.586 28.6724 26.5876L28.6728 25.9876C26.4987 25.9861 24.4136 25.1237 22.8735 23.589L22.45 24.014ZM19.8548 17.8006C19.8645 20.1334 20.7976 22.3674 22.45 24.014L22.8735 23.589C21.3335 22.0543 20.4638 19.9722 20.4548 17.7981L19.8548 17.8006ZM19.8548 9.29332V17.7993H20.4548V9.29332H19.8548ZM22.5172 3.20104C20.8708 4.80469 19.9155 6.98782 19.8549 9.28541L20.4547 9.30123C20.5111 7.15998 21.4014 5.12539 22.9359 3.63086L22.5172 3.20104ZM28.6697 0.7C26.3713 0.7 24.1637 1.5974 22.5172 3.20104L22.9359 3.63086C24.4703 2.13634 26.5277 1.3 28.6697 1.3V0.7ZM34.8221 3.20104C33.1756 1.5974 30.9681 0.7 28.6697 0.7V1.3C30.8117 1.3 32.869 2.13634 34.4035 3.63086L34.8221 3.20104ZM37.4845 9.28541C37.4239 6.98782 36.4686 4.80469 34.8221 3.20104L34.4035 3.63086C35.9379 5.12539 36.8282 7.15998 36.8847 9.30123L37.4845 9.28541ZM37.4846 17.7993V9.29332H36.8846V17.7993H37.4846ZM34.8915 24.0119C36.5426 22.3654 37.4748 20.1323 37.4846 17.8006L36.8846 17.7981C36.8755 19.9712 36.0066 22.0525 34.4678 23.587L34.8915 24.0119ZM22.5264 9.30241C22.5748 7.70535 23.2433 6.18991 24.3901 5.07734L23.9723 4.6467C22.7135 5.86788 21.9798 7.53126 21.9267 9.28423L22.5264 9.30241ZM22.5265 17.7993V9.29332H21.9265V17.7993H22.5265ZM24.3901 22.0153C23.2433 20.9027 22.5748 19.3873 22.5264 17.7902L21.9267 17.8084C21.9798 19.5614 22.7135 21.2248 23.9723 22.446L24.3901 22.0153ZM28.6697 23.7501C27.0719 23.7501 25.5369 23.1279 24.3901 22.0153L23.9723 22.446C25.231 23.6671 26.9159 24.3501 28.6697 24.3501V23.7501ZM32.9493 22.0153C31.8025 23.1279 30.2675 23.7501 28.6697 23.7501V24.3501C30.4235 24.3501 32.1083 23.6671 33.3671 22.446L32.9493 22.0153ZM34.8129 17.7902C34.7645 19.3873 34.0961 20.9027 32.9493 22.0153L33.3671 22.446C34.6258 21.2248 35.3595 19.5614 35.4127 17.8084L34.8129 17.7902ZM34.8128 9.29332V17.7993H35.4128V9.29332H34.8128ZM32.9493 5.07734C34.0961 6.18991 34.7645 7.70535 34.8129 9.30241L35.4127 9.28423C35.3595 7.53126 34.6258 5.86788 33.3671 4.6467L32.9493 5.07734ZM28.6697 3.34254C30.2675 3.34254 31.8025 3.96477 32.9493 5.07734L33.3671 4.6467C32.1083 3.42552 30.4235 2.74254 28.6697 2.74254V3.34254ZM24.3901 5.07734C25.5369 3.96477 27.0719 3.34254 28.6697 3.34254V2.74254C26.9159 2.74254 25.231 3.42552 23.9723 4.6467L24.3901 5.07734ZM29.7085 33.6436H52.4563V33.0436H29.7085V33.6436ZM29.4085 30.822V33.3436H30.0085V30.822H29.4085ZM38.0592 26.4589C35.8759 28.8157 32.8869 30.2662 29.6845 30.5229L29.7325 31.121C33.0848 30.8523 36.2139 29.3339 38.4994 26.8667L38.0592 26.4589ZM41.472 17.7985C41.4605 21.0111 40.2424 24.1021 38.0592 26.4589L38.4994 26.8667C40.7849 24.3995 42.06 21.1637 42.072 17.8006L41.472 17.7985ZM41.2565 17.2792C41.3945 17.4172 41.472 17.6044 41.472 17.7995H42.072C42.072 17.4453 41.9313 17.1055 41.6807 16.8549L41.2565 17.2792ZM40.7361 17.0637C40.9313 17.0637 41.1185 17.1412 41.2565 17.2792L41.6807 16.8549C41.4302 16.6044 41.0904 16.4637 40.7361 16.4637V17.0637ZM40.2158 17.2792C40.3538 17.1412 40.541 17.0637 40.7361 17.0637V16.4637C40.3818 16.4637 40.0421 16.6044 39.7915 16.8549L40.2158 17.2792ZM40.0003 17.7995C40.0003 17.6044 40.0778 17.4172 40.2158 17.2792L39.7915 16.8549C39.541 17.1055 39.4003 17.4452 39.4003 17.7995H40.0003ZM36.6825 25.8094C38.8068 23.685 40.0003 20.8038 40.0003 17.7995H39.4003C39.4003 20.6447 38.27 23.3733 36.2582 25.3851L36.6825 25.8094ZM28.6726 29.1272C31.6769 29.1272 34.5581 27.9337 36.6825 25.8094L36.2582 25.3851C34.2464 27.3969 31.5178 28.5272 28.6726 28.5272V29.1272ZM20.6628 25.8094C22.7871 27.9337 25.6684 29.1272 28.6726 29.1272V28.5272C25.8275 28.5272 23.0989 27.3969 21.0871 25.3851L20.6628 25.8094ZM17.345 17.7995C17.345 20.8038 18.5385 23.685 20.6628 25.8094L21.0871 25.3851C19.0752 23.3733 17.945 20.6447 17.945 17.7995H17.345ZM17.1295 17.2792C17.2675 17.4172 17.345 17.6044 17.345 17.7995H17.945C17.945 17.4453 17.8043 17.1055 17.5538 16.8549L17.1295 17.2792ZM16.6091 17.0637C16.8043 17.0637 16.9915 17.1412 17.1295 17.2792L17.5538 16.8549C17.3032 16.6044 16.9634 16.4637 16.6091 16.4637V17.0637ZM16.0888 17.2792C16.2268 17.1412 16.414 17.0637 16.6091 17.0637V16.4637C16.2548 16.4637 15.9151 16.6044 15.6645 16.8549L16.0888 17.2792ZM15.8733 17.7995C15.8733 17.6044 15.9508 17.4172 16.0888 17.2792L15.6645 16.8549C15.414 17.1055 15.2733 17.4452 15.2733 17.7995H15.8733ZM19.2861 26.4589C17.1028 24.1021 15.8848 21.0111 15.8733 17.7985L15.2733 17.8006C15.2853 21.1637 16.5604 24.3995 18.8459 26.8667L19.2861 26.4589ZM27.6607 30.5229C24.4584 30.2662 21.4693 28.8157 19.2861 26.4589L18.8459 26.8667C21.1314 29.3339 24.2605 30.8523 27.6128 31.121L27.6607 30.5229ZM27.9368 33.3377V30.822H27.3368V33.3377H27.9368ZM4.88897 33.6377H27.6368V33.0377H4.88897V33.6377ZM2.35118 34.6888C3.02425 34.0158 3.93711 33.6377 4.88897 33.6377V33.0377C3.77798 33.0377 2.7125 33.479 1.92692 34.2646L2.35118 34.6888ZM1.3 37.2266C1.3 36.2748 1.67812 35.3619 2.35118 34.6888L1.92692 34.2646C1.14134 35.0502 0.7 36.1156 0.7 37.2266H1.3ZM1.3 52.232V37.2266H0.7V52.232H1.3ZM2.35291 54.7681C1.68008 54.0952 1.30144 53.1831 1.3 52.2316L0.7 52.2325C0.701687 53.3428 1.14352 54.4072 1.92865 55.1923L2.35291 54.7681ZM4.88942 55.821C3.93789 55.8195 3.02575 55.4409 2.35291 54.7681L1.92865 55.1923C2.71378 55.9775 3.77817 56.4193 4.88851 56.421L4.88942 55.821ZM52.4563 55.821H4.88897V56.421H52.4563V55.821ZM54.9924 54.7681C54.3195 55.4409 53.4074 55.8195 52.4559 55.821L52.4568 56.421C53.5671 56.4193 54.6315 55.9775 55.4166 55.1923L54.9924 54.7681ZM56.0453 52.2316C56.0438 53.1831 55.6652 54.0952 54.9924 54.7681L55.4166 55.1923C56.2018 54.4072 56.6436 53.3428 56.6453 52.2325L56.0453 52.2316ZM56.0453 37.2325V52.232H56.6453V37.2325H56.0453ZM54.9941 34.6948C55.6672 35.3678 56.0453 36.2807 56.0453 37.2325H56.6453C56.6453 36.1216 56.2039 35.0561 55.4184 34.2705L54.9941 34.6948ZM52.4563 33.6436C53.4082 33.6436 54.321 34.0217 54.9941 34.6948L55.4184 34.2705C54.6328 33.4849 53.5673 33.0436 52.4563 33.0436V33.6436ZM53.9517 53.7333C54.3482 53.3368 54.5717 52.7996 54.5735 52.2389L53.9735 52.237C53.9722 52.6392 53.8119 53.0246 53.5274 53.309L53.9517 53.7333ZM52.4573 54.3551C53.018 54.3533 53.5552 54.1298 53.9517 53.7333L53.5274 53.309C53.243 53.5935 52.8576 53.7538 52.4553 53.7551L52.4573 54.3551ZM4.88897 54.3551H52.4563V53.7551H4.88897V54.3551ZM3.39359 53.7333C3.79007 54.1298 4.32729 54.3533 4.88799 54.3551L4.88994 53.7551C4.48769 53.7538 4.10229 53.5935 3.81786 53.309L3.39359 53.7333ZM2.77175 52.2389C2.77357 52.7996 2.99711 53.3368 3.39359 53.7333L3.81786 53.309C3.53342 53.0246 3.37305 52.6392 3.37175 52.237L2.77175 52.2389ZM2.77175 37.2325V52.2379H3.37175V37.2325H2.77175ZM3.39187 35.7354C2.99481 36.1325 2.77175 36.671 2.77175 37.2325H3.37175C3.37175 36.8302 3.5316 36.4442 3.81613 36.1597L3.39187 35.7354ZM4.88897 35.1153C4.32745 35.1153 3.78892 35.3384 3.39187 35.7354L3.81613 36.1597C4.10066 35.8752 4.48658 35.7153 4.88897 35.7153V35.1153ZM52.4563 35.1153H4.88897V35.7153H52.4563V35.1153ZM53.9534 35.7354C53.5564 35.3384 53.0178 35.1153 52.4563 35.1153V35.7153C52.8587 35.7153 53.2446 35.8752 53.5292 36.1597L53.9534 35.7354ZM54.5735 37.2325C54.5735 36.671 54.3505 36.1325 53.9534 35.7354L53.5292 36.1597C53.8137 36.4442 53.9735 36.8302 53.9735 37.2325H54.5735ZM54.5735 52.2379V37.2325H53.9735V52.2379H54.5735ZM23.2097 38.7844C23.3477 38.6464 23.5349 38.5689 23.7301 38.5689V37.9689C23.3758 37.9689 23.036 38.1096 22.7855 38.3602L23.2097 38.7844ZM22.9942 39.3048C22.9942 39.1096 23.0717 38.9224 23.2097 38.7844L22.7855 38.3602C22.5349 38.6107 22.3942 38.9505 22.3942 39.3048H22.9942ZM22.9942 45.9225V39.3048H22.3942V45.9225H22.9942ZM18.746 38.9575L22.4278 46.0606L22.9605 45.7845L19.2787 38.6813L18.746 38.9575ZM18.3969 38.6204C18.5473 38.6897 18.6699 38.8077 18.745 38.9553L19.2798 38.6835C19.1436 38.4155 18.921 38.2013 18.6479 38.0755L18.3969 38.6204ZM17.9161 38.5735C18.0771 38.5346 18.2465 38.5511 18.3969 38.6204L18.6479 38.0755C18.3749 37.9497 18.0674 37.9197 17.7751 37.9903L17.9161 38.5735ZM17.5098 38.8348C17.612 38.7045 17.7551 38.6124 17.9161 38.5735L17.7751 37.9903C17.4829 38.0609 17.2231 38.2281 17.0376 38.4647L17.5098 38.8348ZM17.3531 39.2917C17.3524 39.1261 17.4077 38.9652 17.5098 38.8348L17.0376 38.4647C16.8521 38.7013 16.7519 38.9935 16.7531 39.2941L17.3531 39.2917ZM17.3531 50.1489V39.2929H16.7531V50.1489H17.3531ZM17.5686 50.6692C17.4306 50.5312 17.3531 50.3441 17.3531 50.1489H16.7531C16.7531 50.5032 16.8939 50.843 17.1444 51.0935L17.5686 50.6692ZM18.089 50.8848C17.8938 50.8848 17.7066 50.8073 17.5686 50.6692L17.1444 51.0935C17.3949 51.344 17.7347 51.4848 18.089 51.4848V50.8848ZM18.6093 50.6692C18.4713 50.8073 18.2841 50.8848 18.089 50.8848V51.4848C18.4433 51.4848 18.7831 51.344 19.0336 51.0935L18.6093 50.6692ZM18.8249 50.1489C18.8249 50.3441 18.7473 50.5312 18.6093 50.6692L19.0336 51.0935C19.2841 50.843 19.4249 50.5032 19.4249 50.1489H18.8249ZM18.8249 43.5489V50.1489H19.4249V43.5489H18.8249ZM23.073 50.514L19.3912 43.4109L18.8585 43.687L22.5403 50.7901L23.073 50.514ZM23.4231 50.8515C23.2723 50.7823 23.1493 50.6641 23.0741 50.5161L22.5392 50.788C22.6757 51.0566 22.899 51.2711 23.1729 51.3968L23.4231 50.8515ZM23.905 50.8975C23.7438 50.937 23.574 50.9208 23.4231 50.8515L23.1729 51.3968C23.4467 51.5225 23.755 51.5519 24.0476 51.4803L23.905 50.8975ZM24.3112 50.6342C24.2094 50.7653 24.0662 50.8581 23.905 50.8975L24.0476 51.4803C24.3403 51.4087 24.6002 51.2402 24.785 51.0023L24.3112 50.6342ZM24.4659 50.1755C24.4676 50.3415 24.413 50.5031 24.3112 50.6342L24.785 51.0023C24.9699 50.7644 25.0689 50.4709 25.0659 50.1696L24.4659 50.1755ZM24.4659 39.3048V50.1726H25.0659V39.3048H24.4659ZM24.2487 38.7862C24.3868 38.9242 24.4648 39.1112 24.4659 39.3065L25.0659 39.3031C25.0639 38.9499 24.9227 38.6117 24.6729 38.3619L24.2487 38.7862ZM23.7284 38.5689C23.9236 38.57 24.1106 38.6481 24.2487 38.7862L24.6729 38.3619C24.4232 38.1121 24.085 37.9709 23.7318 37.9689L23.7284 38.5689ZM39.2465 38.7876C39.3818 38.65 39.5658 38.571 39.7587 38.5677L39.7484 37.9678C39.3981 37.9738 39.0642 38.1172 38.8186 38.3671L39.2465 38.7876ZM39.0355 39.3036C39.0354 39.1106 39.1112 38.9253 39.2465 38.7876L38.8186 38.3671C38.573 38.6169 38.4354 38.9533 38.4355 39.3036L39.0355 39.3036ZM39.0355 50.1596V39.3036H38.4355V50.1596H39.0355ZM39.251 50.6799C39.113 50.5419 39.0355 50.3547 39.0355 50.1596H38.4355C38.4355 50.5139 38.5762 50.8536 38.8267 51.1042L39.251 50.6799ZM39.7713 50.8954C39.5762 50.8954 39.389 50.8179 39.251 50.6799L38.8267 51.1042C39.0773 51.3547 39.4171 51.4954 39.7713 51.4954V50.8954ZM40.2917 50.6799C40.1537 50.8179 39.9665 50.8954 39.7713 50.8954V51.4954C40.1256 51.4954 40.4654 51.3547 40.716 51.1042L40.2917 50.6799ZM40.5072 50.1596C40.5072 50.3547 40.4297 50.5419 40.2917 50.6799L40.716 51.1042C40.9665 50.8536 41.1072 50.5139 41.1072 50.1596H40.5072ZM40.5072 39.3036V50.1596H41.1072V39.3036H40.5072ZM40.45 39.019C40.4878 39.1091 40.5072 39.2059 40.5072 39.3036L41.1072 39.3037C41.1073 39.1263 41.0719 38.9507 41.0034 38.7871L40.45 39.019ZM40.2872 38.7787C40.3569 38.8472 40.4123 38.9289 40.45 39.019L41.0034 38.7871C40.9348 38.6235 40.8344 38.4752 40.7079 38.3509L40.2872 38.7787ZM40.0442 38.62C40.135 38.6563 40.2176 38.7102 40.2873 38.7787L40.7079 38.3508C40.5814 38.2265 40.4314 38.1286 40.2667 38.0628L40.0442 38.62ZM39.7587 38.5677C39.8564 38.566 39.9535 38.5838 40.0442 38.62L40.2667 38.0628C40.102 37.997 39.9258 37.9647 39.7484 37.9678L39.7587 38.5677ZM33.2173 38.7108C33.3435 38.8037 33.4364 38.9347 33.4823 39.0846L34.056 38.9087C33.9723 38.6357 33.803 38.397 33.5731 38.2277L33.2173 38.7108ZM32.7817 38.5686C32.9384 38.568 33.0911 38.6178 33.2173 38.7108L33.5731 38.2277C33.3432 38.0584 33.065 37.9675 32.7795 37.9686L32.7817 38.5686ZM32.3456 38.7131C32.4721 38.6199 32.6249 38.5693 32.782 38.5686L32.7792 37.9686C32.495 37.9699 32.2186 38.0614 31.9898 38.23L32.3456 38.7131ZM32.0782 39.087C32.1255 38.9372 32.2191 38.8062 32.3456 38.7131L31.9898 38.23C31.761 38.3985 31.5916 38.6353 31.506 38.9063L32.0782 39.087ZM28.6986 49.9418L32.0785 39.0858L31.5056 38.9075L28.1257 49.7634L28.6986 49.9418ZM28.6392 50.2621C28.6356 50.16 28.6532 50.0584 28.6909 49.9635L28.1334 49.7417C28.0649 49.9138 28.033 50.0984 28.0396 50.2836L28.6392 50.2621ZM28.7122 50.5561C28.6677 50.4642 28.6429 50.3641 28.6392 50.2621L28.0396 50.2836C28.0462 50.4688 28.0914 50.6506 28.1721 50.8174L28.7122 50.5561ZM28.8974 50.7958C28.8197 50.7296 28.7566 50.648 28.7122 50.5561L28.1721 50.8174C28.2527 50.9842 28.3673 51.1324 28.5083 51.2526L28.8974 50.7958ZM29.1636 50.9406C29.0658 50.9114 28.9751 50.862 28.8974 50.7958L28.5083 51.2526C28.6494 51.3728 28.8139 51.4623 28.9915 51.5154L29.1636 50.9406ZM29.4655 50.9659C29.3642 50.9785 29.2613 50.9699 29.1636 50.9406L28.9915 51.5154C29.169 51.5686 29.3556 51.5842 29.5395 51.5613L29.4655 50.9659ZM29.752 50.8674C29.6643 50.9198 29.5668 50.9533 29.4655 50.9659L29.5395 51.5613C29.7234 51.5385 29.9006 51.4776 30.0597 51.3825L29.752 50.8674ZM29.9745 50.6619C29.9154 50.7451 29.8396 50.8151 29.752 50.8674L30.0597 51.3825C30.2187 51.2875 30.3563 51.1604 30.4637 51.0093L29.9745 50.6619ZM30.0954 50.384C30.0748 50.484 30.0336 50.5786 29.9745 50.6619L30.4637 51.0093C30.571 50.8583 30.6457 50.6865 30.6831 50.505L30.0954 50.384ZM30.6944 48.4325L30.1025 50.3563L30.676 50.5327L31.2679 48.609L30.6944 48.4325ZM34.5919 48.2208H30.9811V48.8208H34.5919V48.2208ZM35.4706 50.3563L34.8786 48.4325L34.3052 48.609L34.8971 50.5327L35.4706 50.3563ZM35.5985 50.6619C35.5394 50.5786 35.4983 50.484 35.4777 50.384L34.89 50.505C34.9274 50.6865 35.0021 50.8583 35.1094 51.0093L35.5985 50.6619ZM35.8211 50.8674C35.7334 50.8151 35.6577 50.7451 35.5985 50.6618L35.1094 51.0093C35.2167 51.1604 35.3543 51.2875 35.5134 51.3825L35.8211 50.8674ZM36.1076 50.9659C36.0063 50.9533 35.9087 50.9198 35.8211 50.8674L35.5134 51.3825C35.6725 51.4776 35.8496 51.5385 36.0335 51.5613L36.1076 50.9659ZM36.4095 50.9406C36.3117 50.9699 36.2089 50.9785 36.1076 50.9659L36.0335 51.5613C36.2174 51.5842 36.4041 51.5686 36.5816 51.5154L36.4095 50.9406ZM36.6756 50.7958C36.5979 50.862 36.5073 50.9114 36.4095 50.9406L36.5816 51.5154C36.7591 51.4623 36.9237 51.3728 37.0647 51.2526L36.6756 50.7958ZM36.8609 50.5561C36.8164 50.648 36.7533 50.7296 36.6756 50.7958L37.0647 51.2526C37.2058 51.1324 37.3203 50.9842 37.401 50.8174L36.8609 50.5561ZM36.9338 50.2621C36.9302 50.3641 36.9053 50.4642 36.8609 50.5561L37.401 50.8174C37.4817 50.6506 37.5268 50.4688 37.5335 50.2836L36.9338 50.2621ZM36.8821 49.9635C36.9199 50.0584 36.9375 50.16 36.9338 50.2621L37.5335 50.2836C37.5401 50.0984 37.5081 49.9138 37.4396 49.7417L36.8821 49.9635ZM34.9878 43.9066C35.6986 46.1842 36.2449 47.9346 36.8746 49.9424L37.4471 49.7628C36.8175 47.7555 36.2714 46.0055 35.5606 43.7279L34.9878 43.9066ZM34.9861 43.901L34.9878 43.9066L35.5606 43.7279L35.5588 43.7223L34.9861 43.901ZM34.9826 43.8898L34.9861 43.901L35.5588 43.7223L35.5554 43.7112L34.9826 43.8898ZM34.981 43.8847L34.9826 43.8898L35.5554 43.7112L35.5538 43.7061L34.981 43.8847ZM33.4828 39.0861C34.0755 40.9833 34.5575 42.5277 34.981 43.8847L35.5537 43.706C35.1303 42.349 34.6482 40.8045 34.0555 38.9072L33.4828 39.0861ZM32.4942 42.7017L31.3458 46.3894L31.9187 46.5678L33.067 42.8801L32.4942 42.7017ZM34.2501 46.3869L33.0663 42.6992L32.495 42.8826L33.6788 46.5703L34.2501 46.3869ZM31.6323 46.7786H33.9645V46.1786H31.6323V46.7786ZM48.757 46.1503C49.5416 45.6015 50.1306 44.8167 50.4382 43.91L49.87 43.7173C49.6035 44.503 49.0931 45.1831 48.4132 45.6586L48.757 46.1503ZM50.5587 49.6551L48.8598 45.7839L48.3104 46.025L50.0092 49.8962L50.5587 49.6551ZM50.6884 50.1609C50.6787 49.9809 50.6327 49.8049 50.5531 49.6432L50.0148 49.9081C50.0586 49.9972 50.084 50.0942 50.0893 50.1933L50.6884 50.1609ZM50.6098 50.6901C50.6714 50.5208 50.6982 50.3408 50.6884 50.1609L50.0893 50.1933C50.0947 50.2924 50.0799 50.3916 50.046 50.4848L50.6098 50.6901ZM50.3297 51.1461C50.4528 51.0145 50.5481 50.8594 50.6098 50.6901L50.046 50.4848C50.012 50.5781 49.9595 50.6635 49.8917 50.736L50.3297 51.1461ZM49.8932 51.4555C50.0581 51.3829 50.2065 51.2776 50.3297 51.1461L49.8917 50.736C49.8239 50.8084 49.7421 50.8664 49.6512 50.9064L49.8932 51.4555ZM49.3702 51.5688C49.5504 51.5667 49.7283 51.5282 49.8932 51.4555L49.6512 50.9064C49.5604 50.9465 49.4624 50.9677 49.3632 50.9689L49.3702 51.5688ZM48.8448 51.4678C49.0113 51.5366 49.1901 51.5709 49.3702 51.5688L49.3632 50.9689C49.2639 50.97 49.1655 50.9511 49.0737 50.9132L48.8448 51.4678ZM48.4011 51.1687C48.5273 51.2973 48.6782 51.3991 48.8448 51.4678L49.0737 50.9132C48.982 50.8754 48.8988 50.8193 48.8293 50.7485L48.4011 51.1687ZM48.1104 50.7195C48.176 50.8873 48.2749 51.0401 48.4011 51.1687L48.8293 50.7485C48.7598 50.6776 48.7053 50.5935 48.6692 50.501L48.1104 50.7195ZM46.3751 46.7952L48.1154 50.7316L48.6641 50.489L46.9239 46.5526L46.3751 46.7952ZM46.1535 46.9735C46.3242 46.9829 46.4953 46.9829 46.6661 46.9735L46.6329 46.3744C46.4843 46.3826 46.3353 46.3826 46.1866 46.3744L46.1535 46.9735ZM45.3236 46.9739H46.17V46.3739H45.3236V46.9739ZM45.6236 50.1604V46.6739H45.0236V50.1604H45.6236ZM45.2323 51.105C45.4828 50.8545 45.6236 50.5147 45.6236 50.1604H45.0236C45.0236 50.3556 44.9461 50.5427 44.808 50.6807L45.2323 51.105ZM44.2877 51.4963C44.642 51.4963 44.9818 51.3555 45.2323 51.105L44.8081 50.6807C44.67 50.8187 44.4829 50.8963 44.2877 50.8963V51.4963ZM43.3431 51.105C43.5936 51.3555 43.9334 51.4963 44.2877 51.4963V50.8963C44.0925 50.8963 43.9054 50.8187 43.7674 50.6807L43.3431 51.105ZM42.9518 50.1604C42.9518 50.5147 43.0926 50.8545 43.3431 51.105L43.7674 50.6807C43.6294 50.5427 43.5518 50.3556 43.5518 50.1604H42.9518ZM42.9518 39.3044V50.1604H43.5518V39.3044H42.9518ZM43.3431 38.3598C43.0926 38.6104 42.9518 38.9501 42.9518 39.3044H43.5518C43.5518 39.1093 43.6294 38.9221 43.7674 38.7841L43.3431 38.3598ZM44.2877 37.9686C43.9334 37.9686 43.5936 38.1093 43.3431 38.3598L43.7674 38.7841C43.9054 38.6461 44.0925 38.5686 44.2877 38.5686V37.9686ZM46.17 37.9686H44.2877V38.5686H46.17V37.9686ZM48.833 38.8346C48.0599 38.2697 47.1268 37.9663 46.1693 37.9686L46.1707 38.5686C47.0004 38.5666 47.8091 38.8296 48.479 39.3191L48.833 38.8346ZM50.4673 41.1093C50.1785 40.1964 49.606 39.3995 48.833 38.8346L48.479 39.3191C49.1488 39.8086 49.645 40.4992 49.8952 41.2902L50.4673 41.1093ZM50.4382 43.91C50.7458 43.0034 50.756 42.0222 50.4673 41.1093L49.8952 41.2902C50.1454 42.0813 50.1366 42.9316 49.87 43.7173L50.4382 43.91ZM45.6236 44.6022V40.3403H45.0236V44.6022H45.6236ZM46.17 44.3022H45.3236V44.9022H46.17V44.3022ZM47.4647 43.7659C47.1213 44.1093 46.6556 44.3022 46.17 44.3022V44.9022C46.8148 44.9022 47.4331 44.6461 47.889 44.1902L47.4647 43.7659ZM48.001 42.4713C48.001 42.9569 47.8081 43.4226 47.4647 43.7659L47.889 44.1902C48.3449 43.7343 48.601 43.116 48.601 42.4713H48.001ZM47.4647 41.1766C47.8081 41.52 48.001 41.9857 48.001 42.4713H48.601C48.601 41.8265 48.3449 41.2082 47.889 40.7523L47.4647 41.1766ZM46.17 40.6403C46.6556 40.6403 47.1213 40.8332 47.4647 41.1766L47.889 40.7523C47.4331 40.2964 46.8148 40.0403 46.17 40.0403V40.6403ZM45.3236 40.6403H46.17V40.0403H45.3236V40.6403ZM11.2403 37.9686H10.8793V38.5686H11.2403V37.9686ZM14.2132 39.2024C13.4247 38.4139 12.3558 37.9702 11.2408 37.9686L11.2399 38.5686C12.1961 38.57 13.1128 38.9505 13.7889 39.6267L14.2132 39.2024ZM15.4471 42.1748C15.4454 41.0598 15.0017 39.9909 14.2132 39.2024L13.7889 39.6267C14.4651 40.3028 14.8456 41.2195 14.8471 42.1757L15.4471 42.1748ZM15.4471 47.2955V42.1753H14.8471V47.2955H15.4471ZM14.2127 50.2664C15.0014 49.4789 15.4454 48.4105 15.4471 47.2959L14.8471 47.295C14.8456 48.2506 14.465 49.1666 13.7887 49.8418L14.2127 50.2664ZM11.2403 51.4963C12.3549 51.4963 13.424 51.0539 14.2127 50.2664L13.7887 49.8418C13.1125 50.517 12.196 50.8963 11.2403 50.8963V51.4963ZM10.8793 51.4963H11.2403V50.8963H10.8793V51.4963ZM7.90691 50.2664C8.69564 51.0539 9.76467 51.4963 10.8793 51.4963V50.8963C9.92364 50.8963 9.00708 50.517 8.33085 49.8418L7.90691 50.2664ZM6.67253 47.2959C6.67422 48.4105 7.11818 49.4789 7.90691 50.2664L8.33085 49.8418C7.65461 49.1666 7.27398 48.2506 7.27253 47.295L6.67253 47.2959ZM6.67253 42.1753V47.2955H7.27253V42.1753H6.67253ZM7.90638 39.2024C7.11792 39.9909 6.67422 41.0598 6.67253 42.1748L7.27253 42.1757C7.27398 41.2195 7.65448 40.3028 8.33065 39.6267L7.90638 39.2024ZM10.8788 37.9686C9.76375 37.9702 8.69485 38.4139 7.90638 39.2024L8.33065 39.6267C9.00681 38.9505 9.92347 38.57 10.8797 38.5686L10.8788 37.9686ZM12.7753 47.2955C12.7753 47.4967 12.7356 47.6959 12.6584 47.8818L13.2126 48.1118C13.32 47.8531 13.3753 47.5756 13.3753 47.2955H12.7753ZM12.7753 42.1753V47.2955H13.3753V42.1753H12.7753ZM12.3257 41.0899C12.6136 41.3778 12.7753 41.7682 12.7753 42.1753H13.3753C13.3753 41.6091 13.1504 41.066 12.75 40.6656L12.3257 41.0899ZM11.2403 40.6403C11.6474 40.6403 12.0379 40.802 12.3257 41.0899L12.75 40.6656C12.3496 40.2652 11.8066 40.0403 11.2403 40.0403V40.6403ZM10.8793 40.6403H11.2403V40.0403H10.8793V40.6403ZM9.79387 41.0899C10.0817 40.802 10.4722 40.6403 10.8793 40.6403V40.0403C10.313 40.0403 9.76999 40.2652 9.3696 40.6656L9.79387 41.0899ZM9.34428 42.1753C9.34428 41.7682 9.506 41.3778 9.79387 41.0899L9.3696 40.6656C8.96922 41.066 8.74428 41.6091 8.74428 42.1753H9.34428ZM9.34428 47.2955V42.1753H8.74428V47.2955H9.34428ZM9.46115 47.8818C9.384 47.6959 9.34428 47.4967 9.34428 47.2955H8.74428C8.74428 47.5756 8.79958 47.8531 8.90701 48.1118L9.46115 47.8818ZM9.79388 48.3784C9.65137 48.2364 9.5383 48.0676 9.46115 47.8818L8.90701 48.1118C9.01443 48.3706 9.17187 48.6056 9.3703 48.8034L9.79388 48.3784ZM10.2916 48.7096C10.1055 48.633 9.93639 48.5205 9.79388 48.3784L9.3703 48.8034C9.56873 49.0012 9.80425 49.1578 10.0634 49.2644L10.2916 48.7096ZM10.8783 48.8245C10.6771 48.8252 10.4777 48.7861 10.2916 48.7095L10.0634 49.2644C10.3225 49.371 10.6001 49.4254 10.8802 49.4245L10.8783 48.8245ZM11.2403 48.8245H10.8793V49.4245H11.2403V48.8245ZM11.828 48.7095C11.6419 48.7861 11.4425 48.8252 11.2413 48.8245L11.2394 49.4245C11.5195 49.4254 11.7971 49.371 12.0562 49.2644L11.828 48.7095ZM12.3257 48.3784C12.1832 48.5205 12.0141 48.633 11.828 48.7096L12.0562 49.2644C12.3153 49.1578 12.5509 49.0012 12.7493 48.8034L12.3257 48.3784ZM12.6584 47.8818C12.5813 48.0676 12.4682 48.2364 12.3257 48.3784L12.7493 48.8034C12.9477 48.6056 13.1052 48.3706 13.2126 48.1118L12.6584 47.8818Z" fill="url(#paint1_linear_101_778)"/>
<defs>
<linearGradient id="paint0_linear_101_778" x1="1" y1="9.70332" x2="59.8481" y2="12.03" gradientUnits="userSpaceOnUse">
<stop stop-color="#03E2CD"/>
<stop offset="1" stop-color="#6254FC"/>
</linearGradient>
<linearGradient id="paint1_linear_101_778" x1="1" y1="9.70332" x2="59.8481" y2="12.03" gradientUnits="userSpaceOnUse">
<stop stop-color="#03E2CD"/>
<stop offset="1" stop-color="#6254FC"/>
</linearGradient>
</defs>
</svg>
