<svg width="54" height="47" viewBox="0 0 54 47" fill="none" xmlns="http://www.w3.org/2000/svg">
<path d="M41.4085 3.32361H2.15715C1.5995 3.32361 1.14728 3.77583 1.14728 4.33348V43.7991C1.14728 44.3568 1.5995 44.809 2.15715 44.809H41.4085C41.9661 44.809 42.4183 44.3568 42.4183 43.7991V4.33348C42.4183 3.77583 41.9661 3.32361 41.4085 3.32361ZM3.16702 18.4985H14.231V29.6341H3.16702V18.4985ZM16.2508 18.4985H27.3149V29.6341H16.2508V18.4985ZM29.3346 18.4985H40.3986V29.6341H29.3346V18.4985ZM40.3986 16.4788H29.3346V5.34335H40.3986V16.4788ZM27.3148 16.4788H16.2507V5.34335H27.3148V16.4788ZM3.16702 5.34335H14.231V16.4788H3.16702V5.34335ZM3.16702 31.6537H14.231V42.7892H3.16702V31.6537ZM16.2508 31.6537H27.3149V42.7892H16.2508V31.6537ZM40.3986 42.7892H29.3346V31.6537H40.3986V42.7892Z" fill="url(#paint0_linear_431_781)" stroke="url(#paint1_linear_431_781)" stroke-width="0.6"/>
<path d="M50.3907 1H47.7542C46.3968 1 45.2924 2.10793 45.2924 3.46974V38.6208C45.2924 38.6218 45.2956 38.7006 45.296 38.7048C45.2961 38.7057 45.3369 38.9389 45.3844 39.0423L48.1465 45.3929C48.3069 45.7615 48.6705 46 49.0726 46C49.4746 46 49.8382 45.7616 49.9986 45.3929L52.7607 39.0423C52.8083 38.939 52.8491 38.7057 52.8492 38.7048C52.8495 38.7006 52.8527 38.6219 52.8527 38.6208V3.46974C52.8526 2.10793 51.7482 1 50.3907 1ZM47.3122 9.32436H50.8329V37.6109H47.3122V9.32436ZM47.3122 3.46974C47.3122 3.22161 47.5105 3.01974 47.7542 3.01974H50.3907C50.6345 3.01974 50.8329 3.22161 50.8329 3.46974V7.30462H47.3122V3.46974ZM49.0725 42.4582L47.8426 39.6307H50.3022L49.0725 42.4582Z" fill="url(#paint2_linear_431_781)" stroke="url(#paint3_linear_431_781)" stroke-width="0.6"/>
<defs>
<linearGradient id="paint0_linear_431_781" x1="1.14728" y1="9.87392" x2="45.0316" y2="11.5931" gradientUnits="userSpaceOnUse">
<stop stop-color="#03E2CD"/>
<stop offset="1" stop-color="#6254FC"/>
</linearGradient>
<linearGradient id="paint1_linear_431_781" x1="1.14728" y1="9.87392" x2="45.0316" y2="11.5931" gradientUnits="userSpaceOnUse">
<stop stop-color="#03E2CD"/>
<stop offset="1" stop-color="#6254FC"/>
</linearGradient>
<linearGradient id="paint2_linear_431_781" x1="45.2924" y1="8.10525" x2="53.3434" y2="8.15852" gradientUnits="userSpaceOnUse">
<stop stop-color="#03E2CD"/>
<stop offset="1" stop-color="#6254FC"/>
</linearGradient>
<linearGradient id="paint3_linear_431_781" x1="45.2924" y1="8.10525" x2="53.3434" y2="8.15852" gradientUnits="userSpaceOnUse">
<stop stop-color="#03E2CD"/>
<stop offset="1" stop-color="#6254FC"/>
</linearGradient>
</defs>
</svg>
