<svg width="35" height="36" viewBox="0 0 35 36" fill="none" xmlns="http://www.w3.org/2000/svg">
<path d="M4.27408 16.8353V19.1667C4.27408 20.3469 3.31729 21.3037 2.13704 21.3037C0.956793 21.3037 0 20.3469 0 19.1667V16.8353C0 15.655 0.956793 14.6982 2.13704 14.6982C3.31729 14.6982 4.27408 15.655 4.27408 16.8353Z" fill="#60666D"/>
<path d="M29.9194 16.8961C29.9188 16.8758 29.9185 16.8555 29.9185 16.8353C29.9185 15.655 30.8753 14.6982 32.0556 14.6982C33.2358 14.6982 34.1926 15.655 34.1926 16.8353C34.1926 16.8556 34.1923 16.8759 34.1917 16.8961H34.1926V19.2274H34.1917C34.1597 20.3795 33.2155 21.3036 32.0556 21.3036C30.8956 21.3036 29.9515 20.3795 29.9194 19.2274H29.9185V16.896H29.9194V16.8961Z" fill="#60666D"/>
<path d="M11.6566 23.8291V26.1604C11.6566 27.3406 10.6998 28.2974 9.51952 28.2974C8.3392 28.2974 7.38248 27.3406 7.38248 26.1604V23.829C7.38248 22.6488 8.33927 21.692 9.51952 21.692C10.6998 21.692 11.6566 22.6488 11.6566 23.829V23.8291ZM11.6566 9.84114V17.4665H11.656C11.6302 18.6243 10.6835 19.555 9.51952 19.555C8.3555 19.555 7.40886 18.6243 7.38308 17.4665H7.38248V9.84114C7.38248 8.66089 8.33927 7.7041 9.51952 7.7041C10.6998 7.7041 11.6566 8.66089 11.6566 9.84114Z" fill="#60666D"/>
<path d="M22.5361 12.1725C22.5361 13.3527 23.4929 14.3095 24.6732 14.3095C25.8535 14.3095 26.8102 13.3527 26.8102 12.1725V9.84114C26.8102 8.66089 25.8534 7.7041 24.6732 7.7041C23.4929 7.7041 22.5361 8.66089 22.5361 9.84114V12.1725Z" fill="#60666D"/>
<path d="M14.9593 5.37272C14.9593 6.5529 15.9161 7.50976 17.0963 7.50976C18.2766 7.50976 19.2334 6.5529 19.2334 5.37272V3.04134C19.2334 1.86109 18.2766 0.904297 17.0963 0.904297C15.9161 0.904297 14.9593 1.86109 14.9593 3.04134V5.37272ZM14.9593 30.6285C14.9593 29.4483 15.9161 28.4915 17.0963 28.4915C18.2766 28.4915 19.2334 29.4483 19.2334 30.6285V32.9599C19.2334 34.1402 18.2766 35.0969 17.0963 35.0969C15.9161 35.0969 14.9593 34.1402 14.9593 32.9599V30.6285Z" fill="#60666D"/>
<path d="M22.5361 18.5833C22.5361 17.4031 23.4929 16.4463 24.6732 16.4463C25.8535 16.4463 26.8102 17.4031 26.8102 18.5833V26.1601C26.8102 27.3404 25.8534 28.2972 24.6732 28.2972C23.4929 28.2972 22.5361 27.3404 22.5361 26.1601V18.5833Z" fill="#60666D"/>
<path d="M19.2334 11.7835V24.2171C19.2334 25.3974 18.2766 26.3541 17.0963 26.3541C15.9161 26.3541 14.9593 25.3974 14.9593 24.2171V11.7835C14.9593 10.6032 15.9161 9.64648 17.0963 9.64648C18.2766 9.64648 19.2334 10.6032 19.2334 11.7835Z" fill="#60666D"/>
</svg>
