<svg width="47" height="48" viewBox="0 0 47 48" fill="none" xmlns="http://www.w3.org/2000/svg">
<path d="M5.81957 22.4128V25.5872C5.81957 27.1942 4.51681 28.497 2.90979 28.497C1.30277 28.497 0 27.1942 0 25.5872V22.4128C0 20.8058 1.30277 19.503 2.90979 19.503C4.51681 19.503 5.81957 20.8058 5.81957 22.4128Z" fill="#0066D9"/>
<path d="M40.7381 22.4956C40.7373 22.468 40.7369 22.4404 40.7369 22.4128C40.7369 20.8058 42.0397 19.503 43.6467 19.503C45.2537 19.503 46.5565 20.8058 46.5565 22.4128C46.5565 22.4405 46.5561 22.4681 46.5553 22.4956H46.5565V25.6699H46.5553C46.5117 27.2386 45.2261 28.4969 43.6467 28.4969C42.0673 28.4969 40.7819 27.2386 40.7381 25.6699H40.7369V22.4955H40.7381V22.4956Z" fill="#4285F4"/>
<path d="M15.8715 31.9358V35.1101C15.8715 36.7171 14.5689 38.0199 12.9618 38.0199C11.3546 38.0199 10.052 36.7171 10.052 35.1101V31.9357C10.052 30.3288 11.3547 29.0259 12.9618 29.0259C14.5688 29.0259 15.8715 30.3288 15.8715 31.9357V31.9358ZM15.8715 12.8899V23.2726H15.8708C15.8357 24.849 14.5467 26.1162 12.9618 26.1162C11.3768 26.1162 10.0879 24.849 10.0528 23.2726H10.052V12.8899C10.052 11.2829 11.3547 9.9801 12.9618 9.9801C14.5688 9.9801 15.8715 11.2829 15.8715 12.8899Z" fill="#EA4335"/>
<path d="M30.6851 16.0642C30.6851 17.6712 31.9878 18.974 33.5949 18.974C35.202 18.974 36.5047 17.6712 36.5047 16.0642V12.8899C36.5047 11.2829 35.2019 9.9801 33.5949 9.9801C31.9879 9.9801 30.6851 11.2829 30.6851 12.8899V16.0642Z" fill="#34A853"/>
<path d="M20.3685 6.80589C20.3685 8.41282 21.6713 9.71568 23.2783 9.71568C24.8854 9.71568 26.1881 8.41282 26.1881 6.80589V3.6315C26.1881 2.02448 24.8854 0.72171 23.2783 0.72171C21.6713 0.72171 20.3685 2.02448 20.3685 3.6315V6.80589ZM20.3685 41.1941C20.3685 39.5872 21.6713 38.2843 23.2783 38.2843C24.8854 38.2843 26.1881 39.5872 26.1881 41.1941V44.3685C26.1881 45.9755 24.8854 47.2783 23.2783 47.2783C21.6713 47.2783 20.3685 45.9755 20.3685 44.3685V41.1941Z" fill="#FAB908"/>
<path d="M30.6851 24.7935C30.6851 23.1865 31.9878 21.8838 33.5949 21.8838C35.202 21.8838 36.5047 23.1865 36.5047 24.7935V35.1101C36.5047 36.7171 35.2019 38.0199 33.5949 38.0199C31.9879 38.0199 30.6851 36.7171 30.6851 35.1101V24.7935Z" fill="#34A853"/>
<path d="M26.1881 15.5353V32.4648C26.1881 34.0719 24.8854 35.3746 23.2783 35.3746C21.6713 35.3746 20.3685 34.0719 20.3685 32.4648V15.5353C20.3685 13.9282 21.6713 12.6255 23.2783 12.6255C24.8854 12.6255 26.1881 13.9282 26.1881 15.5353Z" fill="#FAB908"/>
</svg>
