<svg width="46" height="53" viewBox="0 0 46 53" fill="none" xmlns="http://www.w3.org/2000/svg">
<path fill-rule="evenodd" clip-rule="evenodd" d="M23.0073 1C17.1733 1.00873 11.5808 3.33013 7.45554 7.45537C3.3303 11.5806 1.0089 17.1731 1.00017 23.0071C0.988333 26.0071 1.59541 28.9773 2.78345 31.732C3.97149 34.4867 5.71496 36.9668 7.90489 39.0173C7.98687 39.133 8.09341 39.2292 8.21688 39.2989C8.34035 39.3687 8.4777 39.4103 8.61913 39.4208C8.76056 39.4314 8.90256 39.4105 9.035 39.3598C9.16743 39.309 9.28702 39.2297 9.38521 39.1273C9.48341 39.025 9.55779 38.9023 9.60303 38.7679C9.64828 38.6335 9.66328 38.4907 9.64695 38.3498C9.63062 38.209 9.58337 38.0734 9.50859 37.9529C9.4338 37.8324 9.33331 37.73 9.21432 37.6528C6.2881 34.8913 4.25834 31.315 3.38788 27.3868C2.51743 23.4586 2.84636 19.3595 4.3321 15.6204C5.81784 11.8813 8.39194 8.67433 11.7211 6.41484C15.0502 4.15535 18.981 2.94739 23.0045 2.94739C27.028 2.94739 30.9588 4.15535 34.2879 6.41484C37.6171 8.67433 40.1912 11.8813 41.6769 15.6204C43.1627 19.3595 43.4916 23.4586 42.6211 27.3868C41.7507 31.315 39.7209 34.8913 36.7947 37.6528C36.6946 37.7373 36.6128 37.8413 36.5543 37.9585C36.4958 38.0757 36.4618 38.2036 36.4544 38.3343C36.4471 38.4651 36.4665 38.596 36.5114 38.719C36.5564 38.8421 36.626 38.9546 36.7159 39.0498C36.8059 39.145 36.9143 39.2209 37.0346 39.2727C37.1549 39.3246 37.2844 39.3513 37.4154 39.3514C37.5464 39.3514 37.676 39.3247 37.7963 39.273C37.9166 39.2212 38.0251 39.1454 38.1151 39.0503C40.3075 36.9962 42.0519 34.5114 43.2391 31.7517C44.4263 28.992 45.0307 26.0168 45.0144 23.0126C45.0071 17.1777 42.6863 11.5837 38.5609 7.45732C34.4355 3.33089 28.8422 1.00873 23.0073 1ZM23.0073 8.02564C20.266 8.01935 17.5764 8.77173 15.2363 10.1995C12.8962 11.6272 10.9968 13.6747 9.74833 16.1152C8.49989 18.5557 7.9511 21.2941 8.16273 24.0272C8.37435 26.7603 9.33812 29.3815 10.9474 31.6007C11.1065 31.7695 11.3212 31.8752 11.552 31.8983C11.7828 31.9214 12.0142 31.8604 12.2036 31.7265C12.393 31.5927 12.5277 31.3949 12.583 31.1696C12.6383 30.9444 12.6103 30.7067 12.5044 30.5004C11.1181 28.5809 10.2846 26.3182 10.0944 23.9581C9.90422 21.5981 10.3646 19.2311 11.4256 17.1144C12.4865 14.9977 14.1074 13.2124 16.1121 11.9525C18.1167 10.6926 20.4284 10.0063 22.7957 9.96826C25.1631 9.93023 27.4956 10.5419 29.5397 11.7368C31.5838 12.9317 33.2612 14.664 34.3895 16.7456C35.5179 18.8271 36.0541 21.1781 35.9398 23.543C35.8255 25.9079 35.0651 28.1963 33.7412 30.1593C33.5953 30.3708 33.5394 30.6317 33.5858 30.8845C33.6323 31.1373 33.7772 31.3613 33.9888 31.5072C34.2004 31.6531 34.4612 31.709 34.714 31.6626C34.9668 31.6162 35.1908 31.4712 35.3367 31.2596C36.8645 29.0233 37.7518 26.4118 37.9026 23.7076C38.0534 21.0034 37.4621 18.3095 36.1925 15.9171C34.923 13.5247 33.0235 11.5249 30.6996 10.134C28.3756 8.74312 25.7156 8.01404 23.0073 8.02564ZM29.9309 25.5435C29.2832 27.0742 28.1467 28.3473 26.699 29.1638C28.0542 29.8467 29.1935 30.8923 29.9899 32.1842C30.7864 33.476 31.2089 34.9635 31.2104 36.4811V48.2549C31.2104 49.3464 30.7768 50.3931 30.0051 51.1649C29.2333 51.9367 28.1865 52.3702 27.0951 52.3702H18.9139C17.8225 52.3702 16.7757 51.9367 16.004 51.1649C15.2322 50.3931 14.7986 49.3464 14.7986 48.2549V36.4811C14.8001 34.9635 15.2226 33.476 16.0191 32.1842C16.8156 30.8923 17.9548 29.8467 19.3101 29.1638C17.8623 28.3473 16.7258 27.0742 16.0781 25.5435C15.4304 24.0128 15.308 22.3106 15.7301 20.7029C16.1522 19.0953 17.0949 17.6728 18.411 16.6576C19.7271 15.6424 21.3424 15.0918 23.0045 15.0918C24.6666 15.0918 26.2819 15.6424 27.598 16.6576C28.9141 17.6728 29.8568 19.0953 30.2789 20.7029C30.701 22.3106 30.5786 24.0128 29.9309 25.5435ZM18.3523 19.5176C17.7381 20.4384 17.4109 21.5208 17.412 22.6276C17.4149 24.1102 18.0055 25.5311 19.0543 26.579C20.1032 27.6268 21.5247 28.216 23.0073 28.2174C24.1141 28.2174 25.1962 27.8891 26.1164 27.2741C27.0367 26.659 27.7538 25.7848 28.1772 24.7621C28.6005 23.7394 28.711 22.6141 28.4946 21.5285C28.2783 20.443 27.7449 19.446 26.9618 18.6637C26.1787 17.8814 25.1812 17.349 24.0955 17.1337C23.0097 16.9184 21.8845 17.03 20.8622 17.4543C19.8399 17.8787 18.9664 18.5967 18.3523 19.5176ZM28.6402 49.811C29.0529 49.3983 29.2848 48.8386 29.2848 48.2549L29.2738 36.4811C29.2254 34.8477 28.5426 33.2973 27.3701 32.159C26.1976 31.0207 24.6277 30.384 22.9935 30.384C21.3593 30.384 19.7895 31.0207 18.617 32.159C17.4445 33.2973 16.7616 34.8477 16.7132 36.4811V48.2549C16.7132 48.8386 16.9451 49.3983 17.3578 49.811C17.7705 50.2238 18.3303 50.4556 18.9139 50.4556H27.0841C27.6677 50.4556 28.2275 50.2238 28.6402 49.811Z" fill="url(#paint0_linear_101_782)"/>
<path d="M7.45554 7.45537L7.66767 7.6675L7.45554 7.45537ZM23.0073 1L23.0077 0.699999L23.0068 0.7L23.0073 1ZM1.00017 23.0071L1.30017 23.0083L1.30017 23.0075L1.00017 23.0071ZM2.78345 31.732L3.05892 31.6132L2.78345 31.732ZM7.90489 39.0173L8.14969 38.8438L8.13212 38.819L8.10994 38.7983L7.90489 39.0173ZM8.21688 39.2989L8.36447 39.0377L8.36446 39.0377L8.21688 39.2989ZM8.61913 39.4208L8.59688 39.72L8.61913 39.4208ZM9.035 39.3598L9.14232 39.6399H9.14233L9.035 39.3598ZM9.38521 39.1273L9.60166 39.3351L9.60166 39.3351L9.38521 39.1273ZM9.60303 38.7679L9.31871 38.6721L9.31871 38.6721L9.60303 38.7679ZM9.64695 38.3498L9.94495 38.3153L9.64695 38.3498ZM9.21432 37.6528L9.00842 37.871L9.02824 37.8897L9.05112 37.9045L9.21432 37.6528ZM3.38788 27.3868L3.68078 27.3219L3.38788 27.3868ZM11.7211 6.41484L11.5526 6.16661L11.7211 6.41484ZM34.2879 6.41484L34.4564 6.16661L34.2879 6.41484ZM41.6769 15.6204L41.3981 15.7312L41.6769 15.6204ZM42.6211 27.3868L42.914 27.4517L42.6211 27.3868ZM36.7947 37.6528L36.9882 37.8821L36.9946 37.8767L37.0006 37.871L36.7947 37.6528ZM36.5543 37.9585L36.8227 38.0925L36.8227 38.0925L36.5543 37.9585ZM36.4544 38.3343L36.1549 38.3174V38.3175L36.4544 38.3343ZM36.7159 39.0498L36.934 38.8438L36.934 38.8438L36.7159 39.0498ZM37.0346 39.2727L37.1533 38.9972L37.1533 38.9972L37.0346 39.2727ZM37.7963 39.273L37.9149 39.5485L37.9149 39.5485L37.7963 39.273ZM38.1151 39.0503L37.91 38.8313L37.9034 38.8375L37.8972 38.8441L38.1151 39.0503ZM45.0144 23.0126L44.7143 23.013L44.7144 23.0142L45.0144 23.0126ZM15.2363 10.1995L15.08 9.94339L15.2363 10.1995ZM23.0073 8.02564L23.0066 8.32565L23.0085 8.32564L23.0073 8.02564ZM9.74833 16.1152L10.0154 16.2518L9.74833 16.1152ZM8.16273 24.0272L8.46183 24.004L8.16273 24.0272ZM10.9474 31.6007L10.7045 31.7768L10.7158 31.7925L10.7291 31.8065L10.9474 31.6007ZM11.552 31.8983L11.5221 32.1968H11.5221L11.552 31.8983ZM12.2036 31.7265L12.3767 31.9715L12.3767 31.9715L12.2036 31.7265ZM12.583 31.1696L12.8744 31.2411V31.2411L12.583 31.1696ZM12.5044 30.5004L12.7712 30.3633L12.7609 30.3431L12.7476 30.3247L12.5044 30.5004ZM10.0944 23.9581L10.3934 23.934L10.0944 23.9581ZM11.4256 17.1144L11.6938 17.2488L11.4256 17.1144ZM16.1121 11.9525L15.9524 11.6985L16.1121 11.9525ZM22.7957 9.96826L22.8006 10.2682L22.7957 9.96826ZM29.5397 11.7368L29.6911 11.4778L29.5397 11.7368ZM34.3895 16.7456L34.6533 16.6026V16.6026L34.3895 16.7456ZM35.9398 23.543L36.2395 23.5575L35.9398 23.543ZM33.7412 30.1593L33.9882 30.3296L33.9899 30.327L33.7412 30.1593ZM33.5858 30.8845L33.8809 30.8303V30.8303L33.5858 30.8845ZM33.9888 31.5072L34.1591 31.2602H34.1591L33.9888 31.5072ZM34.714 31.6626L34.7682 31.9576L34.714 31.6626ZM35.3367 31.2596L35.5837 31.4299L35.5844 31.4289L35.3367 31.2596ZM37.9026 23.7076L37.6031 23.6909L37.9026 23.7076ZM36.1925 15.9171L36.4575 15.7764L36.1925 15.9171ZM26.699 29.1638L26.5516 28.9024L26.0619 29.1786L26.5639 29.4317L26.699 29.1638ZM29.9309 25.5435L30.2072 25.6604L29.9309 25.5435ZM29.9899 32.1842L29.7346 32.3416L29.9899 32.1842ZM31.2104 36.4811H31.5104V36.4808L31.2104 36.4811ZM30.0051 51.1649L29.7929 50.9527L30.0051 51.1649ZM14.7986 36.4811L14.4986 36.4808V36.4811H14.7986ZM16.0191 32.1842L15.7637 32.0267L16.0191 32.1842ZM19.3101 29.1638L19.4451 29.4317L19.9472 29.1786L19.4574 28.9024L19.3101 29.1638ZM16.0781 25.5435L15.8018 25.6604L16.0781 25.5435ZM15.7301 20.7029L16.0203 20.7791L15.7301 20.7029ZM18.411 16.6576L18.5942 16.8952L18.411 16.6576ZM27.598 16.6576L27.4148 16.8952L27.598 16.6576ZM30.2789 20.7029L29.9887 20.7791L30.2789 20.7029ZM17.412 22.6276L17.112 22.6279V22.6282L17.412 22.6276ZM18.3523 19.5176L18.6019 19.684L18.3523 19.5176ZM19.0543 26.579L18.8423 26.7912H18.8423L19.0543 26.579ZM23.0073 28.2174L23.007 28.5174H23.0073V28.2174ZM28.1772 24.7621L28.4544 24.8768L28.1772 24.7621ZM28.4946 21.5285L28.2004 21.5872L28.4946 21.5285ZM24.0955 17.1337L24.1538 16.8394L24.0955 17.1337ZM20.8622 17.4543L20.7472 17.1773L20.8622 17.4543ZM29.2848 48.2549H29.5848V48.2546L29.2848 48.2549ZM28.6402 49.811L28.4281 49.5989H28.4281L28.6402 49.811ZM29.2738 36.4811L29.5739 36.4808L29.5737 36.4722L29.2738 36.4811ZM27.3701 32.159L27.1611 32.3742L27.3701 32.159ZM18.617 32.159L18.8259 32.3742H18.8259L18.617 32.159ZM16.7132 36.4811L16.4132 36.4722V36.4811H16.7132ZM17.3578 49.811L17.5699 49.5989H17.5699L17.3578 49.811ZM7.66767 7.6675C11.7368 3.59842 17.2532 1.30861 23.0077 1.3L23.0068 0.7C17.0934 0.70885 11.4248 3.06185 7.24341 7.24324L7.66767 7.6675ZM1.30017 23.0075C1.30878 17.253 3.59859 11.7366 7.66767 7.6675L7.24341 7.24324C3.06202 11.4246 0.70902 17.0933 0.70017 23.0066L1.30017 23.0075ZM3.05892 31.6132C1.88722 28.8963 1.28849 25.967 1.30017 23.0083L0.700172 23.0059C0.688172 26.0471 1.30359 29.0582 2.50797 31.8508L3.05892 31.6132ZM8.10994 38.7983C5.95012 36.776 4.23062 34.3301 3.05892 31.6132L2.50797 31.8508C3.71235 34.6434 5.4798 37.1576 7.69985 39.2362L8.10994 38.7983ZM8.36446 39.0377C8.27947 38.9897 8.20613 38.9235 8.14969 38.8438L7.6601 39.1907C7.76762 39.3425 7.90735 39.4686 8.06929 39.5601L8.36446 39.0377ZM8.64138 39.1217C8.54402 39.1144 8.44946 39.0858 8.36447 39.0377L8.06929 39.5601C8.23123 39.6516 8.41139 39.7062 8.59688 39.72L8.64138 39.1217ZM8.92767 39.0796C8.8365 39.1146 8.73874 39.1289 8.64138 39.1217L8.59688 39.72C8.78238 39.7338 8.96863 39.7065 9.14232 39.6399L8.92767 39.0796ZM9.16876 38.9196C9.10116 38.9901 9.01884 39.0447 8.92766 39.0796L9.14233 39.6399C9.31602 39.5734 9.47287 39.4693 9.60166 39.3351L9.16876 38.9196ZM9.31871 38.6721C9.28756 38.7647 9.23636 38.8492 9.16876 38.9196L9.60166 39.3351C9.73046 39.2009 9.82801 39.0399 9.88736 38.8636L9.31871 38.6721ZM9.34894 38.3844C9.36018 38.4814 9.34986 38.5796 9.31871 38.6721L9.88735 38.8636C9.9467 38.6873 9.96637 38.5001 9.94495 38.3153L9.34894 38.3844ZM9.25369 38.1111C9.30518 38.1941 9.3377 38.2874 9.34894 38.3844L9.94495 38.3153C9.92354 38.1305 9.86157 37.9528 9.76348 37.7947L9.25369 38.1111ZM9.05112 37.9045C9.13303 37.9576 9.20221 38.0282 9.25369 38.1111L9.76348 37.7947C9.66539 37.6367 9.5336 37.5023 9.37752 37.4011L9.05112 37.9045ZM3.09499 27.4517C3.97844 31.4385 6.03851 35.0683 9.00842 37.871L9.42022 37.4346C6.53769 34.7144 4.53824 31.1914 3.68078 27.3219L3.09499 27.4517ZM4.0533 15.5096C2.54538 19.3046 2.21153 23.4648 3.09499 27.4517L3.68078 27.3219C2.82332 23.4523 3.14734 19.4145 4.6109 15.7312L4.0533 15.5096ZM11.5526 6.16661C8.17376 8.45984 5.56123 11.7147 4.0533 15.5096L4.6109 15.7312C6.07445 12.0479 8.61012 8.88882 11.8895 6.66307L11.5526 6.16661ZM23.0045 2.64739C18.921 2.64739 14.9314 3.87339 11.5526 6.16661L11.8895 6.66307C15.169 4.43731 19.0411 3.24739 23.0045 3.24739V2.64739ZM34.4564 6.16661C31.0776 3.87339 27.0881 2.64739 23.0045 2.64739V3.24739C26.9679 3.24739 30.84 4.43731 34.1195 6.66307L34.4564 6.16661ZM41.9557 15.5096C40.4478 11.7147 37.8353 8.45984 34.4564 6.16661L34.1195 6.66307C37.3989 8.88882 39.9346 12.0479 41.3981 15.7312L41.9557 15.5096ZM42.914 27.4517C43.7975 23.4648 43.4636 19.3046 41.9557 15.5096L41.3981 15.7312C42.8617 19.4145 43.1857 23.4523 42.3282 27.3219L42.914 27.4517ZM37.0006 37.871C39.9705 35.0683 42.0306 31.4385 42.914 27.4517L42.3282 27.3219C41.4708 31.1914 39.4713 34.7144 36.5888 37.4346L37.0006 37.871ZM36.8227 38.0925C36.863 38.0118 36.9193 37.9402 36.9882 37.8821L36.6012 37.4236C36.4699 37.5344 36.3626 37.6708 36.2859 37.8245L36.8227 38.0925ZM36.754 38.3512C36.7591 38.2612 36.7824 38.1732 36.8227 38.0925L36.2859 37.8245C36.2092 37.9782 36.1646 38.1459 36.1549 38.3174L36.754 38.3512ZM36.7932 38.6161C36.7622 38.5314 36.7489 38.4413 36.754 38.3512L36.1549 38.3175C36.1453 38.489 36.1707 38.6606 36.2296 38.822L36.7932 38.6161ZM36.934 38.8438C36.872 38.7782 36.8241 38.7008 36.7932 38.6161L36.2296 38.822C36.2886 38.9834 36.3799 39.131 36.4979 39.2558L36.934 38.8438ZM37.1533 38.9972C37.0705 38.9615 36.9959 38.9093 36.934 38.8438L36.4978 39.2558C36.6158 39.3807 36.7581 39.4802 36.9158 39.5482L37.1533 38.9972ZM37.4155 39.0514C37.3253 39.0513 37.2361 39.0329 37.1533 38.9972L36.9158 39.5482C37.0736 39.6162 37.2435 39.6513 37.4153 39.6514L37.4155 39.0514ZM37.6777 38.9974C37.5949 39.033 37.5057 39.0514 37.4155 39.0514L37.4153 39.6514C37.5871 39.6514 37.7571 39.6164 37.9149 39.5485L37.6777 38.9974ZM37.8972 38.8441C37.8352 38.9096 37.7606 38.9618 37.6777 38.9974L37.9149 39.5485C38.0727 39.4806 38.215 39.3812 38.333 39.2564L37.8972 38.8441ZM42.9635 31.6332C41.7926 34.3549 40.0722 36.8055 37.91 38.8313L38.3202 39.2692C40.5427 37.1869 42.3112 34.6679 43.5147 31.8703L42.9635 31.6332ZM44.7144 23.0142C44.7305 25.9771 44.1344 28.9114 42.9635 31.6332L43.5147 31.8703C44.7182 29.0726 45.3309 26.0565 45.3143 23.011L44.7144 23.0142ZM38.3488 7.66943C42.418 11.7397 44.7072 17.2575 44.7144 23.013L45.3144 23.0122C45.307 17.0979 42.9546 11.4278 38.7731 7.24521L38.3488 7.66943ZM23.0068 1.3C28.7623 1.30862 34.2795 3.59917 38.3488 7.66943L38.7731 7.24521C34.5915 3.06262 28.922 0.708854 23.0077 0.7L23.0068 1.3ZM15.3925 10.4556C17.6854 9.05666 20.3206 8.31948 23.0066 8.32564L23.0079 7.72564C20.2113 7.71923 17.4674 8.4868 15.08 9.94339L15.3925 10.4556ZM10.0154 16.2518C11.2386 13.8606 13.0997 11.8545 15.3925 10.4556L15.08 9.94339C12.6927 11.4 10.7549 13.4888 9.48125 15.9786L10.0154 16.2518ZM8.46183 24.004C8.25448 21.3261 8.79218 18.643 10.0154 16.2518L9.48125 15.9786C8.20759 18.4684 7.64772 21.262 7.86362 24.0503L8.46183 24.004ZM11.1902 31.4246C9.61349 29.2502 8.66918 26.6819 8.46183 24.004L7.86362 24.0503C8.07952 26.8386 9.06276 29.5128 10.7045 31.7768L11.1902 31.4246ZM11.5819 31.5998C11.423 31.5839 11.2752 31.5111 11.1656 31.3949L10.7291 31.8065C10.9378 32.0279 11.2194 32.1665 11.5221 32.1968L11.5819 31.5998ZM12.0304 31.4815C11.9 31.5737 11.7408 31.6157 11.5819 31.5998L11.5221 32.1968C11.8248 32.2271 12.1283 32.1471 12.3767 31.9715L12.0304 31.4815ZM12.2916 31.0982C12.2536 31.2532 12.1608 31.3894 12.0304 31.4815L12.3767 31.9715C12.6252 31.7959 12.8019 31.5366 12.8744 31.2411L12.2916 31.0982ZM12.2375 30.6374C12.3105 30.7795 12.3297 30.9431 12.2916 31.0982L12.8744 31.2411C12.9468 30.9456 12.9102 30.6339 12.7712 30.3633L12.2375 30.6374ZM9.79539 23.9822C9.99 26.397 10.8428 28.7121 12.2612 30.676L12.7476 30.3247C11.3935 28.4497 10.5792 26.2394 10.3934 23.934L9.79539 23.9822ZM11.1574 16.98C10.0718 19.1457 9.60078 21.5675 9.79539 23.9822L10.3934 23.934C10.2077 21.6287 10.6574 19.3165 11.6938 17.2488L11.1574 16.98ZM15.9524 11.6985C13.9013 12.9876 12.2429 14.8143 11.1574 16.98L11.6938 17.2488C12.7301 15.1812 14.3135 13.4372 16.2717 12.2065L15.9524 11.6985ZM22.7909 9.6683C20.3687 9.7072 18.0035 10.4094 15.9524 11.6985L16.2717 12.2065C18.2299 10.9757 20.488 10.3054 22.8006 10.2682L22.7909 9.6683ZM29.6911 11.4778C27.5997 10.2552 25.2131 9.62939 22.7909 9.6683L22.8006 10.2682C25.1131 10.2311 27.3916 10.8286 29.3883 11.9958L29.6911 11.4778ZM34.6533 16.6026C33.4988 14.4729 31.7825 12.7004 29.6911 11.4778L29.3883 11.9958C31.385 13.163 33.0236 14.8552 34.1258 16.8885L34.6533 16.6026ZM36.2395 23.5575C36.3564 21.1378 35.8078 18.7323 34.6533 16.6026L34.1258 16.8885C35.2281 18.9218 35.7518 21.2184 35.6402 23.5285L36.2395 23.5575ZM33.9899 30.327C35.3445 28.3186 36.1225 25.9772 36.2395 23.5575L35.6402 23.5285C35.5285 25.8387 34.7857 28.074 33.4925 29.9915L33.9899 30.327ZM33.8809 30.8303C33.8488 30.6558 33.8874 30.4757 33.9882 30.3296L33.4942 29.989C33.3032 30.266 33.23 30.6077 33.2908 30.9387L33.8809 30.8303ZM34.1591 31.2602C34.013 31.1595 33.913 31.0048 33.8809 30.8303L33.2908 30.9387C33.3516 31.2698 33.5414 31.5631 33.8185 31.7542L34.1591 31.2602ZM34.6598 31.3675C34.4853 31.3996 34.3052 31.361 34.1591 31.2602L33.8185 31.7542C34.0956 31.9453 34.4372 32.0185 34.7682 31.9576L34.6598 31.3675ZM35.0898 31.0893C34.989 31.2354 34.8344 31.3355 34.6598 31.3675L34.7682 31.9576C35.0993 31.8968 35.3926 31.707 35.5837 31.4299L35.0898 31.0893ZM37.6031 23.6909C37.4553 26.3405 36.5859 28.8992 35.089 31.0904L35.5844 31.4289C37.143 29.1473 38.0482 26.4831 38.2021 23.7243L37.6031 23.6909ZM35.9275 16.0577C37.1715 18.4018 37.7509 21.0413 37.6031 23.6909L38.2021 23.7243C38.356 20.9655 37.7527 18.2172 36.4575 15.7764L35.9275 16.0577ZM30.5455 10.3914C32.8225 11.7542 34.6836 13.7136 35.9275 16.0577L36.4575 15.7764C35.1623 13.3357 33.2245 11.2956 30.8536 9.87659L30.5455 10.3914ZM23.0085 8.32564C25.6622 8.31428 28.2685 9.02862 30.5455 10.3914L30.8536 9.87659C28.4827 8.45761 25.769 7.71381 23.006 7.72565L23.0085 8.32564ZM26.8463 29.4251C28.3518 28.576 29.5337 27.2522 30.2072 25.6604L29.6546 25.4266C29.0328 26.8963 27.9416 28.1185 26.5516 28.9024L26.8463 29.4251ZM30.2453 32.0267C29.4197 30.6876 28.2388 29.6038 26.834 28.8958L26.5639 29.4317C27.8697 30.0897 28.9672 31.097 29.7346 32.3416L30.2453 32.0267ZM31.5104 36.4808C31.5088 34.9077 31.0709 33.3658 30.2453 32.0267L29.7346 32.3416C30.5019 33.5862 30.909 35.0193 30.9104 36.4814L31.5104 36.4808ZM31.5104 48.2549V36.4811H30.9104V48.2549H31.5104ZM30.2172 51.377C31.0452 50.549 31.5104 49.4259 31.5104 48.2549H30.9104C30.9104 49.2668 30.5084 50.2372 29.7929 50.9527L30.2172 51.377ZM27.0951 52.6702C28.2661 52.6702 29.3892 52.205 30.2172 51.377L29.7929 50.9527C29.0774 51.6683 28.107 52.0702 27.0951 52.0702V52.6702ZM18.9139 52.6702H27.0951V52.0702H18.9139V52.6702ZM15.7918 51.377C16.6199 52.205 17.7429 52.6702 18.9139 52.6702V52.0702C17.9021 52.0702 16.9316 51.6683 16.2161 50.9527L15.7918 51.377ZM14.4986 48.2549C14.4986 49.4259 14.9638 50.549 15.7918 51.377L16.2161 50.9527C15.5006 50.2372 15.0986 49.2668 15.0986 48.2549H14.4986ZM14.4986 36.4811V48.2549H15.0986V36.4811H14.4986ZM15.7637 32.0267C14.9381 33.3658 14.5002 34.9077 14.4986 36.4808L15.0986 36.4814C15.1001 35.0193 15.5071 33.5862 16.2745 32.3416L15.7637 32.0267ZM19.1751 28.8958C17.7702 29.6038 16.5893 30.6876 15.7637 32.0267L16.2745 32.3416C17.0418 31.097 18.1394 30.0897 19.4451 29.4317L19.1751 28.8958ZM15.8018 25.6604C16.4753 27.2522 17.6572 28.576 19.1627 29.4251L19.4574 28.9024C18.0674 28.1185 16.9762 26.8963 16.3544 25.4266L15.8018 25.6604ZM15.44 20.6268C15.001 22.2985 15.1283 24.0686 15.8018 25.6604L16.3544 25.4266C15.7325 23.9569 15.6151 22.3226 16.0203 20.7791L15.44 20.6268ZM18.2278 16.4201C16.8592 17.4757 15.8789 18.955 15.44 20.6268L16.0203 20.7791C16.4255 19.2356 17.3306 17.8698 18.5942 16.8952L18.2278 16.4201ZM23.0045 14.7918C21.2761 14.7918 19.5964 15.3644 18.2278 16.4201L18.5942 16.8952C19.8578 15.9205 21.4087 15.3918 23.0045 15.3918V14.7918ZM27.7813 16.4201C26.4127 15.3644 24.7329 14.7918 23.0045 14.7918V15.3918C24.6003 15.3918 26.1512 15.9205 27.4148 16.8952L27.7813 16.4201ZM30.5691 20.6268C30.1302 18.955 29.1498 17.4757 27.7813 16.4201L27.4148 16.8952C28.6784 17.8698 29.5835 19.2356 29.9887 20.7791L30.5691 20.6268ZM30.2072 25.6604C30.8807 24.0686 31.008 22.2985 30.5691 20.6268L29.9887 20.7791C30.394 22.3226 30.2765 23.9569 29.6546 25.4266L30.2072 25.6604ZM17.712 22.6274C17.7109 21.5798 18.0206 20.5555 18.6019 19.684L18.1027 19.3511C17.4556 20.3213 17.1108 21.4617 17.112 22.6279L17.712 22.6274ZM19.2664 26.3667C18.2737 25.375 17.7147 24.0302 17.712 22.6271L17.112 22.6282C17.115 24.1902 17.7373 25.6873 18.8423 26.7912L19.2664 26.3667ZM23.0076 27.9174C21.6044 27.9161 20.259 27.3584 19.2664 26.3667L18.8423 26.7912C19.9473 27.8951 21.445 28.5159 23.007 28.5174L23.0076 27.9174ZM25.9497 27.0247C25.0788 27.6067 24.0548 27.9174 23.0073 27.9174V28.5174C24.1735 28.5174 25.3135 28.1715 26.2831 27.5235L25.9497 27.0247ZM27.9 24.6474C27.4993 25.6153 26.8206 26.4426 25.9497 27.0247L26.2831 27.5235C27.2527 26.8755 28.0083 25.9544 28.4544 24.8768L27.9 24.6474ZM28.2004 21.5872C28.4052 22.6145 28.3006 23.6795 27.9 24.6474L28.4544 24.8768C28.9004 23.7993 29.0168 22.6136 28.7889 21.4699L28.2004 21.5872ZM26.7498 18.876C27.4909 19.6163 27.9957 20.5598 28.2004 21.5872L28.7889 21.4699C28.5609 20.3262 27.9989 19.2757 27.1738 18.4515L26.7498 18.876ZM24.0371 17.428C25.0647 17.6317 26.0087 18.1356 26.7498 18.876L27.1738 18.4515C26.3488 17.6272 25.2978 17.0662 24.1538 16.8394L24.0371 17.428ZM20.9772 17.7314C21.9447 17.3298 23.0096 17.2242 24.0371 17.428L24.1538 16.8394C23.0099 16.6126 21.8243 16.7302 20.7472 17.1773L20.9772 17.7314ZM18.6019 19.684C19.1831 18.8125 20.0097 18.133 20.9772 17.7314L20.7472 17.1773C19.6701 17.6244 18.7498 18.3809 18.1027 19.3511L18.6019 19.684ZM28.9848 48.2549C28.9848 48.759 28.7845 49.2425 28.4281 49.5989L28.8523 50.0232C29.3213 49.5542 29.5848 48.9181 29.5848 48.2549H28.9848ZM28.9738 36.4814L28.9848 48.2552L29.5848 48.2546L29.5738 36.4808L28.9738 36.4814ZM27.1611 32.3742C28.2776 33.4582 28.9279 34.9345 28.9739 36.49L29.5737 36.4722C29.523 34.7608 28.8075 33.1364 27.579 31.9438L27.1611 32.3742ZM22.9935 30.684C24.5497 30.684 26.0446 31.2903 27.1611 32.3742L27.579 31.9438C26.3505 30.7511 24.7057 30.084 22.9935 30.084V30.684ZM18.8259 32.3742C19.9425 31.2903 21.4374 30.684 22.9935 30.684V30.084C21.2813 30.084 19.6365 30.7511 18.408 31.9438L18.8259 32.3742ZM17.0131 36.49C17.0592 34.9345 17.7094 33.4582 18.8259 32.3742L18.408 31.9438C17.1795 33.1364 16.464 34.7608 16.4134 36.4722L17.0131 36.49ZM17.0132 48.2549V36.4811H16.4132V48.2549H17.0132ZM17.5699 49.5989C17.2135 49.2425 17.0132 48.759 17.0132 48.2549H16.4132C16.4132 48.9181 16.6767 49.5542 17.1457 50.0232L17.5699 49.5989ZM18.9139 50.1556C18.4098 50.1556 17.9264 49.9554 17.5699 49.5989L17.1457 50.0232C17.6147 50.4921 18.2507 50.7556 18.9139 50.7556V50.1556ZM27.0841 50.1556H18.9139V50.7556H27.0841V50.1556ZM28.4281 49.5989C28.0716 49.9554 27.5882 50.1556 27.0841 50.1556V50.7556C27.7473 50.7556 28.3834 50.4921 28.8524 50.0232L28.4281 49.5989Z" fill="url(#paint1_linear_101_782)"/>
<defs>
<linearGradient id="paint0_linear_101_782" x1="1" y1="9.11108" x2="47.8202" y2="10.6908" gradientUnits="userSpaceOnUse">
<stop stop-color="#03E2CD"/>
<stop offset="1" stop-color="#6254FC"/>
</linearGradient>
<linearGradient id="paint1_linear_101_782" x1="1" y1="9.11108" x2="47.8202" y2="10.6908" gradientUnits="userSpaceOnUse">
<stop stop-color="#03E2CD"/>
<stop offset="1" stop-color="#6254FC"/>
</linearGradient>
</defs>
</svg>
