<svg width="96" height="36" viewBox="0 0 96 36" fill="none" xmlns="http://www.w3.org/2000/svg">
<path fill-rule="evenodd" clip-rule="evenodd" d="M47.5159 3.34547C47.3639 3.34547 46.9898 3.38722 46.791 3.78474L43.7411 9.88284C43.2584 10.8466 42.3281 11.5163 41.2525 11.67L34.4245 12.6538C33.9735 12.7189 33.8198 13.053 33.7731 13.1933C33.7313 13.3286 33.6645 13.6726 33.9752 13.9699L38.9124 18.7135C39.6991 19.4701 40.0566 20.5608 39.8695 21.6281L38.707 28.3258C38.6352 28.745 38.8974 28.9889 39.0143 29.0724C39.1379 29.1659 39.4686 29.3513 39.8778 29.1375L45.9826 25.9724C46.9447 25.4763 48.0905 25.4763 49.0492 25.9724L55.1523 29.1358C55.5632 29.348 55.8939 29.1626 56.0192 29.0724C56.1361 28.9889 56.3983 28.745 56.3265 28.3258L55.1607 21.6281C54.9736 20.5608 55.331 19.4701 56.1177 18.7135L61.055 13.9699C61.3673 13.6726 61.3005 13.3269 61.2571 13.1933C61.212 13.053 61.0583 12.7189 60.6074 12.6538L53.7794 11.67C52.7054 11.5163 51.7751 10.8466 51.2924 9.88117L48.2391 3.78474C48.042 3.38722 47.6679 3.34547 47.5159 3.34547ZM39.4937 31.7398C38.8039 31.7398 38.1191 31.5226 37.5328 31.0951C36.5206 30.3535 36.0246 29.1292 36.24 27.8965L37.4025 21.1988C37.446 20.9499 37.3608 20.6977 37.177 20.5207L32.2398 15.7772C31.3312 14.907 31.0055 13.6209 31.3896 12.4266C31.7771 11.219 32.8027 10.3555 34.067 10.1751L40.895 9.19135C41.1589 9.15461 41.3861 8.99259 41.4997 8.7621L44.5512 2.66233C45.1141 1.53825 46.2499 0.840088 47.5159 0.840088C48.782 0.840088 49.9177 1.53825 50.4806 2.66233L53.5338 8.76043C53.6491 8.99259 53.8746 9.15461 54.1368 9.19135L60.9648 10.1751C62.2292 10.3555 63.2547 11.219 63.6422 12.4266C64.0264 13.6209 63.699 14.907 62.7904 15.7772L57.8531 20.5207C57.6694 20.6977 57.5859 20.9499 57.6293 21.1971L58.7935 27.8965C59.0073 29.1308 58.5112 30.3551 57.4974 31.0951C56.4701 31.8483 55.1323 31.9502 53.9982 31.3589L47.8967 28.1972C47.6579 28.0736 47.3723 28.0736 47.1334 28.1972L41.032 31.3606C40.5443 31.6145 40.0182 31.7398 39.4937 31.7398Z" fill="#FFF2AD"/>
<path fill-rule="evenodd" clip-rule="evenodd" d="M83.9232 12.9539C83.8249 12.9186 83.5734 12.8586 83.3525 13.0694L79.9645 16.3028C79.4286 16.8136 78.6717 17.0304 77.9407 16.8799L73.2985 15.9297C72.9919 15.867 72.8149 16.0472 72.7521 16.1271C72.6937 16.2048 72.5706 16.4117 72.7023 16.6761L74.7919 20.8892C75.1246 21.561 75.1023 22.3491 74.7335 22.9955L72.4261 27.0549C72.2823 27.3092 72.3952 27.5278 72.4514 27.6089C72.5095 27.6981 72.6802 27.8947 72.9944 27.8516L77.6758 27.2238C78.4129 27.1266 79.1536 27.3928 79.6581 27.9362L82.8683 31.3988C83.0846 31.6313 83.3414 31.5883 83.4433 31.5591C83.5383 31.5323 83.7645 31.4356 83.8154 31.1479L84.6177 26.5477C84.7447 25.8143 85.2291 25.1923 85.9134 24.886L90.2068 22.9667C90.4778 22.8471 90.5149 22.6081 90.5179 22.5116C90.5213 22.4104 90.4996 22.1588 90.2232 22.0119L86.0381 19.7899C85.3796 19.4411 84.9338 18.792 84.846 18.0558L84.2886 13.4058C84.2536 13.1031 84.0214 12.9892 83.9232 12.9539ZM72.1416 29.4445C71.6957 29.2842 71.3035 28.9848 71.0238 28.5722C70.5418 27.8577 70.5056 26.9511 70.9312 26.2044L73.2385 22.145C73.3244 21.9942 73.3279 21.8114 73.2503 21.6543L71.1607 17.4411C70.7756 16.6675 70.8638 15.7605 71.3895 15.0778C71.9205 14.3873 72.784 14.0673 73.6432 14.2444L78.2854 15.1946C78.4645 15.2322 78.649 15.1802 78.776 15.0576L82.1655 11.8236C82.7904 11.2277 83.6868 11.0403 84.5052 11.3344C85.3235 11.6285 85.8955 12.3436 85.9982 13.201L86.5553 17.8521C86.5758 18.0289 86.684 18.186 86.8449 18.2707L91.03 20.4928C91.8054 20.9031 92.2677 21.6995 92.2377 22.5701C92.2086 23.4313 91.6982 24.1866 90.9087 24.538L86.6154 26.4573C86.4555 26.5291 86.3429 26.6727 86.3136 26.8426L85.5098 31.4435C85.3613 32.291 84.7562 32.9672 83.929 33.21C83.09 33.4583 82.2015 33.2133 81.6058 32.5677L78.3963 29.1065C78.2706 28.9712 78.086 28.9048 77.9029 28.9292L73.224 29.5567C72.8498 29.6075 72.4806 29.5663 72.1416 29.4445Z" fill="#FFF2AD" stroke="#FFF2AD" stroke-width="0.8"/>
<path fill-rule="evenodd" clip-rule="evenodd" d="M11.1084 12.9539C11.2066 12.9186 11.4582 12.8586 11.679 13.0694L15.067 16.3028C15.6029 16.8136 16.3599 17.0304 17.0909 16.8799L21.733 15.9297C22.0397 15.867 22.2166 16.0472 22.2794 16.1271C22.3378 16.2048 22.461 16.4117 22.3292 16.6761L20.2397 20.8892C19.9069 21.561 19.9292 22.3491 20.2981 22.9955L22.6054 27.0549C22.7492 27.3092 22.6363 27.5278 22.5802 27.6089C22.522 27.6981 22.3513 27.8947 22.0371 27.8516L17.3557 27.2238C16.6186 27.1266 15.8779 27.3928 15.3735 27.9362L12.1633 31.3988C11.9469 31.6313 11.6901 31.5883 11.5882 31.5591C11.4932 31.5323 11.2671 31.4356 11.2161 31.1479L10.4138 26.5477C10.2868 25.8143 9.80239 25.1923 9.11811 24.886L4.82472 22.9667C4.55377 22.8471 4.51664 22.6081 4.51367 22.5116C4.51023 22.4104 4.53196 22.1588 4.80833 22.0119L8.99344 19.7899C9.65196 19.4411 10.0977 18.792 10.1855 18.0558L10.7429 13.4058C10.778 13.1031 11.0101 12.9892 11.1084 12.9539ZM22.8899 29.4445C23.3358 29.2842 23.7281 28.9848 24.0077 28.5722C24.4897 27.8577 24.5259 26.9511 24.1003 26.2044L21.793 22.145C21.7071 21.9942 21.7036 21.8114 21.7812 21.6543L23.8708 17.4411C24.256 16.6675 24.1677 15.7606 23.642 15.0778C23.111 14.3873 22.2475 14.0673 21.3883 14.2444L16.7461 15.1946C16.567 15.2322 16.3825 15.1802 16.2556 15.0576L12.8661 11.8236C12.2411 11.2277 11.3447 11.0403 10.5264 11.3344C9.70798 11.6285 9.136 12.3436 9.03328 13.201L8.47625 17.8521C8.45569 18.0289 8.34757 18.186 8.1866 18.2707L4.00149 20.4928C3.2261 20.9031 2.76378 21.6995 2.79383 22.5701C2.82292 23.4313 3.3333 24.1866 4.12278 24.538L8.41616 26.4573C8.57605 26.5291 8.68862 26.6727 8.71798 26.8426L9.52172 31.4435C9.67025 32.291 10.2753 32.9672 11.1026 33.21C11.9415 33.4583 12.83 33.2133 13.4257 32.5677L16.6352 29.1065C16.7609 28.9712 16.9455 28.9048 17.1286 28.9292L21.8075 29.5567C22.1817 29.6076 22.5509 29.5663 22.8899 29.4445Z" fill="#FFF2AD" stroke="#FFF2AD" stroke-width="0.8"/>
</svg>
