<svg width="36" height="32" viewBox="0 0 36 32" fill="none" xmlns="http://www.w3.org/2000/svg">
<path fill-rule="evenodd" clip-rule="evenodd" d="M21.6202 0.69228C21.6842 0.731499 21.7482 0.772783 21.806 0.82026C24.5963 3.01206 24.8012 7.08663 24.811 15.2235L24.8114 15.9983C24.8114 24.6556 24.6835 28.9181 21.806 31.1805C21.7482 31.2259 21.6842 31.2693 21.6181 31.3064C20.7635 31.7936 19.8945 32 19.0276 32C16.1563 32 13.3097 29.7397 11.0928 27.981C10.0916 27.1863 8.57858 25.9849 8.05634 25.9313C7.46391 25.8858 6.95199 25.8673 6.49993 25.8549C4.8527 25.795 3.55019 25.7517 2.01855 24.4884C0.175635 22.9706 0.00639076 19.963 0 17.3121L0.00182888 16.4442L0.00389308 15.9983L0.00182888 15.5525L0 14.6846C0.00639076 12.034 0.175635 9.02814 2.01855 7.51033C3.55225 6.24704 4.85683 6.20163 6.50819 6.1459C6.95818 6.12938 7.46804 6.11287 8.06046 6.06952C8.57858 6.01379 10.0916 4.81242 11.0928 4.01771C13.9785 1.72438 17.9356 -1.40701 21.6202 0.69228ZM19.0069 3.10946C17.2152 3.10946 14.9239 4.92802 13.0166 6.44314C11.1815 7.8984 9.73247 9.05023 8.28753 9.15756C7.64762 9.20298 7.09855 9.22362 6.61552 9.24013C5.07357 9.29174 4.68343 9.32683 3.9878 9.90068C3.18947 10.5563 3.10074 12.982 3.09656 14.802L3.09813 15.538L3.10019 15.9942V16.0025L3.09813 16.4586L3.09656 17.1953C3.10074 19.0167 3.18947 21.4424 3.9878 22.098C4.68137 22.6719 5.0715 22.7049 6.60933 22.7606C7.09442 22.7751 7.64556 22.7957 8.28753 22.8432C9.73247 22.9485 11.1815 24.1003 13.0166 25.5556C15.2934 27.3617 18.1152 29.6014 19.9833 28.6704C21.4975 27.358 21.7029 23.9481 21.7146 16.7326L21.7151 15.9983C21.7151 8.27821 21.5479 4.68444 19.9833 3.3262C19.6798 3.17551 19.3516 3.10946 19.0069 3.10946ZM32.9888 7.62118C35.9509 12.7982 35.9509 19.2179 32.9888 24.3784C32.7018 24.8779 32.1817 25.1566 31.645 25.1566C31.3828 25.1566 31.1186 25.0905 30.875 24.9501C30.134 24.5249 29.878 23.5774 30.3032 22.8385C32.7204 18.6254 32.7204 13.3865 30.3032 9.16107C29.878 8.41796 30.136 7.47256 30.8771 7.04733C31.6202 6.63036 32.5635 6.88013 32.9888 7.62118Z" fill="black"/>
</svg>
