<svg width="53" height="30" viewBox="0 0 53 30" fill="none" xmlns="http://www.w3.org/2000/svg">
<path d="M0.573669 24.614C0.573669 25.2852 0.807607 25.7927 1.2754 26.1367C1.74321 26.4806 2.24329 26.6022 2.77562 26.5016C3.27567 26.4009 3.62655 26.2163 3.82825 25.9479C4.02986 25.6795 4.13072 25.2348 4.13072 24.614V17.3154C4.13072 16.7952 3.95733 16.3548 3.61047 15.9941C3.26369 15.6333 2.84025 15.453 2.34013 15.453C1.85618 15.453 1.4408 15.6333 1.09396 15.9941C0.747121 16.3548 0.573669 16.7952 0.573669 17.3154V24.614ZM6.13905 27.7348C6.13905 28.2215 6.30441 28.5863 6.63509 28.8297C6.96581 29.073 7.38929 29.1946 7.90545 29.1946C8.43778 29.1946 8.86928 29.0729 9.2 28.8297C9.53068 28.5864 9.69606 28.2215 9.69606 27.7348V10.7215C9.69606 10.2181 9.52259 9.78602 9.17581 9.42532C8.82897 9.06463 8.40552 8.88423 7.90545 8.88423C7.42151 8.88423 7.00607 9.06463 6.6593 9.42532C6.31244 9.78609 6.13905 10.2181 6.13905 10.7215V27.7348ZM11.6802 28.5402C11.6802 29.0268 11.8496 29.3917 12.1884 29.635C12.5271 29.8783 12.9627 30 13.4951 30C14.0113 30 14.4347 29.8783 14.7654 29.635C15.0961 29.3917 15.2615 29.0268 15.2615 28.5402V13.0117C15.2615 12.4916 15.088 12.0469 14.7412 11.6778C14.3944 11.3087 13.979 11.1242 13.4951 11.1242C12.995 11.1242 12.5675 11.3087 12.2126 11.6778C11.8577 12.0469 11.6803 12.4916 11.6803 13.0117V28.5402H11.6802ZM17.2456 28.6157C17.2456 29.5385 17.8425 30 19.0362 30C20.2299 30 20.8267 29.5385 20.8267 28.6157V3.44799C20.8267 2.03859 20.4154 1.24163 19.5927 1.05705C19.0604 0.922806 18.536 1.08221 18.0199 1.53523C17.5037 1.98825 17.2455 2.6258 17.2455 3.44797V28.6157H17.2456ZM22.9078 29.3455V1.96308C22.9078 1.09062 23.1578 0.570493 23.6579 0.402677C24.7387 0.13424 25.8115 0 26.8762 0C29.3443 0 31.643 0.604026 33.7724 1.81208C35.9017 3.02013 37.6238 4.66861 38.9385 6.75752C40.2532 8.84652 41.0154 11.1493 41.2251 13.6661C42.2091 13.2299 43.2577 13.0117 44.3707 13.0117C46.6292 13.0117 48.5609 13.8423 50.166 15.5034C51.7711 17.1645 52.5737 19.1611 52.5737 21.4933C52.5737 23.8423 51.7711 25.8473 50.166 27.5084C48.5609 29.1695 46.6372 30 44.3949 30L23.3433 29.9748C23.198 29.9245 23.0891 29.8322 23.0166 29.698C22.944 29.5638 22.9078 29.4462 22.9078 29.3455Z" fill="url(#paint0_linear_85_267)"/>
<defs>
<linearGradient id="paint0_linear_85_267" x1="65139.6" y1="1131.96" x2="65139.6" y2="40770.5" gradientUnits="userSpaceOnUse">
<stop stop-color="#FF8800"/>
<stop offset="1" stop-color="#FF3300"/>
</linearGradient>
</defs>
</svg>
