<svg width="47" height="48" viewBox="0 0 47 48" fill="none" xmlns="http://www.w3.org/2000/svg">
<path d="M23.5737 0C10.8714 0 0.573669 10.7451 0.573669 23.9996C0.573669 37.2555 10.8714 48 23.5737 48C36.2765 48 46.5737 37.2555 46.5737 23.9996C46.5737 10.7459 36.277 0.00114548 23.5734 0.00114548L23.5737 0ZM34.1213 34.6143C33.7083 35.3213 32.8255 35.5428 32.1501 35.1121C26.7492 31.6675 19.951 30.8895 11.945 32.7979C11.1735 32.9824 10.4045 32.4777 10.2287 31.673C10.0521 30.868 10.5336 30.0655 11.307 29.8821C20.0683 27.792 27.5835 28.6916 33.6459 32.5571C34.3215 32.9899 34.5357 33.9098 34.121 34.6148L34.1213 34.6143ZM36.9365 28.0803C36.4163 28.961 35.3127 29.2373 34.4698 28.6965C28.2889 24.7318 18.8637 23.5834 11.5511 25.8997C10.6028 26.1986 9.60113 25.6409 9.31329 24.653C9.02766 23.6634 9.56241 22.6202 10.5091 22.3193C18.8621 19.6747 29.246 20.9557 36.3457 25.5082C37.1889 26.0498 37.4553 27.2019 36.9362 28.0806L36.9365 28.0803ZM37.1782 21.2755C29.7643 16.6812 17.5352 16.2588 10.4577 18.5002C9.32125 18.8599 8.11938 18.1904 7.77497 17.0045C7.43056 15.818 8.07159 14.5647 9.20891 14.2042C17.3333 11.6307 30.8393 12.1279 39.3737 17.4146C40.396 18.0477 40.7313 19.4253 40.1254 20.4906C39.5212 21.5572 38.1974 21.9089 37.1784 21.2755H37.1782Z" fill="#2EBD59"/>
</svg>
