<svg width="54" height="53" viewBox="0 0 54 53" fill="none" xmlns="http://www.w3.org/2000/svg">
<path d="M27.0001 1C21.921 1 16.9561 2.50611 12.733 5.32786C8.50998 8.14961 5.21851 12.1603 3.27485 16.8527C1.33119 21.5451 0.822646 26.7085 1.81351 31.6899C2.80438 36.6713 5.25016 41.2471 8.84158 44.8385C12.433 48.4299 17.0087 50.8757 21.9902 51.8666C26.9716 52.8574 32.135 52.3489 36.8274 50.4052C41.5198 48.4616 45.5305 45.1701 48.3522 40.947C51.174 36.724 52.6801 31.759 52.6801 26.68C52.6728 19.8715 49.9649 13.3439 45.1505 8.52953C40.3362 3.71517 33.8086 1.00727 27.0001 1ZM27.0001 50.4374C22.3013 50.4374 17.708 49.0441 13.8012 46.4336C9.89427 43.8231 6.84922 40.1127 5.05107 35.7716C3.25293 31.4305 2.78245 26.6536 3.69914 22.0451C4.61582 17.4367 6.8785 13.2035 10.201 9.88096C13.5236 6.55842 17.7567 4.29574 22.3652 3.37906C26.9737 2.46237 31.7505 2.93285 36.0916 4.73099C40.4327 6.52914 44.1432 9.57419 46.7537 13.4811C49.3642 17.388 50.7575 21.9812 50.7575 26.68C50.7502 32.9786 48.2449 39.0172 43.7911 43.471C39.3373 47.9248 33.2987 50.4301 27.0001 50.4374Z" fill="url(#paint0_linear_101_735)" stroke="url(#paint1_linear_101_735)"/>
<path d="M38.2828 22.6698L31.6691 21.736L28.7029 15.6937C28.5456 15.3764 28.3029 15.1094 28.002 14.9228C27.7011 14.7361 27.3541 14.6372 27 14.6372C26.646 14.6372 26.2989 14.7361 25.9981 14.9228C25.6972 15.1094 25.4545 15.3764 25.2972 15.6937L22.3529 21.736L15.7173 22.6698C15.3669 22.7216 15.0379 22.8703 14.7675 23.099C14.4971 23.3278 14.296 23.6276 14.1869 23.9646C14.0778 24.3017 14.065 24.6624 14.1501 25.0063C14.2351 25.3502 14.4145 25.6634 14.6682 25.9107L19.4581 30.5633L18.3265 37.155C18.2668 37.5032 18.3056 37.8612 18.4386 38.1885C18.5715 38.5159 18.7933 38.7995 19.079 39.0075C19.3646 39.2154 19.7027 39.3394 20.055 39.3654C20.4074 39.3913 20.76 39.3183 21.073 39.1545L27 36.0509L32.9325 39.1709C33.2049 39.3154 33.5086 39.3909 33.8169 39.3907C34.0911 39.3902 34.3618 39.3302 34.6106 39.215C34.8593 39.0997 35.0801 38.9318 35.2576 38.7229C35.4352 38.514 35.5653 38.2691 35.639 38.0051C35.7127 37.741 35.7283 37.4641 35.6845 37.1934L34.5475 30.6018L39.3429 25.9272C39.5965 25.6799 39.776 25.3666 39.861 25.0228C39.946 24.6789 39.9333 24.3181 39.8242 23.9811C39.7151 23.6441 39.514 23.3443 39.2436 23.1155C38.9731 22.8867 38.6442 22.7381 38.2937 22.6863L38.2828 22.6698ZM33.1907 29.212C32.9744 29.423 32.8117 29.6827 32.7161 29.9694C32.6206 30.256 32.5949 30.5614 32.6414 30.86L33.8114 37.4516L27.8844 34.37C27.6109 34.2293 27.3077 34.1559 27 34.1559C26.6924 34.1559 26.3892 34.2293 26.1157 34.37L20.2216 37.4956L21.3532 30.9039C21.4047 30.6002 21.3816 30.2885 21.2859 29.9957C21.1902 29.7029 21.0248 29.4377 20.8039 29.223L16.0139 24.5759L22.6056 23.6091C22.91 23.565 23.1992 23.4474 23.448 23.2665C23.6968 23.0857 23.8979 22.8469 24.0338 22.571L27 16.5616L29.9663 22.571C30.1014 22.8475 30.3023 23.0867 30.5512 23.2677C30.8002 23.4487 31.0897 23.5659 31.3945 23.6091L37.9861 24.532L33.1907 29.212Z" fill="url(#paint2_linear_101_735)" stroke="url(#paint3_linear_101_735)"/>
<defs>
<linearGradient id="paint0_linear_101_735" x1="1.32007" y1="9.10946" x2="55.9313" y2="11.2599" gradientUnits="userSpaceOnUse">
<stop stop-color="#03E2CD"/>
<stop offset="1" stop-color="#6254FC"/>
</linearGradient>
<linearGradient id="paint1_linear_101_735" x1="1.32007" y1="9.10946" x2="55.9313" y2="11.2599" gradientUnits="userSpaceOnUse">
<stop stop-color="#03E2CD"/>
<stop offset="1" stop-color="#6254FC"/>
</linearGradient>
<linearGradient id="paint2_linear_101_735" x1="14.0945" y1="18.5456" x2="41.5475" y2="19.6733" gradientUnits="userSpaceOnUse">
<stop stop-color="#03E2CD"/>
<stop offset="1" stop-color="#6254FC"/>
</linearGradient>
<linearGradient id="paint3_linear_101_735" x1="14.0945" y1="18.5456" x2="41.5475" y2="19.6733" gradientUnits="userSpaceOnUse">
<stop stop-color="#03E2CD"/>
<stop offset="1" stop-color="#6254FC"/>
</linearGradient>
</defs>
</svg>
