<svg width="83" height="55" viewBox="0 0 83 55" fill="none" xmlns="http://www.w3.org/2000/svg">
<path d="M3 31.37H0V23.84H3V31.37ZM8.33 15.82H5.33V42.4H8.33V15.82ZM13.67 11.06H10.67V46.39H13.67V11.06ZM19 5.29H16V49.94H19V5.29ZM24.33 9.72H21.33V45.05H24.33V9.72ZM29.67 0H26.67V54.78H29.67V0ZM35 11.89H32V42.89H35V11.89ZM40.33 15.39H37.33V39.39H40.33V15.39ZM45.67 20.61H42.67V34.61H45.67V20.61ZM51 6.39H48V48.39H51V6.39ZM56.33 17.6H53.33V37.18H56.33V17.6ZM61.67 21.83H58.67V32.94H61.67V21.83ZM67 25.33H64V29.46H67V25.33ZM72.33 25.33H69.33V29.46H72.33V25.33ZM77.67 25.33H74.67V29.46H77.67V25.33ZM83 25.33H80V29.46H83V25.33Z" fill="white"/>
</svg>
