<svg width="49" height="34" viewBox="0 0 49 34" fill="none" xmlns="http://www.w3.org/2000/svg">
<path d="M47.5646 5.38182C47.0191 3.30909 45.3828 1.67273 43.31 1.1C39.5737 0.0909121 24.5737 0.0909119 24.5737 0.0909119C24.5737 0.0909119 9.57367 0.0909121 5.81003 1.1C3.73731 1.64546 2.12821 3.28182 1.55549 5.38182C0.57367 9.14546 0.573669 17 0.573669 17C0.573669 17 0.573669 24.8545 1.58276 28.6182C2.12821 30.6909 3.76458 32.3273 5.83731 32.9C9.57367 33.9091 24.5737 33.9091 24.5737 33.9091C24.5737 33.9091 39.5737 33.9091 43.3373 32.9C45.41 32.3545 47.0191 30.7182 47.5919 28.6182C48.5737 24.8545 48.5737 17 48.5737 17C48.5737 17 48.5737 9.14546 47.5646 5.38182Z" fill="#EE3124"/>
<path d="M19.6646 24.1455V9.85455L32.21 17L19.6646 24.1455Z" fill="white"/>
</svg>
